<?xml version="1.0" encoding="UTF-8" standalone="no"?><svg xmlns="http://www.w3.org/2000/svg" xmlns:xlink="http://www.w3.org/1999/xlink" contentScriptType="application/ecmascript" contentStyleType="text/css" height="252px" preserveAspectRatio="none" style="width:313px;height:252px;" version="1.1" viewBox="0 0 313 252" width="313px" zoomAndPan="magnify"><defs><filter height="300%" id="f1wt3ibul60bll" width="300%" x="-1" y="-1"><feGaussianBlur result="blurOut" stdDeviation="2.0"/><feColorMatrix in="blurOut" result="blurOut2" type="matrix" values="0 0 0 0 0 0 0 0 0 0 0 0 0 0 0 0 0 0 .4 0"/><feOffset dx="4.0" dy="4.0" in="blurOut2" result="blurOut3"/><feBlend in="SourceGraphic" in2="blurOut3" mode="normal"/></filter></defs><g><!--class Subject--><rect fill="#FEFECE" filter="url(#f1wt3ibul60bll)" height="99.8203" id="Subject" style="stroke: #A80036; stroke-width: 1.5;" width="132" x="13.5" y="8"/><ellipse cx="54.6" cy="24" fill="#A9DCDF" rx="11" ry="11" style="stroke: #A80036; stroke-width: 1.0;"/><path d="M54.7133,19.5981 L53.5595,24.6699 L55.8754,24.6699 Z M53.2191,17.3569 L56.2157,17.3569 L59.5609,29.75 L57.1122,29.75 L56.3485,26.687 L53.0697,26.687 L52.3227,29.75 L49.8739,29.75 Z "/><text fill="#000000" font-family="sans-serif" font-size="12" font-style="italic" lengthAdjust="spacingAndGlyphs" textLength="42" x="74.4" y="28.5352">Subject</text><line style="stroke: #A80036; stroke-width: 1.5;" x1="14.5" x2="144.5" y1="40" y2="40"/><rect fill="none" height="6" style="stroke: #C82930; stroke-width: 1.0;" width="6" x="21.5" y="48"/><text fill="#000000" font-family="sans-serif" font-size="11" lengthAdjust="spacingAndGlyphs" textLength="106" x="33.5" y="54.6348">list: Set&lt;Observer&gt;</text><line style="stroke: #A80036; stroke-width: 1.5;" x1="14.5" x2="144.5" y1="60.9551" y2="60.9551"/><ellipse cx="24.5" cy="71.9551" fill="#84BE84" rx="3" ry="3" style="stroke: #038048; stroke-width: 1.0;"/><text fill="#000000" font-family="sans-serif" font-size="11" lengthAdjust="spacingAndGlyphs" textLength="67" x="33.5" y="75.5898">attach():void</text><ellipse cx="24.5" cy="84.9102" fill="#84BE84" rx="3" ry="3" style="stroke: #038048; stroke-width: 1.0;"/><text fill="#000000" font-family="sans-serif" font-size="11" lengthAdjust="spacingAndGlyphs" textLength="70" x="33.5" y="88.5449">detach():void</text><ellipse cx="24.5" cy="97.8652" fill="#84BE84" rx="3" ry="3" style="stroke: #038048; stroke-width: 1.0;"/><text fill="#000000" font-family="sans-serif" font-size="11" lengthAdjust="spacingAndGlyphs" textLength="65" x="33.5" y="101.5">notify():void</text><!--class ConcreteSubject--><rect fill="#FEFECE" filter="url(#f1wt3ibul60bll)" height="73.9102" id="ConcreteSubject" style="stroke: #A80036; stroke-width: 1.5;" width="125" x="6" y="168"/><ellipse cx="21" cy="184" fill="#ADD1B2" rx="11" ry="11" style="stroke: #A80036; stroke-width: 1.0;"/><path d="M23.4731,190.1431 Q22.8921,190.4419 22.2529,190.5913 Q21.6138,190.7407 20.9082,190.7407 Q18.4014,190.7407 17.0815,189.0889 Q15.7617,187.437 15.7617,184.3159 Q15.7617,181.1865 17.0815,179.5347 Q18.4014,177.8828 20.9082,177.8828 Q21.6138,177.8828 22.2612,178.0322 Q22.9087,178.1816 23.4731,178.4805 L23.4731,181.2031 Q22.8423,180.6221 22.2488,180.3523 Q21.6553,180.0825 21.0244,180.0825 Q19.6797,180.0825 18.9949,181.1492 Q18.3101,182.2158 18.3101,184.3159 Q18.3101,186.4077 18.9949,187.4744 Q19.6797,188.541 21.0244,188.541 Q21.6553,188.541 22.2488,188.2712 Q22.8423,188.0015 23.4731,187.4204 Z "/><text fill="#000000" font-family="sans-serif" font-size="12" lengthAdjust="spacingAndGlyphs" textLength="93" x="35" y="188.5352">ConcreteSubject</text><line style="stroke: #A80036; stroke-width: 1.5;" x1="7" x2="130" y1="200" y2="200"/><line style="stroke: #A80036; stroke-width: 1.5;" x1="7" x2="130" y1="208" y2="208"/><ellipse cx="17" cy="219" fill="#84BE84" rx="3" ry="3" style="stroke: #038048; stroke-width: 1.0;"/><text fill="#000000" font-family="sans-serif" font-size="11" lengthAdjust="spacingAndGlyphs" textLength="51" x="26" y="222.6348">getState()</text><ellipse cx="17" cy="231.9551" fill="#84BE84" rx="3" ry="3" style="stroke: #038048; stroke-width: 1.0;"/><text fill="#000000" font-family="sans-serif" font-size="11" lengthAdjust="spacingAndGlyphs" textLength="50" x="26" y="235.5898">setState()</text><!--class Observer--><rect fill="#FEFECE" filter="url(#f1wt3ibul60bll)" height="60.9551" id="Observer" style="stroke: #A80036; stroke-width: 1.5;" width="86" x="185.5" y="27.5"/><ellipse cx="200.95" cy="43.5" fill="#A9DCDF" rx="11" ry="11" style="stroke: #A80036; stroke-width: 1.0;"/><path d="M201.0633,39.0981 L199.9095,44.1699 L202.2254,44.1699 Z M199.5691,36.8569 L202.5657,36.8569 L205.9109,49.25 L203.4622,49.25 L202.6985,46.187 L199.4197,46.187 L198.6727,49.25 L196.2239,49.25 Z "/><text fill="#000000" font-family="sans-serif" font-size="12" font-style="italic" lengthAdjust="spacingAndGlyphs" textLength="53" x="215.05" y="48.0352">Observer</text><line style="stroke: #A80036; stroke-width: 1.5;" x1="186.5" x2="270.5" y1="59.5" y2="59.5"/><line style="stroke: #A80036; stroke-width: 1.5;" x1="186.5" x2="270.5" y1="67.5" y2="67.5"/><text fill="#000000" font-family="sans-serif" font-size="11" font-style="italic" lengthAdjust="spacingAndGlyphs" textLength="74" x="191.5" y="82.1348">update(): void</text><!--class ConcreteObserver--><rect fill="#FEFECE" filter="url(#f1wt3ibul60bll)" height="73.9102" id="ConcreteObserver" style="stroke: #A80036; stroke-width: 1.5;" width="136" x="166.5" y="168"/><ellipse cx="181.5" cy="184" fill="#ADD1B2" rx="11" ry="11" style="stroke: #A80036; stroke-width: 1.0;"/><path d="M183.9731,190.1431 Q183.3921,190.4419 182.7529,190.5913 Q182.1138,190.7407 181.4082,190.7407 Q178.9014,190.7407 177.5815,189.0889 Q176.2617,187.437 176.2617,184.3159 Q176.2617,181.1865 177.5815,179.5347 Q178.9014,177.8828 181.4082,177.8828 Q182.1138,177.8828 182.7612,178.0322 Q183.4087,178.1816 183.9731,178.4805 L183.9731,181.2031 Q183.3423,180.6221 182.7488,180.3523 Q182.1553,180.0825 181.5244,180.0825 Q180.1797,180.0825 179.4949,181.1492 Q178.8101,182.2158 178.8101,184.3159 Q178.8101,186.4077 179.4949,187.4744 Q180.1797,188.541 181.5244,188.541 Q182.1553,188.541 182.7488,188.2712 Q183.3423,188.0015 183.9731,187.4204 Z "/><text fill="#000000" font-family="sans-serif" font-size="12" lengthAdjust="spacingAndGlyphs" textLength="104" x="195.5" y="188.5352">ConcreteObserver</text><line style="stroke: #A80036; stroke-width: 1.5;" x1="167.5" x2="301.5" y1="200" y2="200"/><rect fill="none" height="6" style="stroke: #C82930; stroke-width: 1.0;" width="6" x="174.5" y="208"/><text fill="#000000" font-family="sans-serif" font-size="11" lengthAdjust="spacingAndGlyphs" textLength="74" x="186.5" y="214.6348">observerState</text><line style="stroke: #A80036; stroke-width: 1.5;" x1="167.5" x2="301.5" y1="220.9551" y2="220.9551"/><ellipse cx="177.5" cy="231.9551" fill="#84BE84" rx="3" ry="3" style="stroke: #038048; stroke-width: 1.0;"/><text fill="#000000" font-family="sans-serif" font-size="11" lengthAdjust="spacingAndGlyphs" textLength="74" x="186.5" y="235.5898">update(): void</text><!--reverse link Subject to ConcreteSubject--><path d="M74.23,128.41 C73.2,142.04 72.16,155.81 71.25,167.8 " fill="none" id="Subject&lt;-ConcreteSubject" style="stroke: #A80036; stroke-width: 1.0;"/><polygon fill="none" points="67.28,127.5,75.78,108.09,81.24,128.56,67.28,127.5" style="stroke: #A80036; stroke-width: 1.0;"/><!--reverse link Observer to ConcreteObserver--><path d="M230.56,108.87 C231.37,128.28 232.27,150.09 233.01,167.93 " fill="none" id="Observer&lt;-ConcreteObserver" style="stroke: #A80036; stroke-width: 1.0;"/><polygon fill="none" points="223.56,108.97,229.73,88.69,237.55,108.39,223.56,108.97" style="stroke: #A80036; stroke-width: 1.0;"/><!--link Subject to Observer--><path d="M145.56,58 C157.08,58 168.6,58 180.12,58 " fill="none" id="Subject-&gt;Observer" style="stroke: #A80036; stroke-width: 1.0;"/><polygon fill="#A80036" points="185.41,58,176.41,54,180.41,58,176.41,62,185.41,58" style="stroke: #A80036; stroke-width: 1.0;"/><!--reverse link ConcreteSubject to ConcreteObserver--><path d="M136.29,205 C146.27,205 156.25,205 166.22,205 " fill="none" id="ConcreteSubject&lt;-ConcreteObserver" style="stroke: #A80036; stroke-width: 1.0; stroke-dasharray: 7.0,7.0;"/><polygon fill="#A80036" points="131.07,205,140.07,209,136.07,205,140.07,201,131.07,205" style="stroke: #A80036; stroke-width: 1.0;"/><!--
@startuml observer
abstract Subject{
  - list: Set<Observer>
  + attach():void
  + detach():void
  + notify():void
}
class ConcreteSubject{
  + getState()
  + setState()
}
abstract Observer{
  {abstract} update(): void
}
class ConcreteObserver{
  - observerState
  + update(): void
}

ConcreteSubject -up-|> Subject
ConcreteObserver -up-|> Observer
Subject -right-> Observer
ConcreteObserver .left.> ConcreteSubject

@enduml

PlantUML version 1.2019.09(Tue Aug 27 00:19:51 CST 2019)
(GPL source distribution)
Java Runtime: Java(TM) SE Runtime Environment
JVM: Java HotSpot(TM) 64-Bit Server VM
Java Version: 1.8.0_152-b16
Operating System: Mac OS X
OS Version: 10.14.4
Default Encoding: UTF-8
Language: zh
Country: CN
--></g></svg>