<?xml version="1.0" encoding="UTF-8" standalone="no"?><svg xmlns="http://www.w3.org/2000/svg" xmlns:xlink="http://www.w3.org/1999/xlink" contentScriptType="application/ecmascript" contentStyleType="text/css" height="321px" preserveAspectRatio="none" style="width:321px;height:321px;" version="1.1" viewBox="0 0 321 321" width="321px" zoomAndPan="magnify"><defs><filter height="300%" id="fdsw1cujdp5rj" width="300%" x="-1" y="-1"><feGaussianBlur result="blurOut" stdDeviation="2.0"/><feColorMatrix in="blurOut" result="blurOut2" type="matrix" values="0 0 0 0 0 0 0 0 0 0 0 0 0 0 0 0 0 0 .4 0"/><feOffset dx="4.0" dy="4.0" in="blurOut2" result="blurOut3"/><feBlend in="SourceGraphic" in2="blurOut3" mode="normal"/></filter></defs><g><!--class Product--><rect fill="#FEFECE" filter="url(#fdsw1cujdp5rj)" height="60.9551" id="Product" style="stroke: #A80036; stroke-width: 1.5;" width="76" x="120.5" y="8"/><ellipse cx="135.5" cy="24" fill="#A9DCDF" rx="11" ry="11" style="stroke: #A80036; stroke-width: 1.0;"/><path d="M135.6133,19.5981 L134.4595,24.6699 L136.7754,24.6699 Z M134.1191,17.3569 L137.1157,17.3569 L140.4609,29.75 L138.0122,29.75 L137.2485,26.687 L133.9697,26.687 L133.2227,29.75 L130.7739,29.75 Z "/><text fill="#000000" font-family="sans-serif" font-size="12" font-style="italic" lengthAdjust="spacingAndGlyphs" textLength="44" x="149.5" y="28.5352">Product</text><line style="stroke: #A80036; stroke-width: 1.5;" x1="121.5" x2="195.5" y1="40" y2="40"/><line style="stroke: #A80036; stroke-width: 1.5;" x1="121.5" x2="195.5" y1="48" y2="48"/><text fill="#000000" font-family="sans-serif" font-size="11" font-style="italic" lengthAdjust="spacingAndGlyphs" textLength="27" x="126.5" y="62.6348">use()</text><!--class ConcreteProductA--><rect fill="#FEFECE" filter="url(#fdsw1cujdp5rj)" height="60.9551" id="ConcreteProductA" style="stroke: #A80036; stroke-width: 1.5;" width="135" x="6" y="129"/><ellipse cx="21" cy="145" fill="#ADD1B2" rx="11" ry="11" style="stroke: #A80036; stroke-width: 1.0;"/><path d="M23.4731,151.1431 Q22.8921,151.4419 22.2529,151.5913 Q21.6138,151.7407 20.9082,151.7407 Q18.4014,151.7407 17.0815,150.0889 Q15.7617,148.437 15.7617,145.3159 Q15.7617,142.1865 17.0815,140.5347 Q18.4014,138.8828 20.9082,138.8828 Q21.6138,138.8828 22.2612,139.0322 Q22.9087,139.1816 23.4731,139.4805 L23.4731,142.2031 Q22.8423,141.6221 22.2488,141.3523 Q21.6553,141.0825 21.0244,141.0825 Q19.6797,141.0825 18.9949,142.1492 Q18.3101,143.2158 18.3101,145.3159 Q18.3101,147.4077 18.9949,148.4744 Q19.6797,149.541 21.0244,149.541 Q21.6553,149.541 22.2488,149.2712 Q22.8423,149.0015 23.4731,148.4204 Z "/><text fill="#000000" font-family="sans-serif" font-size="12" lengthAdjust="spacingAndGlyphs" textLength="103" x="35" y="149.5352">ConcreteProductA</text><line style="stroke: #A80036; stroke-width: 1.5;" x1="7" x2="140" y1="161" y2="161"/><line style="stroke: #A80036; stroke-width: 1.5;" x1="7" x2="140" y1="169" y2="169"/><ellipse cx="17" cy="180" fill="#84BE84" rx="3" ry="3" style="stroke: #038048; stroke-width: 1.0;"/><text fill="#000000" font-family="sans-serif" font-size="11" lengthAdjust="spacingAndGlyphs" textLength="27" x="26" y="183.6348">use()</text><!--class ConcreteProductB--><rect fill="#FEFECE" filter="url(#fdsw1cujdp5rj)" height="60.9551" id="ConcreteProductB" style="stroke: #A80036; stroke-width: 1.5;" width="134" x="176.5" y="129"/><ellipse cx="191.5" cy="145" fill="#ADD1B2" rx="11" ry="11" style="stroke: #A80036; stroke-width: 1.0;"/><path d="M193.9731,151.1431 Q193.3921,151.4419 192.7529,151.5913 Q192.1138,151.7407 191.4082,151.7407 Q188.9014,151.7407 187.5815,150.0889 Q186.2617,148.437 186.2617,145.3159 Q186.2617,142.1865 187.5815,140.5347 Q188.9014,138.8828 191.4082,138.8828 Q192.1138,138.8828 192.7612,139.0322 Q193.4087,139.1816 193.9731,139.4805 L193.9731,142.2031 Q193.3423,141.6221 192.7488,141.3523 Q192.1553,141.0825 191.5244,141.0825 Q190.1797,141.0825 189.4949,142.1492 Q188.8101,143.2158 188.8101,145.3159 Q188.8101,147.4077 189.4949,148.4744 Q190.1797,149.541 191.5244,149.541 Q192.1553,149.541 192.7488,149.2712 Q193.3423,149.0015 193.9731,148.4204 Z "/><text fill="#000000" font-family="sans-serif" font-size="12" lengthAdjust="spacingAndGlyphs" textLength="102" x="205.5" y="149.5352">ConcreteProductB</text><line style="stroke: #A80036; stroke-width: 1.5;" x1="177.5" x2="309.5" y1="161" y2="161"/><line style="stroke: #A80036; stroke-width: 1.5;" x1="177.5" x2="309.5" y1="169" y2="169"/><ellipse cx="187.5" cy="180" fill="#84BE84" rx="3" ry="3" style="stroke: #038048; stroke-width: 1.0;"/><text fill="#000000" font-family="sans-serif" font-size="11" lengthAdjust="spacingAndGlyphs" textLength="27" x="196.5" y="183.6348">use()</text><!--class Factory--><rect fill="#FEFECE" filter="url(#fdsw1cujdp5rj)" height="60.9551" id="Factory" style="stroke: #A80036; stroke-width: 1.5;" width="172" x="72.5" y="250"/><ellipse cx="133.75" cy="266" fill="#ADD1B2" rx="11" ry="11" style="stroke: #A80036; stroke-width: 1.0;"/><path d="M136.2231,272.1431 Q135.6421,272.4419 135.0029,272.5913 Q134.3638,272.7407 133.6582,272.7407 Q131.1514,272.7407 129.8315,271.0889 Q128.5117,269.437 128.5117,266.3159 Q128.5117,263.1865 129.8315,261.5347 Q131.1514,259.8828 133.6582,259.8828 Q134.3638,259.8828 135.0112,260.0322 Q135.6587,260.1816 136.2231,260.4805 L136.2231,263.2031 Q135.5923,262.6221 134.9988,262.3523 Q134.4053,262.0825 133.7744,262.0825 Q132.4297,262.0825 131.7449,263.1492 Q131.0601,264.2158 131.0601,266.3159 Q131.0601,268.4077 131.7449,269.4744 Q132.4297,270.541 133.7744,270.541 Q134.4053,270.541 134.9988,270.2712 Q135.5923,270.0015 136.2231,269.4204 Z "/><text fill="#000000" font-family="sans-serif" font-size="12" lengthAdjust="spacingAndGlyphs" textLength="41" x="154.25" y="270.5352">Factory</text><line style="stroke: #A80036; stroke-width: 1.5;" x1="73.5" x2="243.5" y1="282" y2="282"/><line style="stroke: #A80036; stroke-width: 1.5;" x1="73.5" x2="243.5" y1="290" y2="290"/><text fill="#000000" font-family="sans-serif" font-size="11" lengthAdjust="spacingAndGlyphs" text-decoration="underline" textLength="160" x="78.5" y="304.6348">createProduct(string):Product</text><!--reverse link Product to ConcreteProductA--><path d="M125.63,85.52 C115.26,100.03 104.09,115.68 94.75,128.74 " fill="none" id="Product&lt;-ConcreteProductA" style="stroke: #A80036; stroke-width: 1.0; stroke-dasharray: 7.0,7.0;"/><polygon fill="none" points="119.95,81.43,137.27,69.22,131.34,89.57,119.95,81.43" style="stroke: #A80036; stroke-width: 1.0;"/><!--reverse link Product to ConcreteProductB--><path d="M191.37,85.52 C201.74,100.03 212.91,115.68 222.25,128.74 " fill="none" id="Product&lt;-ConcreteProductB" style="stroke: #A80036; stroke-width: 1.0; stroke-dasharray: 7.0,7.0;"/><polygon fill="none" points="185.66,89.57,179.73,69.22,197.05,81.43,185.66,89.57" style="stroke: #A80036; stroke-width: 1.0;"/><!--reverse link ConcreteProductA to Factory--><path d="M97.83,194.57 C110.28,211.99 125.27,232.98 137.25,249.74 " fill="none" id="ConcreteProductA&lt;-Factory" style="stroke: #A80036; stroke-width: 1.0; stroke-dasharray: 7.0,7.0;"/><polygon fill="#A80036" points="94.73,190.22,96.7158,199.8666,97.6402,194.2858,103.221,195.2102,94.73,190.22" style="stroke: #A80036; stroke-width: 1.0;"/><!--reverse link ConcreteProductB to Factory--><path d="M219.17,194.57 C206.72,211.99 191.73,232.98 179.75,249.74 " fill="none" id="ConcreteProductB&lt;-Factory" style="stroke: #A80036; stroke-width: 1.0; stroke-dasharray: 7.0,7.0;"/><polygon fill="#A80036" points="222.27,190.22,213.779,195.2102,219.3598,194.2858,220.2842,199.8666,222.27,190.22" style="stroke: #A80036; stroke-width: 1.0;"/><!--
@startuml simple factory
abstract Product{
  {abstract} use()
}
class ConcreteProductA{
  +use()
}
class ConcreteProductB{
  +use()
}
class Factory{
  {static} createProduct(string):Product
}

Product <|.. ConcreteProductA
Product <|.. ConcreteProductB
ConcreteProductA <.. Factory
ConcreteProductB <.. Factory
@enduml

PlantUML version 1.2019.09(Tue Aug 27 00:19:51 CST 2019)
(GPL source distribution)
Java Runtime: Java(TM) SE Runtime Environment
JVM: Java HotSpot(TM) 64-Bit Server VM
Java Version: 1.8.0_152-b16
Operating System: Mac OS X
OS Version: 10.14.4
Default Encoding: UTF-8
Language: zh
Country: CN
--></g></svg>