<?xml version="1.0" encoding="UTF-8" standalone="no"?><svg xmlns="http://www.w3.org/2000/svg" xmlns:xlink="http://www.w3.org/1999/xlink" contentScriptType="application/ecmascript" contentStyleType="text/css" height="468px" preserveAspectRatio="none" style="width:692px;height:468px;" version="1.1" viewBox="0 0 692 468" width="692px" zoomAndPan="magnify"><defs><filter height="300%" id="f1f87slossmete" width="300%" x="-1" y="-1"><feGaussianBlur result="blurOut" stdDeviation="2.0"/><feColorMatrix in="blurOut" result="blurOut2" type="matrix" values="0 0 0 0 0 0 0 0 0 0 0 0 0 0 0 0 0 0 .4 0"/><feOffset dx="4.0" dy="4.0" in="blurOut2" result="blurOut3"/><feBlend in="SourceGraphic" in2="blurOut3" mode="normal"/></filter></defs><g><!--class Factory--><rect fill="#FEFECE" filter="url(#f1f87slossmete)" height="73.9102" id="Factory" style="stroke: #A80036; stroke-width: 1.5;" width="156" x="265.5" y="384"/><ellipse cx="318.75" cy="400" fill="#A9DCDF" rx="11" ry="11" style="stroke: #A80036; stroke-width: 1.0;"/><path d="M318.8633,395.5981 L317.7095,400.6699 L320.0254,400.6699 Z M317.3691,393.3569 L320.3657,393.3569 L323.7109,405.75 L321.2622,405.75 L320.4985,402.687 L317.2197,402.687 L316.4727,405.75 L314.0239,405.75 Z "/><text fill="#000000" font-family="sans-serif" font-size="12" font-style="italic" lengthAdjust="spacingAndGlyphs" textLength="41" x="339.25" y="404.5352">Factory</text><line style="stroke: #A80036; stroke-width: 1.5;" x1="266.5" x2="420.5" y1="416" y2="416"/><line style="stroke: #A80036; stroke-width: 1.5;" x1="266.5" x2="420.5" y1="424" y2="424"/><text fill="#000000" font-family="sans-serif" font-size="11" font-style="italic" lengthAdjust="spacingAndGlyphs" textLength="144" x="271.5" y="438.6348">createProductA():ProductA</text><text fill="#000000" font-family="sans-serif" font-size="11" font-style="italic" lengthAdjust="spacingAndGlyphs" textLength="140" x="271.5" y="451.5898">createProductB():ProductB</text><!--class ConcreteFactory1--><rect fill="#FEFECE" filter="url(#f1f87slossmete)" height="73.9102" id="ConcreteFactory1" style="stroke: #A80036; stroke-width: 1.5;" width="170" x="361.5" y="250"/><ellipse cx="393.6" cy="266" fill="#ADD1B2" rx="11" ry="11" style="stroke: #A80036; stroke-width: 1.0;"/><path d="M396.0731,272.1431 Q395.4921,272.4419 394.8529,272.5913 Q394.2138,272.7407 393.5082,272.7407 Q391.0014,272.7407 389.6815,271.0889 Q388.3617,269.437 388.3617,266.3159 Q388.3617,263.1865 389.6815,261.5347 Q391.0014,259.8828 393.5082,259.8828 Q394.2138,259.8828 394.8612,260.0322 Q395.5087,260.1816 396.0731,260.4805 L396.0731,263.2031 Q395.4423,262.6221 394.8488,262.3523 Q394.2553,262.0825 393.6244,262.0825 Q392.2797,262.0825 391.5949,263.1492 Q390.9101,264.2158 390.9101,266.3159 Q390.9101,268.4077 391.5949,269.4744 Q392.2797,270.541 393.6244,270.541 Q394.2553,270.541 394.8488,270.2712 Q395.4423,270.0015 396.0731,269.4204 Z "/><text fill="#000000" font-family="sans-serif" font-size="12" lengthAdjust="spacingAndGlyphs" textLength="100" x="411.4" y="270.5352">ConcreteFactory1</text><line style="stroke: #A80036; stroke-width: 1.5;" x1="362.5" x2="530.5" y1="282" y2="282"/><line style="stroke: #A80036; stroke-width: 1.5;" x1="362.5" x2="530.5" y1="290" y2="290"/><ellipse cx="372.5" cy="301" fill="#84BE84" rx="3" ry="3" style="stroke: #038048; stroke-width: 1.0;"/><text fill="#000000" font-family="sans-serif" font-size="11" lengthAdjust="spacingAndGlyphs" textLength="144" x="381.5" y="304.6348">createProductA():ProductA</text><ellipse cx="372.5" cy="313.9551" fill="#84BE84" rx="3" ry="3" style="stroke: #038048; stroke-width: 1.0;"/><text fill="#000000" font-family="sans-serif" font-size="11" lengthAdjust="spacingAndGlyphs" textLength="143" x="381.5" y="317.5898"> createProductB():ProductB</text><!--class ConcreteFactory2--><rect fill="#FEFECE" filter="url(#f1f87slossmete)" height="73.9102" id="ConcreteFactory2" style="stroke: #A80036; stroke-width: 1.5;" width="170" x="156.5" y="250"/><ellipse cx="188.6" cy="266" fill="#ADD1B2" rx="11" ry="11" style="stroke: #A80036; stroke-width: 1.0;"/><path d="M191.0731,272.1431 Q190.4921,272.4419 189.8529,272.5913 Q189.2138,272.7407 188.5082,272.7407 Q186.0014,272.7407 184.6815,271.0889 Q183.3617,269.437 183.3617,266.3159 Q183.3617,263.1865 184.6815,261.5347 Q186.0014,259.8828 188.5082,259.8828 Q189.2138,259.8828 189.8612,260.0322 Q190.5087,260.1816 191.0731,260.4805 L191.0731,263.2031 Q190.4423,262.6221 189.8488,262.3523 Q189.2553,262.0825 188.6244,262.0825 Q187.2797,262.0825 186.5949,263.1492 Q185.9101,264.2158 185.9101,266.3159 Q185.9101,268.4077 186.5949,269.4744 Q187.2797,270.541 188.6244,270.541 Q189.2553,270.541 189.8488,270.2712 Q190.4423,270.0015 191.0731,269.4204 Z "/><text fill="#000000" font-family="sans-serif" font-size="12" lengthAdjust="spacingAndGlyphs" textLength="100" x="206.4" y="270.5352">ConcreteFactory2</text><line style="stroke: #A80036; stroke-width: 1.5;" x1="157.5" x2="325.5" y1="282" y2="282"/><line style="stroke: #A80036; stroke-width: 1.5;" x1="157.5" x2="325.5" y1="290" y2="290"/><ellipse cx="167.5" cy="301" fill="#84BE84" rx="3" ry="3" style="stroke: #038048; stroke-width: 1.0;"/><text fill="#000000" font-family="sans-serif" font-size="11" lengthAdjust="spacingAndGlyphs" textLength="144" x="176.5" y="304.6348">createProductA():ProductA</text><ellipse cx="167.5" cy="313.9551" fill="#84BE84" rx="3" ry="3" style="stroke: #038048; stroke-width: 1.0;"/><text fill="#000000" font-family="sans-serif" font-size="11" lengthAdjust="spacingAndGlyphs" textLength="143" x="176.5" y="317.5898"> createProductB():ProductB</text><!--class ProductA--><rect fill="#FEFECE" filter="url(#f1f87slossmete)" height="60.9551" id="ProductA" style="stroke: #A80036; stroke-width: 1.5;" width="84" x="124.5" y="8"/><ellipse cx="139.5" cy="24" fill="#A9DCDF" rx="11" ry="11" style="stroke: #A80036; stroke-width: 1.0;"/><path d="M139.6133,19.5981 L138.4595,24.6699 L140.7754,24.6699 Z M138.1191,17.3569 L141.1157,17.3569 L144.4609,29.75 L142.0122,29.75 L141.2485,26.687 L137.9697,26.687 L137.2227,29.75 L134.7739,29.75 Z "/><text fill="#000000" font-family="sans-serif" font-size="12" font-style="italic" lengthAdjust="spacingAndGlyphs" textLength="52" x="153.5" y="28.5352">ProductA</text><line style="stroke: #A80036; stroke-width: 1.5;" x1="125.5" x2="207.5" y1="40" y2="40"/><line style="stroke: #A80036; stroke-width: 1.5;" x1="125.5" x2="207.5" y1="48" y2="48"/><text fill="#000000" font-family="sans-serif" font-size="11" font-style="italic" lengthAdjust="spacingAndGlyphs" textLength="27" x="130.5" y="62.6348">use()</text><!--class ConcreteProductA1--><rect fill="#FEFECE" filter="url(#f1f87slossmete)" height="60.9551" id="ConcreteProductA1" style="stroke: #A80036; stroke-width: 1.5;" width="143" x="184" y="129"/><ellipse cx="199" cy="145" fill="#ADD1B2" rx="11" ry="11" style="stroke: #A80036; stroke-width: 1.0;"/><path d="M201.4731,151.1431 Q200.8921,151.4419 200.2529,151.5913 Q199.6138,151.7407 198.9082,151.7407 Q196.4014,151.7407 195.0815,150.0889 Q193.7617,148.437 193.7617,145.3159 Q193.7617,142.1865 195.0815,140.5347 Q196.4014,138.8828 198.9082,138.8828 Q199.6138,138.8828 200.2612,139.0322 Q200.9087,139.1816 201.4731,139.4805 L201.4731,142.2031 Q200.8423,141.6221 200.2488,141.3523 Q199.6553,141.0825 199.0244,141.0825 Q197.6797,141.0825 196.9949,142.1492 Q196.3101,143.2158 196.3101,145.3159 Q196.3101,147.4077 196.9949,148.4744 Q197.6797,149.541 199.0244,149.541 Q199.6553,149.541 200.2488,149.2712 Q200.8423,149.0015 201.4731,148.4204 Z "/><text fill="#000000" font-family="sans-serif" font-size="12" lengthAdjust="spacingAndGlyphs" textLength="111" x="213" y="149.5352">ConcreteProductA1</text><line style="stroke: #A80036; stroke-width: 1.5;" x1="185" x2="326" y1="161" y2="161"/><line style="stroke: #A80036; stroke-width: 1.5;" x1="185" x2="326" y1="169" y2="169"/><ellipse cx="195" cy="180" fill="#84BE84" rx="3" ry="3" style="stroke: #038048; stroke-width: 1.0;"/><text fill="#000000" font-family="sans-serif" font-size="11" lengthAdjust="spacingAndGlyphs" textLength="27" x="204" y="183.6348">use()</text><!--class ConcreteProductA2--><rect fill="#FEFECE" filter="url(#f1f87slossmete)" height="60.9551" id="ConcreteProductA2" style="stroke: #A80036; stroke-width: 1.5;" width="143" x="6" y="129"/><ellipse cx="21" cy="145" fill="#ADD1B2" rx="11" ry="11" style="stroke: #A80036; stroke-width: 1.0;"/><path d="M23.4731,151.1431 Q22.8921,151.4419 22.2529,151.5913 Q21.6138,151.7407 20.9082,151.7407 Q18.4014,151.7407 17.0815,150.0889 Q15.7617,148.437 15.7617,145.3159 Q15.7617,142.1865 17.0815,140.5347 Q18.4014,138.8828 20.9082,138.8828 Q21.6138,138.8828 22.2612,139.0322 Q22.9087,139.1816 23.4731,139.4805 L23.4731,142.2031 Q22.8423,141.6221 22.2488,141.3523 Q21.6553,141.0825 21.0244,141.0825 Q19.6797,141.0825 18.9949,142.1492 Q18.3101,143.2158 18.3101,145.3159 Q18.3101,147.4077 18.9949,148.4744 Q19.6797,149.541 21.0244,149.541 Q21.6553,149.541 22.2488,149.2712 Q22.8423,149.0015 23.4731,148.4204 Z "/><text fill="#000000" font-family="sans-serif" font-size="12" lengthAdjust="spacingAndGlyphs" textLength="111" x="35" y="149.5352">ConcreteProductA2</text><line style="stroke: #A80036; stroke-width: 1.5;" x1="7" x2="148" y1="161" y2="161"/><line style="stroke: #A80036; stroke-width: 1.5;" x1="7" x2="148" y1="169" y2="169"/><ellipse cx="17" cy="180" fill="#84BE84" rx="3" ry="3" style="stroke: #038048; stroke-width: 1.0;"/><text fill="#000000" font-family="sans-serif" font-size="11" lengthAdjust="spacingAndGlyphs" textLength="27" x="26" y="183.6348">use()</text><!--class ProductB--><rect fill="#FEFECE" filter="url(#f1f87slossmete)" height="60.9551" id="ProductB" style="stroke: #A80036; stroke-width: 1.5;" width="83" x="480" y="8"/><ellipse cx="495" cy="24" fill="#A9DCDF" rx="11" ry="11" style="stroke: #A80036; stroke-width: 1.0;"/><path d="M495.1133,19.5981 L493.9595,24.6699 L496.2754,24.6699 Z M493.6191,17.3569 L496.6157,17.3569 L499.9609,29.75 L497.5122,29.75 L496.7485,26.687 L493.4697,26.687 L492.7227,29.75 L490.2739,29.75 Z "/><text fill="#000000" font-family="sans-serif" font-size="12" font-style="italic" lengthAdjust="spacingAndGlyphs" textLength="51" x="509" y="28.5352">ProductB</text><line style="stroke: #A80036; stroke-width: 1.5;" x1="481" x2="562" y1="40" y2="40"/><line style="stroke: #A80036; stroke-width: 1.5;" x1="481" x2="562" y1="48" y2="48"/><text fill="#000000" font-family="sans-serif" font-size="11" font-style="italic" lengthAdjust="spacingAndGlyphs" textLength="27" x="486" y="62.6348">use()</text><!--class ConcreteProductB1--><rect fill="#FEFECE" filter="url(#f1f87slossmete)" height="60.9551" id="ConcreteProductB1" style="stroke: #A80036; stroke-width: 1.5;" width="142" x="539.5" y="129"/><ellipse cx="554.5" cy="145" fill="#ADD1B2" rx="11" ry="11" style="stroke: #A80036; stroke-width: 1.0;"/><path d="M556.9731,151.1431 Q556.3921,151.4419 555.7529,151.5913 Q555.1138,151.7407 554.4082,151.7407 Q551.9014,151.7407 550.5815,150.0889 Q549.2617,148.437 549.2617,145.3159 Q549.2617,142.1865 550.5815,140.5347 Q551.9014,138.8828 554.4082,138.8828 Q555.1138,138.8828 555.7612,139.0322 Q556.4087,139.1816 556.9731,139.4805 L556.9731,142.2031 Q556.3423,141.6221 555.7488,141.3523 Q555.1553,141.0825 554.5244,141.0825 Q553.1797,141.0825 552.4949,142.1492 Q551.8101,143.2158 551.8101,145.3159 Q551.8101,147.4077 552.4949,148.4744 Q553.1797,149.541 554.5244,149.541 Q555.1553,149.541 555.7488,149.2712 Q556.3423,149.0015 556.9731,148.4204 Z "/><text fill="#000000" font-family="sans-serif" font-size="12" lengthAdjust="spacingAndGlyphs" textLength="110" x="568.5" y="149.5352">ConcreteProductB1</text><line style="stroke: #A80036; stroke-width: 1.5;" x1="540.5" x2="680.5" y1="161" y2="161"/><line style="stroke: #A80036; stroke-width: 1.5;" x1="540.5" x2="680.5" y1="169" y2="169"/><ellipse cx="550.5" cy="180" fill="#84BE84" rx="3" ry="3" style="stroke: #038048; stroke-width: 1.0;"/><text fill="#000000" font-family="sans-serif" font-size="11" lengthAdjust="spacingAndGlyphs" textLength="27" x="559.5" y="183.6348">use()</text><!--class ConcreteProductB2--><rect fill="#FEFECE" filter="url(#f1f87slossmete)" height="60.9551" id="ConcreteProductB2" style="stroke: #A80036; stroke-width: 1.5;" width="142" x="362.5" y="129"/><ellipse cx="377.5" cy="145" fill="#ADD1B2" rx="11" ry="11" style="stroke: #A80036; stroke-width: 1.0;"/><path d="M379.9731,151.1431 Q379.3921,151.4419 378.7529,151.5913 Q378.1138,151.7407 377.4082,151.7407 Q374.9014,151.7407 373.5815,150.0889 Q372.2617,148.437 372.2617,145.3159 Q372.2617,142.1865 373.5815,140.5347 Q374.9014,138.8828 377.4082,138.8828 Q378.1138,138.8828 378.7612,139.0322 Q379.4087,139.1816 379.9731,139.4805 L379.9731,142.2031 Q379.3423,141.6221 378.7488,141.3523 Q378.1553,141.0825 377.5244,141.0825 Q376.1797,141.0825 375.4949,142.1492 Q374.8101,143.2158 374.8101,145.3159 Q374.8101,147.4077 375.4949,148.4744 Q376.1797,149.541 377.5244,149.541 Q378.1553,149.541 378.7488,149.2712 Q379.3423,149.0015 379.9731,148.4204 Z "/><text fill="#000000" font-family="sans-serif" font-size="12" lengthAdjust="spacingAndGlyphs" textLength="110" x="391.5" y="149.5352">ConcreteProductB2</text><line style="stroke: #A80036; stroke-width: 1.5;" x1="363.5" x2="503.5" y1="161" y2="161"/><line style="stroke: #A80036; stroke-width: 1.5;" x1="363.5" x2="503.5" y1="169" y2="169"/><ellipse cx="373.5" cy="180" fill="#84BE84" rx="3" ry="3" style="stroke: #038048; stroke-width: 1.0;"/><text fill="#000000" font-family="sans-serif" font-size="11" lengthAdjust="spacingAndGlyphs" textLength="27" x="382.5" y="183.6348">use()</text><!--link ConcreteFactory1 to Factory--><path d="M418.35,324.07 C407.8,337.6 395.57,353.26 384.11,367.96 " fill="none" id="ConcreteFactory1-&gt;Factory" style="stroke: #A80036; stroke-width: 1.0; stroke-dasharray: 7.0,7.0;"/><polygon fill="none" points="389.43,372.51,371.61,383.97,378.4,363.9,389.43,372.51" style="stroke: #A80036; stroke-width: 1.0;"/><!--link ConcreteFactory2 to Factory--><path d="M269.37,324.07 C279.83,337.6 291.93,353.26 303.29,367.96 " fill="none" id="ConcreteFactory2-&gt;Factory" style="stroke: #A80036; stroke-width: 1.0; stroke-dasharray: 7.0,7.0;"/><polygon fill="none" points="308.97,363.87,315.66,383.97,297.89,372.43,308.97,363.87" style="stroke: #A80036; stroke-width: 1.0;"/><!--reverse link ProductA to ConcreteProductA1--><path d="M200.92,85.52 C211.77,100.03 223.47,115.68 233.25,128.74 " fill="none" id="ProductA&lt;-ConcreteProductA1" style="stroke: #A80036; stroke-width: 1.0; stroke-dasharray: 7.0,7.0;"/><polygon fill="none" points="195.1,89.43,188.73,69.22,206.31,81.05,195.1,89.43" style="stroke: #A80036; stroke-width: 1.0;"/><!--reverse link ProductA to ConcreteProductA2--><path d="M132.08,85.52 C121.23,100.03 109.53,115.68 99.75,128.74 " fill="none" id="ProductA&lt;-ConcreteProductA2" style="stroke: #A80036; stroke-width: 1.0; stroke-dasharray: 7.0,7.0;"/><polygon fill="none" points="126.69,81.05,144.27,69.22,137.9,89.43,126.69,81.05" style="stroke: #A80036; stroke-width: 1.0;"/><!--reverse link ProductB to ConcreteProductB1--><path d="M555.92,85.52 C566.77,100.03 578.47,115.68 588.25,128.74 " fill="none" id="ProductB&lt;-ConcreteProductB1" style="stroke: #A80036; stroke-width: 1.0; stroke-dasharray: 7.0,7.0;"/><polygon fill="none" points="550.1,89.43,543.73,69.22,561.31,81.05,550.1,89.43" style="stroke: #A80036; stroke-width: 1.0;"/><!--reverse link ProductB to ConcreteProductB2--><path d="M487.47,85.52 C476.74,100.03 465.17,115.68 455.5,128.74 " fill="none" id="ProductB&lt;-ConcreteProductB2" style="stroke: #A80036; stroke-width: 1.0; stroke-dasharray: 7.0,7.0;"/><polygon fill="none" points="482,81.14,499.52,69.22,493.26,89.46,482,81.14" style="stroke: #A80036; stroke-width: 1.0;"/><!--reverse link ConcreteProductA1 to ConcreteFactory1--><path d="M304.97,193.01 C331.54,210.46 364.35,232.02 391.69,249.99 " fill="none" id="ConcreteProductA1&lt;-ConcreteFactory1" style="stroke: #A80036; stroke-width: 1.0; stroke-dasharray: 7.0,7.0;"/><polygon fill="#A80036" points="300.76,190.24,306.0954,198.5185,304.9421,192.9805,310.4801,191.8272,300.76,190.24" style="stroke: #A80036; stroke-width: 1.0;"/><!--reverse link ConcreteProductA2 to ConcreteFactory2--><path d="M120.54,193.44 C143.25,210.82 171.16,232.17 194.44,249.99 " fill="none" id="ConcreteProductA2&lt;-ConcreteFactory2" style="stroke: #A80036; stroke-width: 1.0; stroke-dasharray: 7.0,7.0;"/><polygon fill="#A80036" points="116.37,190.24,121.0813,198.8889,120.339,193.281,125.9469,192.5386,116.37,190.24" style="stroke: #A80036; stroke-width: 1.0;"/><!--reverse link ConcreteProductB1 to ConcreteFactory1--><path d="M567.46,193.44 C544.75,210.82 516.84,232.17 493.56,249.99 " fill="none" id="ConcreteProductB1&lt;-ConcreteFactory1" style="stroke: #A80036; stroke-width: 1.0; stroke-dasharray: 7.0,7.0;"/><polygon fill="#A80036" points="571.63,190.24,562.0531,192.5386,567.661,193.281,566.9187,198.8889,571.63,190.24" style="stroke: #A80036; stroke-width: 1.0;"/><!--reverse link ConcreteProductB2 to ConcreteFactory2--><path d="M383.77,193.01 C357.06,210.46 324.08,232.02 296.6,249.99 " fill="none" id="ConcreteProductB2&lt;-ConcreteFactory2" style="stroke: #A80036; stroke-width: 1.0; stroke-dasharray: 7.0,7.0;"/><polygon fill="#A80036" points="388,190.24,378.2761,191.8039,383.8114,192.9705,382.6449,198.5057,388,190.24" style="stroke: #A80036; stroke-width: 1.0;"/><!--
@startuml abstract factory
abstract Factory{
  {abstract} createProductA():ProductA
  {abstract} createProductB():ProductB
}
class ConcreteFactory1{
  + createProductA():ProductA
  + createProductB():ProductB
}
class ConcreteFactory2{
  + createProductA():ProductA
  + createProductB():ProductB
}
abstract ProductA{
  {abstract} use()
}
class ConcreteProductA1{
  + use()
}
class ConcreteProductA2{
  + use()
}
abstract ProductB{
  {abstract} use()
}
class ConcreteProductB1{
  + use()
}
class ConcreteProductB2{
  + use()
}

Factory <|.up. ConcreteFactory1
Factory <|.up. ConcreteFactory2
ProductA <|.down. ConcreteProductA1
ProductA <|.down. ConcreteProductA2
ProductB <|.down. ConcreteProductB1
ProductB <|.down. ConcreteProductB2
ConcreteProductA1 <.. ConcreteFactory1
ConcreteProductA2 <.. ConcreteFactory2
ConcreteProductB1 <.. ConcreteFactory1
ConcreteProductB2 <.. ConcreteFactory2
@enduml

PlantUML version 1.2019.09(Tue Aug 27 00:19:51 CST 2019)
(GPL source distribution)
Java Runtime: Java(TM) SE Runtime Environment
JVM: Java HotSpot(TM) 64-Bit Server VM
Java Version: 1.8.0_152-b16
Operating System: Mac OS X
OS Version: 10.14.4
Default Encoding: UTF-8
Language: zh
Country: CN
--></g></svg>