<?xml version="1.0" encoding="UTF-8" standalone="no"?><svg xmlns="http://www.w3.org/2000/svg" xmlns:xlink="http://www.w3.org/1999/xlink" contentScriptType="application/ecmascript" contentStyleType="text/css" height="105px" preserveAspectRatio="none" style="width:166px;height:105px;" version="1.1" viewBox="0 0 166 105" width="166px" zoomAndPan="magnify"><defs><filter height="300%" id="f16dd7umenwwmf" width="300%" x="-1" y="-1"><feGaussianBlur result="blurOut" stdDeviation="2.0"/><feColorMatrix in="blurOut" result="blurOut2" type="matrix" values="0 0 0 0 0 0 0 0 0 0 0 0 0 0 0 0 0 0 .4 0"/><feOffset dx="4.0" dy="4.0" in="blurOut2" result="blurOut3"/><feBlend in="SourceGraphic" in2="blurOut3" mode="normal"/></filter></defs><g><!--class Singleton--><rect fill="#FEFECE" filter="url(#f16dd7umenwwmf)" height="86.8652" id="Singleton" style="stroke: #A80036; stroke-width: 1.5;" width="149" x="6" y="8"/><ellipse cx="50.75" cy="24" fill="#ADD1B2" rx="11" ry="11" style="stroke: #A80036; stroke-width: 1.0;"/><path d="M53.2231,30.1431 Q52.6421,30.4419 52.0029,30.5913 Q51.3638,30.7407 50.6582,30.7407 Q48.1514,30.7407 46.8315,29.0889 Q45.5117,27.437 45.5117,24.3159 Q45.5117,21.1865 46.8315,19.5347 Q48.1514,17.8828 50.6582,17.8828 Q51.3638,17.8828 52.0112,18.0322 Q52.6587,18.1816 53.2231,18.4805 L53.2231,21.2031 Q52.5923,20.6221 51.9988,20.3523 Q51.4053,20.0825 50.7744,20.0825 Q49.4297,20.0825 48.7449,21.1492 Q48.0601,22.2158 48.0601,24.3159 Q48.0601,26.4077 48.7449,27.4744 Q49.4297,28.541 50.7744,28.541 Q51.4053,28.541 51.9988,28.2712 Q52.5923,28.0015 53.2231,27.4204 Z "/><text fill="#000000" font-family="sans-serif" font-size="12" lengthAdjust="spacingAndGlyphs" textLength="51" x="71.25" y="28.5352">Singleton</text><line style="stroke: #A80036; stroke-width: 1.5;" x1="7" x2="154" y1="40" y2="40"/><rect fill="none" height="6" style="stroke: #C82930; stroke-width: 1.0;" width="6" x="14" y="48"/><text fill="#000000" font-family="sans-serif" font-size="11" lengthAdjust="spacingAndGlyphs" text-decoration="underline" textLength="45" x="26" y="54.6348">instance</text><line style="stroke: #A80036; stroke-width: 1.5;" x1="7" x2="154" y1="60.9551" y2="60.9551"/><polygon fill="#FFFF44" points="17,66.9551,21,70.9551,17,74.9551,13,70.9551" style="stroke: #B38D22; stroke-width: 1.0;"/><text fill="#000000" font-family="sans-serif" font-size="11" lengthAdjust="spacingAndGlyphs" textLength="72" x="26" y="75.5898">constructor()</text><ellipse cx="17" cy="84.9102" fill="#84BE84" rx="3" ry="3" style="stroke: #038048; stroke-width: 1.0;"/><text fill="#000000" font-family="sans-serif" font-size="11" lengthAdjust="spacingAndGlyphs" text-decoration="underline" textLength="123" x="26" y="88.5449">getInstance():Singleton</text><!--
@startuml singleton
class Singleton{
  - {static} instance
  # constructor()
  + {static} getInstance():Singleton
}
@enduml

PlantUML version 1.2019.09(Tue Aug 27 00:19:51 CST 2019)
(GPL source distribution)
Java Runtime: Java(TM) SE Runtime Environment
JVM: Java HotSpot(TM) 64-Bit Server VM
Java Version: 1.8.0_152-b16
Operating System: Mac OS X
OS Version: 10.14.4
Default Encoding: UTF-8
Language: zh
Country: CN
--></g></svg>