<?xml version="1.0" encoding="UTF-8" standalone="no"?><svg xmlns="http://www.w3.org/2000/svg" xmlns:xlink="http://www.w3.org/1999/xlink" contentScriptType="application/ecmascript" contentStyleType="text/css" height="360px" preserveAspectRatio="none" style="width:442px;height:360px;" version="1.1" viewBox="0 0 442 360" width="442px" zoomAndPan="magnify"><defs><filter height="300%" id="f11lugct7lfjeg" width="300%" x="-1" y="-1"><feGaussianBlur result="blurOut" stdDeviation="2.0"/><feColorMatrix in="blurOut" result="blurOut2" type="matrix" values="0 0 0 0 0 0 0 0 0 0 0 0 0 0 0 0 0 0 .4 0"/><feOffset dx="4.0" dy="4.0" in="blurOut2" result="blurOut3"/><feBlend in="SourceGraphic" in2="blurOut3" mode="normal"/></filter></defs><g><!--class Mediator--><rect fill="#FEFECE" filter="url(#f11lugct7lfjeg)" height="73.9102" id="Mediator" style="stroke: #A80036; stroke-width: 1.5;" width="178" x="242.5" y="14.5"/><ellipse cx="301.75" cy="30.5" fill="#A9DCDF" rx="11" ry="11" style="stroke: #A80036; stroke-width: 1.0;"/><path d="M301.8633,26.0981 L300.7095,31.1699 L303.0254,31.1699 Z M300.3691,23.8569 L303.3657,23.8569 L306.7109,36.25 L304.2622,36.25 L303.4985,33.187 L300.2197,33.187 L299.4727,36.25 L297.0239,36.25 Z "/><text fill="#000000" font-family="sans-serif" font-size="12" font-style="italic" lengthAdjust="spacingAndGlyphs" textLength="51" x="322.25" y="35.0352">Mediator</text><line style="stroke: #A80036; stroke-width: 1.5;" x1="243.5" x2="419.5" y1="46.5" y2="46.5"/><line style="stroke: #A80036; stroke-width: 1.5;" x1="243.5" x2="419.5" y1="54.5" y2="54.5"/><text fill="#000000" font-family="sans-serif" font-size="11" font-style="italic" lengthAdjust="spacingAndGlyphs" textLength="166" x="248.5" y="69.1348">operation(colleagueId:number)</text><text fill="#000000" font-family="sans-serif" font-size="11" font-style="italic" lengthAdjust="spacingAndGlyphs" textLength="160" x="248.5" y="82.0898">register(colleague: Colleague)</text><!--class ConcreteMediator--><rect fill="#FEFECE" filter="url(#f11lugct7lfjeg)" height="60.9551" id="ConcreteMediator" style="stroke: #A80036; stroke-width: 1.5;" width="181" x="241" y="155"/><ellipse cx="277.15" cy="171" fill="#ADD1B2" rx="11" ry="11" style="stroke: #A80036; stroke-width: 1.0;"/><path d="M279.6231,177.1431 Q279.0421,177.4419 278.4029,177.5913 Q277.7638,177.7407 277.0582,177.7407 Q274.5514,177.7407 273.2315,176.0889 Q271.9117,174.437 271.9117,171.3159 Q271.9117,168.1865 273.2315,166.5347 Q274.5514,164.8828 277.0582,164.8828 Q277.7638,164.8828 278.4112,165.0322 Q279.0587,165.1816 279.6231,165.4805 L279.6231,168.2031 Q278.9923,167.6221 278.3988,167.3523 Q277.8053,167.0825 277.1744,167.0825 Q275.8297,167.0825 275.1449,168.1492 Q274.4601,169.2158 274.4601,171.3159 Q274.4601,173.4077 275.1449,174.4744 Q275.8297,175.541 277.1744,175.541 Q277.8053,175.541 278.3988,175.2712 Q278.9923,175.0015 279.6231,174.4204 Z "/><text fill="#000000" font-family="sans-serif" font-size="12" lengthAdjust="spacingAndGlyphs" textLength="102" x="295.85" y="175.5352">ConcreteMediator</text><line style="stroke: #A80036; stroke-width: 1.5;" x1="242" x2="421" y1="187" y2="187"/><line style="stroke: #A80036; stroke-width: 1.5;" x1="242" x2="421" y1="195" y2="195"/><text fill="#000000" font-family="sans-serif" font-size="11" lengthAdjust="spacingAndGlyphs" textLength="169" x="247" y="209.6348">operation(colleagueId: number)</text><!--class Colleague--><rect fill="#FEFECE" filter="url(#f11lugct7lfjeg)" height="86.8652" id="Colleague" style="stroke: #A80036; stroke-width: 1.5;" width="195" x="12" y="8"/><ellipse cx="77.25" cy="24" fill="#A9DCDF" rx="11" ry="11" style="stroke: #A80036; stroke-width: 1.0;"/><path d="M77.3633,19.5981 L76.2095,24.6699 L78.5254,24.6699 Z M75.8691,17.3569 L78.8657,17.3569 L82.2109,29.75 L79.7622,29.75 L78.9985,26.687 L75.7197,26.687 L74.9727,29.75 L72.5239,29.75 Z "/><text fill="#000000" font-family="sans-serif" font-size="12" font-style="italic" lengthAdjust="spacingAndGlyphs" textLength="56" x="97.75" y="28.5352">Colleague</text><line style="stroke: #A80036; stroke-width: 1.5;" x1="13" x2="206" y1="40" y2="40"/><line style="stroke: #A80036; stroke-width: 1.5;" x1="13" x2="206" y1="48" y2="48"/><ellipse cx="23" cy="59" fill="#84BE84" rx="3" ry="3" style="stroke: #038048; stroke-width: 1.0;"/><text fill="#000000" font-family="sans-serif" font-size="11" lengthAdjust="spacingAndGlyphs" textLength="68" x="32" y="62.6348">receiveMsg()</text><text fill="#000000" font-family="sans-serif" font-size="11" font-style="italic" lengthAdjust="spacingAndGlyphs" textLength="165" x="32" y="75.5898">sendMsg(colleagueId: number)</text><text fill="#000000" font-family="sans-serif" font-size="11" font-style="italic" lengthAdjust="spacingAndGlyphs" textLength="169" x="32" y="88.5449">setMediator(mediator:Mediator)</text><!--class ConcreteColleagueA--><rect fill="#FEFECE" filter="url(#f11lugct7lfjeg)" height="73.9102" id="ConcreteColleagueA" style="stroke: #A80036; stroke-width: 1.5;" width="195" x="6" y="276"/><ellipse cx="42.6" cy="292" fill="#ADD1B2" rx="11" ry="11" style="stroke: #A80036; stroke-width: 1.0;"/><path d="M45.0731,298.1431 Q44.4921,298.4419 43.8529,298.5913 Q43.2138,298.7407 42.5082,298.7407 Q40.0014,298.7407 38.6815,297.0889 Q37.3617,295.437 37.3617,292.3159 Q37.3617,289.1865 38.6815,287.5347 Q40.0014,285.8828 42.5082,285.8828 Q43.2138,285.8828 43.8612,286.0322 Q44.5087,286.1816 45.0731,286.4805 L45.0731,289.2031 Q44.4423,288.6221 43.8488,288.3523 Q43.2553,288.0825 42.6244,288.0825 Q41.2797,288.0825 40.5949,289.1492 Q39.9101,290.2158 39.9101,292.3159 Q39.9101,294.4077 40.5949,295.4744 Q41.2797,296.541 42.6244,296.541 Q43.2553,296.541 43.8488,296.2712 Q44.4423,296.0015 45.0731,295.4204 Z "/><text fill="#000000" font-family="sans-serif" font-size="12" lengthAdjust="spacingAndGlyphs" textLength="115" x="61.4" y="296.5352">ConcreteColleagueA</text><line style="stroke: #A80036; stroke-width: 1.5;" x1="7" x2="200" y1="308" y2="308"/><line style="stroke: #A80036; stroke-width: 1.5;" x1="7" x2="200" y1="316" y2="316"/><ellipse cx="17" cy="327" fill="#84BE84" rx="3" ry="3" style="stroke: #038048; stroke-width: 1.0;"/><text fill="#000000" font-family="sans-serif" font-size="11" lengthAdjust="spacingAndGlyphs" textLength="165" x="26" y="330.6348">sendMsg(colleagueId: number)</text><ellipse cx="17" cy="339.9551" fill="#84BE84" rx="3" ry="3" style="stroke: #038048; stroke-width: 1.0;"/><text fill="#000000" font-family="sans-serif" font-size="11" lengthAdjust="spacingAndGlyphs" textLength="169" x="26" y="343.5898">setMediator(mediator:Mediator)</text><!--class ConcreteColleagueB--><rect fill="#FEFECE" filter="url(#f11lugct7lfjeg)" height="73.9102" id="ConcreteColleagueB" style="stroke: #A80036; stroke-width: 1.5;" width="195" x="236" y="276"/><ellipse cx="273.05" cy="292" fill="#ADD1B2" rx="11" ry="11" style="stroke: #A80036; stroke-width: 1.0;"/><path d="M275.5231,298.1431 Q274.9421,298.4419 274.3029,298.5913 Q273.6638,298.7407 272.9582,298.7407 Q270.4514,298.7407 269.1315,297.0889 Q267.8117,295.437 267.8117,292.3159 Q267.8117,289.1865 269.1315,287.5347 Q270.4514,285.8828 272.9582,285.8828 Q273.6638,285.8828 274.3112,286.0322 Q274.9587,286.1816 275.5231,286.4805 L275.5231,289.2031 Q274.8923,288.6221 274.2988,288.3523 Q273.7053,288.0825 273.0744,288.0825 Q271.7297,288.0825 271.0449,289.1492 Q270.3601,290.2158 270.3601,292.3159 Q270.3601,294.4077 271.0449,295.4744 Q271.7297,296.541 273.0744,296.541 Q273.7053,296.541 274.2988,296.2712 Q274.8923,296.0015 275.5231,295.4204 Z "/><text fill="#000000" font-family="sans-serif" font-size="12" lengthAdjust="spacingAndGlyphs" textLength="114" x="291.95" y="296.5352">ConcreteColleagueB</text><line style="stroke: #A80036; stroke-width: 1.5;" x1="237" x2="430" y1="308" y2="308"/><line style="stroke: #A80036; stroke-width: 1.5;" x1="237" x2="430" y1="316" y2="316"/><ellipse cx="247" cy="327" fill="#84BE84" rx="3" ry="3" style="stroke: #038048; stroke-width: 1.0;"/><text fill="#000000" font-family="sans-serif" font-size="11" lengthAdjust="spacingAndGlyphs" textLength="165" x="256" y="330.6348">sendMsg(colleagueId: number)</text><ellipse cx="247" cy="339.9551" fill="#84BE84" rx="3" ry="3" style="stroke: #038048; stroke-width: 1.0;"/><text fill="#000000" font-family="sans-serif" font-size="11" lengthAdjust="spacingAndGlyphs" textLength="169" x="256" y="343.5898">setMediator(mediator:Mediator)</text><!--reverse link Mediator to ConcreteMediator--><path d="M331.5,108.63 C331.5,124.47 331.5,141.08 331.5,154.71 " fill="none" id="Mediator&lt;-ConcreteMediator" style="stroke: #A80036; stroke-width: 1.0;"/><polygon fill="none" points="324.5,108.57,331.5,88.57,338.5,108.57,324.5,108.57" style="stroke: #A80036; stroke-width: 1.0;"/><!--reverse link Colleague to ConcreteColleagueA--><path d="M108.05,115.33 C106.89,165.56 105.3,234.21 104.34,275.7 " fill="none" id="Colleague&lt;-ConcreteColleagueA" style="stroke: #A80036; stroke-width: 1.0;"/><polygon fill="none" points="101.06,114.89,108.52,95.06,115.05,115.22,101.06,114.89" style="stroke: #A80036; stroke-width: 1.0;"/><!--reverse link Colleague to ConcreteColleagueB--><path d="M146.09,112.25 C167.01,144.41 194.75,183.94 223.5,216 C242.71,237.42 266.51,258.71 287.05,275.79 " fill="none" id="Colleague&lt;-ConcreteColleagueB" style="stroke: #A80036; stroke-width: 1.0;"/><polygon fill="none" points="140.09,115.86,135.21,95.24,151.88,108.31,140.09,115.86" style="stroke: #A80036; stroke-width: 1.0;"/><!--link Colleague to Mediator--><path d="M207.06,51.5 C216.99,51.5 226.93,51.5 236.86,51.5 " fill="none" id="Colleague-&gt;Mediator" style="stroke: #A80036; stroke-width: 1.0;"/><polygon fill="#A80036" points="242.06,51.5,233.06,47.5,237.06,51.5,233.06,55.5,242.06,51.5" style="stroke: #A80036; stroke-width: 1.0;"/><!--link ConcreteMediator to ConcreteColleagueA--><path d="M277.76,216.08 C246.63,233.21 207.11,254.97 173.57,273.43 " fill="none" id="ConcreteMediator-&gt;ConcreteColleagueA" style="stroke: #A80036; stroke-width: 1.0;"/><polygon fill="#A80036" points="169.09,275.9,178.9033,275.0639,173.4702,273.4888,175.0453,268.0556,169.09,275.9" style="stroke: #A80036; stroke-width: 1.0;"/><!--link ConcreteMediator to ConcreteColleagueB--><path d="M331.97,216.24 C332.23,232.4 332.55,252.64 332.84,270.35 " fill="none" id="ConcreteMediator-&gt;ConcreteColleagueB" style="stroke: #A80036; stroke-width: 1.0;"/><polygon fill="#A80036" points="332.92,275.76,336.791,266.7038,332.8486,270.7605,328.7918,266.8181,332.92,275.76" style="stroke: #A80036; stroke-width: 1.0;"/><!--
@startuml mediator
abstract Mediator{
  {abstract} operation(colleagueId:number)
  {abstract} register(colleague: Colleague)
}
class ConcreteMediator{
  operation(colleagueId: number)
}
abstract Colleague{
  + receiveMsg()
  {abstract} sendMsg(colleagueId: number)
  {abstract} setMediator(mediator:Mediator)
}
class ConcreteColleagueA{
  + sendMsg(colleagueId: number)
  + setMediator(mediator:Mediator)
}
class ConcreteColleagueB{
  + sendMsg(colleagueId: number)
  + setMediator(mediator:Mediator)
}

ConcreteMediator -up-|> Mediator
ConcreteColleagueA -up-|> Colleague
ConcreteColleagueB -up-|> Colleague
Colleague -right-> Mediator
ConcreteMediator - -> ConcreteColleagueA
ConcreteMediator - -> ConcreteColleagueB
@enduml

PlantUML version 1.2019.09(Tue Aug 27 00:19:51 CST 2019)
(GPL source distribution)
Java Runtime: Java(TM) SE Runtime Environment
JVM: Java HotSpot(TM) 64-Bit Server VM
Java Version: 1.8.0_152-b16
Operating System: Mac OS X
OS Version: 10.14.4
Default Encoding: UTF-8
Language: zh
Country: CN
--></g></svg>