<?xml version="1.0" encoding="UTF-8" standalone="no"?><svg xmlns="http://www.w3.org/2000/svg" xmlns:xlink="http://www.w3.org/1999/xlink" contentScriptType="application/ecmascript" contentStyleType="text/css" height="213px" preserveAspectRatio="none" style="width:409px;height:213px;" version="1.1" viewBox="0 0 409 213" width="409px" zoomAndPan="magnify"><defs><filter height="300%" id="f1dl42vlkzjz1v" width="300%" x="-1" y="-1"><feGaussianBlur result="blurOut" stdDeviation="2.0"/><feColorMatrix in="blurOut" result="blurOut2" type="matrix" values="0 0 0 0 0 0 0 0 0 0 0 0 0 0 0 0 0 0 .4 0"/><feOffset dx="4.0" dy="4.0" in="blurOut2" result="blurOut3"/><feBlend in="SourceGraphic" in2="blurOut3" mode="normal"/></filter></defs><g><!--class Context--><rect fill="#FEFECE" filter="url(#f1dl42vlkzjz1v)" height="73.9102" id="Context" style="stroke: #A80036; stroke-width: 1.5;" width="180" x="6" y="8"/><ellipse cx="69.75" cy="24" fill="#ADD1B2" rx="11" ry="11" style="stroke: #A80036; stroke-width: 1.0;"/><path d="M72.2231,30.1431 Q71.6421,30.4419 71.0029,30.5913 Q70.3638,30.7407 69.6582,30.7407 Q67.1514,30.7407 65.8315,29.0889 Q64.5117,27.437 64.5117,24.3159 Q64.5117,21.1865 65.8315,19.5347 Q67.1514,17.8828 69.6582,17.8828 Q70.3638,17.8828 71.0112,18.0322 Q71.6587,18.1816 72.2231,18.4805 L72.2231,21.2031 Q71.5923,20.6221 70.9988,20.3523 Q70.4053,20.0825 69.7744,20.0825 Q68.4297,20.0825 67.7449,21.1492 Q67.0601,22.2158 67.0601,24.3159 Q67.0601,26.4077 67.7449,27.4744 Q68.4297,28.541 69.7744,28.541 Q70.4053,28.541 70.9988,28.2712 Q71.5923,28.0015 72.2231,27.4204 Z "/><text fill="#000000" font-family="sans-serif" font-size="12" lengthAdjust="spacingAndGlyphs" textLength="44" x="90.25" y="28.5352">Context</text><line style="stroke: #A80036; stroke-width: 1.5;" x1="7" x2="185" y1="40" y2="40"/><line style="stroke: #A80036; stroke-width: 1.5;" x1="7" x2="185" y1="48" y2="48"/><ellipse cx="17" cy="59" fill="#84BE84" rx="3" ry="3" style="stroke: #038048; stroke-width: 1.0;"/><text fill="#000000" font-family="sans-serif" font-size="11" lengthAdjust="spacingAndGlyphs" textLength="154" x="26" y="62.6348">changeState(state:State):void</text><ellipse cx="17" cy="71.9551" fill="#84BE84" rx="3" ry="3" style="stroke: #038048; stroke-width: 1.0;"/><text fill="#000000" font-family="sans-serif" font-size="11" lengthAdjust="spacingAndGlyphs" textLength="75" x="26" y="75.5898">request():void</text><!--class State--><rect fill="#FEFECE" filter="url(#f1dl42vlkzjz1v)" height="60.9551" id="State" style="stroke: #A80036; stroke-width: 1.5;" width="82" x="221" y="14.5"/><ellipse cx="245.9" cy="30.5" fill="#B4A7E5" rx="11" ry="11" style="stroke: #A80036; stroke-width: 1.0;"/><path d="M242.3277,26.7651 L242.3277,24.6069 L249.7071,24.6069 L249.7071,26.7651 L247.2418,26.7651 L247.2418,34.8418 L249.7071,34.8418 L249.7071,37 L242.3277,37 L242.3277,34.8418 L244.7931,34.8418 L244.7931,26.7651 Z "/><text fill="#000000" font-family="sans-serif" font-size="12" font-style="italic" lengthAdjust="spacingAndGlyphs" textLength="28" x="262.1" y="35.0352">State</text><line style="stroke: #A80036; stroke-width: 1.5;" x1="222" x2="302" y1="46.5" y2="46.5"/><line style="stroke: #A80036; stroke-width: 1.5;" x1="222" x2="302" y1="54.5" y2="54.5"/><text fill="#000000" font-family="sans-serif" font-size="11" lengthAdjust="spacingAndGlyphs" textLength="70" x="227" y="69.1348">handle():void</text><!--class ConcreteStateA--><rect fill="#FEFECE" filter="url(#f1dl42vlkzjz1v)" height="60.9551" id="ConcreteStateA" style="stroke: #A80036; stroke-width: 1.5;" width="119" x="125.5" y="142"/><ellipse cx="140.5" cy="158" fill="#ADD1B2" rx="11" ry="11" style="stroke: #A80036; stroke-width: 1.0;"/><path d="M142.9731,164.1431 Q142.3921,164.4419 141.7529,164.5913 Q141.1138,164.7407 140.4082,164.7407 Q137.9014,164.7407 136.5815,163.0889 Q135.2617,161.437 135.2617,158.3159 Q135.2617,155.1865 136.5815,153.5347 Q137.9014,151.8828 140.4082,151.8828 Q141.1138,151.8828 141.7612,152.0322 Q142.4087,152.1816 142.9731,152.4805 L142.9731,155.2031 Q142.3423,154.6221 141.7488,154.3523 Q141.1553,154.0825 140.5244,154.0825 Q139.1797,154.0825 138.4949,155.1492 Q137.8101,156.2158 137.8101,158.3159 Q137.8101,160.4077 138.4949,161.4744 Q139.1797,162.541 140.5244,162.541 Q141.1553,162.541 141.7488,162.2712 Q142.3423,162.0015 142.9731,161.4204 Z "/><text fill="#000000" font-family="sans-serif" font-size="12" lengthAdjust="spacingAndGlyphs" textLength="87" x="154.5" y="162.5352">ConcreteStateA</text><line style="stroke: #A80036; stroke-width: 1.5;" x1="126.5" x2="243.5" y1="174" y2="174"/><line style="stroke: #A80036; stroke-width: 1.5;" x1="126.5" x2="243.5" y1="182" y2="182"/><ellipse cx="136.5" cy="193" fill="#84BE84" rx="3" ry="3" style="stroke: #038048; stroke-width: 1.0;"/><text fill="#000000" font-family="sans-serif" font-size="11" lengthAdjust="spacingAndGlyphs" textLength="70" x="145.5" y="196.6348">handle():void</text><!--class ConcreteStateB--><rect fill="#FEFECE" filter="url(#f1dl42vlkzjz1v)" height="60.9551" id="ConcreteStateB" style="stroke: #A80036; stroke-width: 1.5;" width="118" x="280" y="142"/><ellipse cx="295" cy="158" fill="#ADD1B2" rx="11" ry="11" style="stroke: #A80036; stroke-width: 1.0;"/><path d="M297.4731,164.1431 Q296.8921,164.4419 296.2529,164.5913 Q295.6138,164.7407 294.9082,164.7407 Q292.4014,164.7407 291.0815,163.0889 Q289.7617,161.437 289.7617,158.3159 Q289.7617,155.1865 291.0815,153.5347 Q292.4014,151.8828 294.9082,151.8828 Q295.6138,151.8828 296.2612,152.0322 Q296.9087,152.1816 297.4731,152.4805 L297.4731,155.2031 Q296.8423,154.6221 296.2488,154.3523 Q295.6553,154.0825 295.0244,154.0825 Q293.6797,154.0825 292.9949,155.1492 Q292.3101,156.2158 292.3101,158.3159 Q292.3101,160.4077 292.9949,161.4744 Q293.6797,162.541 295.0244,162.541 Q295.6553,162.541 296.2488,162.2712 Q296.8423,162.0015 297.4731,161.4204 Z "/><text fill="#000000" font-family="sans-serif" font-size="12" lengthAdjust="spacingAndGlyphs" textLength="86" x="309" y="162.5352">ConcreteStateB</text><line style="stroke: #A80036; stroke-width: 1.5;" x1="281" x2="397" y1="174" y2="174"/><line style="stroke: #A80036; stroke-width: 1.5;" x1="281" x2="397" y1="182" y2="182"/><ellipse cx="291" cy="193" fill="#84BE84" rx="3" ry="3" style="stroke: #038048; stroke-width: 1.0;"/><text fill="#000000" font-family="sans-serif" font-size="11" lengthAdjust="spacingAndGlyphs" textLength="70" x="300" y="196.6348">handle():void</text><!--reverse link Context to State--><path d="M199.14,45 C206.36,45 213.58,45 220.81,45 " fill="none" id="Context&lt;-State" style="stroke: #A80036; stroke-width: 1.0;"/><polygon fill="#FFFFFF" points="186.13,45,192.13,49,198.13,45,192.13,41,186.13,45" style="stroke: #A80036; stroke-width: 1.0;"/><!--reverse link State to ConcreteStateA--><path d="M233.14,93.04 C223.07,109.45 212.06,127.39 203.12,141.97 " fill="none" id="State&lt;-ConcreteStateA" style="stroke: #A80036; stroke-width: 1.0; stroke-dasharray: 7.0,7.0;"/><polygon fill="none" points="227.33,89.13,243.75,75.74,239.26,96.45,227.33,89.13" style="stroke: #A80036; stroke-width: 1.0;"/><!--reverse link State to ConcreteStateB--><path d="M290.86,93.04 C300.93,109.45 311.94,127.39 320.88,141.97 " fill="none" id="State&lt;-ConcreteStateB" style="stroke: #A80036; stroke-width: 1.0; stroke-dasharray: 7.0,7.0;"/><polygon fill="none" points="284.74,96.45,280.25,75.74,296.67,89.13,284.74,96.45" style="stroke: #A80036; stroke-width: 1.0;"/><!--
@startuml state
class Context{
  + changeState(state:State):void
  + request():void
}
interface State{
  handle():void
}
class ConcreteStateA{
  +handle():void
}
class ConcreteStateB{
  +handle():void
}

Context o-right- State
ConcreteStateA .up.|> State
ConcreteStateB .up.|> State
@enduml

PlantUML version 1.2019.09(Tue Aug 27 00:19:51 CST 2019)
(GPL source distribution)
Java Runtime: Java(TM) SE Runtime Environment
JVM: Java HotSpot(TM) 64-Bit Server VM
Java Version: 1.8.0_152-b16
Operating System: Mac OS X
OS Version: 10.14.4
Default Encoding: UTF-8
Language: zh
Country: CN
--></g></svg>