<?xml version="1.0" encoding="UTF-8" standalone="no"?><svg xmlns="http://www.w3.org/2000/svg" xmlns:xlink="http://www.w3.org/1999/xlink" contentScriptType="application/ecmascript" contentStyleType="text/css" height="324px" preserveAspectRatio="none" style="width:328px;height:324px;" version="1.1" viewBox="0 0 328 324" width="328px" zoomAndPan="magnify"><defs><filter height="300%" id="fqlvn1cspbsmg" width="300%" x="-1" y="-1"><feGaussianBlur result="blurOut" stdDeviation="2.0"/><feColorMatrix in="blurOut" result="blurOut2" type="matrix" values="0 0 0 0 0 0 0 0 0 0 0 0 0 0 0 0 0 0 .4 0"/><feOffset dx="4.0" dy="4.0" in="blurOut2" result="blurOut3"/><feBlend in="SourceGraphic" in2="blurOut3" mode="normal"/></filter></defs><g><rect fill="#FFFFFF" filter="url(#fqlvn1cspbsmg)" height="110.6211" style="stroke: #A80036; stroke-width: 1.0;" width="10" x="22.5" y="117.7988"/><rect fill="#FFFFFF" filter="url(#fqlvn1cspbsmg)" height="101.6211" style="stroke: #A80036; stroke-width: 1.0;" width="10" x="203.5" y="117.7988"/><rect fill="#FFFFFF" filter="url(#fqlvn1cspbsmg)" height="28" style="stroke: #A80036; stroke-width: 1.0;" width="10" x="208.5" y="155.1094"/><line style="stroke: #A80036; stroke-width: 1.0; stroke-dasharray: 5.0,5.0;" x1="27" x2="27" y1="86.4883" y2="237.4199"/><line style="stroke: #A80036; stroke-width: 1.0; stroke-dasharray: 5.0,5.0;" x1="208" x2="208" y1="86.4883" y2="237.4199"/><text fill="#000000" font-family="sans-serif" font-size="14" lengthAdjust="spacingAndGlyphs" textLength="33" x="8" y="83.5352">Main</text><ellipse cx="27.5" cy="13" fill="#FEFECE" filter="url(#fqlvn1cspbsmg)" rx="8" ry="8" style="stroke: #A80036; stroke-width: 2.0;"/><path d="M27.5,21 L27.5,48 M14.5,29 L40.5,29 M27.5,48 L14.5,63 M27.5,48 L40.5,63 " fill="none" filter="url(#fqlvn1cspbsmg)" style="stroke: #A80036; stroke-width: 2.0;"/><text fill="#000000" font-family="sans-serif" font-size="14" lengthAdjust="spacingAndGlyphs" textLength="33" x="8" y="249.9551">Main</text><ellipse cx="27.5" cy="262.9082" fill="#FEFECE" filter="url(#fqlvn1cspbsmg)" rx="8" ry="8" style="stroke: #A80036; stroke-width: 2.0;"/><path d="M27.5,270.9082 L27.5,297.9082 M14.5,278.9082 L40.5,278.9082 M27.5,297.9082 L14.5,312.9082 M27.5,297.9082 L40.5,312.9082 " fill="none" filter="url(#fqlvn1cspbsmg)" style="stroke: #A80036; stroke-width: 2.0;"/><rect fill="#FEFECE" filter="url(#fqlvn1cspbsmg)" height="30.4883" style="stroke: #A80036; stroke-width: 1.5;" width="83" x="165" y="51"/><text fill="#000000" font-family="sans-serif" font-size="14" lengthAdjust="spacingAndGlyphs" textLength="69" x="172" y="71.5352">:Singleton</text><rect fill="#FEFECE" filter="url(#fqlvn1cspbsmg)" height="30.4883" style="stroke: #A80036; stroke-width: 1.5;" width="83" x="165" y="236.4199"/><text fill="#000000" font-family="sans-serif" font-size="14" lengthAdjust="spacingAndGlyphs" textLength="69" x="172" y="256.9551">:Singleton</text><rect fill="#FFFFFF" filter="url(#fqlvn1cspbsmg)" height="110.6211" style="stroke: #A80036; stroke-width: 1.0;" width="10" x="22.5" y="117.7988"/><rect fill="#FFFFFF" filter="url(#fqlvn1cspbsmg)" height="101.6211" style="stroke: #A80036; stroke-width: 1.0;" width="10" x="203.5" y="117.7988"/><rect fill="#FFFFFF" filter="url(#fqlvn1cspbsmg)" height="28" style="stroke: #A80036; stroke-width: 1.0;" width="10" x="208.5" y="155.1094"/><polygon fill="#A80036" points="191.5,113.7988,201.5,117.7988,191.5,121.7988,195.5,117.7988" style="stroke: #A80036; stroke-width: 1.0;"/><line style="stroke: #A80036; stroke-width: 1.0;" x1="32.5" x2="197.5" y1="117.7988" y2="117.7988"/><text fill="#000000" font-family="sans-serif" font-size="13" font-weight="bold" lengthAdjust="spacingAndGlyphs" textLength="9" x="39.5" y="113.0566">1</text><text fill="#000000" font-family="sans-serif" font-size="13" lengthAdjust="spacingAndGlyphs" textLength="144" x="52.5" y="113.0566">getInstance():Singleton</text><line style="stroke: #A80036; stroke-width: 1.0;" x1="218.5" x2="260.5" y1="147.1094" y2="147.1094"/><line style="stroke: #A80036; stroke-width: 1.0;" x1="260.5" x2="260.5" y1="147.1094" y2="160.1094"/><line style="stroke: #A80036; stroke-width: 1.0;" x1="219.5" x2="260.5" y1="160.1094" y2="160.1094"/><polygon fill="#A80036" points="229.5,156.1094,219.5,160.1094,229.5,164.1094,225.5,160.1094" style="stroke: #A80036; stroke-width: 1.0;"/><text fill="#000000" font-family="sans-serif" font-size="13" font-weight="bold" lengthAdjust="spacingAndGlyphs" textLength="9" x="225.5" y="142.3672">2</text><text fill="#000000" font-family="sans-serif" font-size="13" lengthAdjust="spacingAndGlyphs" textLength="78" x="238.5" y="142.3672">&lt;&lt;create&gt;&gt;</text><polygon fill="#A80036" points="43.5,215.4199,33.5,219.4199,43.5,223.4199,39.5,219.4199" style="stroke: #A80036; stroke-width: 1.0;"/><line style="stroke: #A80036; stroke-width: 1.0; stroke-dasharray: 2.0,2.0;" x1="37.5" x2="207.5" y1="219.4199" y2="219.4199"/><text fill="#000000" font-family="sans-serif" font-size="13" font-weight="bold" lengthAdjust="spacingAndGlyphs" textLength="9" x="49.5" y="214.6777">3</text><text fill="#000000" font-family="sans-serif" font-size="13" lengthAdjust="spacingAndGlyphs" textLength="116" x="62.5" y="214.6777">Singleton instance</text><!--
@startuml singleton
autonumber

actor Main
participant ":Singleton" as singleton

Main -> singleton : getInstance():Singleton
activate Main
activate singleton
singleton -> singleton : <<create>>
activate singleton
deactivate singleton
singleton - -> Main : Singleton instance
deactivate singleton
@enduml

PlantUML version 1.2019.09(Tue Aug 27 00:19:51 CST 2019)
(GPL source distribution)
Java Runtime: Java(TM) SE Runtime Environment
JVM: Java HotSpot(TM) 64-Bit Server VM
Java Version: 1.8.0_152-b16
Operating System: Mac OS X
OS Version: 10.14.4
Default Encoding: UTF-8
Language: zh
Country: CN
--></g></svg>