<?xml version="1.0" encoding="UTF-8" standalone="no"?><svg xmlns="http://www.w3.org/2000/svg" xmlns:xlink="http://www.w3.org/1999/xlink" contentScriptType="application/ecmascript" contentStyleType="text/css" height="226px" preserveAspectRatio="none" style="width:362px;height:226px;" version="1.1" viewBox="0 0 362 226" width="362px" zoomAndPan="magnify"><defs><filter height="300%" id="f1vedconx5jrx4" width="300%" x="-1" y="-1"><feGaussianBlur result="blurOut" stdDeviation="2.0"/><feColorMatrix in="blurOut" result="blurOut2" type="matrix" values="0 0 0 0 0 0 0 0 0 0 0 0 0 0 0 0 0 0 .4 0"/><feOffset dx="4.0" dy="4.0" in="blurOut2" result="blurOut3"/><feBlend in="SourceGraphic" in2="blurOut3" mode="normal"/></filter></defs><g><!--class Client--><rect fill="#FEFECE" filter="url(#f1vedconx5jrx4)" height="48" id="Client" style="stroke: #A80036; stroke-width: 1.5;" width="64" x="6" y="148.5"/><ellipse cx="21" cy="164.5" fill="#ADD1B2" rx="11" ry="11" style="stroke: #A80036; stroke-width: 1.0;"/><path d="M23.4731,170.6431 Q22.8921,170.9419 22.2529,171.0913 Q21.6138,171.2407 20.9082,171.2407 Q18.4014,171.2407 17.0815,169.5889 Q15.7617,167.937 15.7617,164.8159 Q15.7617,161.6865 17.0815,160.0347 Q18.4014,158.3828 20.9082,158.3828 Q21.6138,158.3828 22.2612,158.5322 Q22.9087,158.6816 23.4731,158.9805 L23.4731,161.7031 Q22.8423,161.1221 22.2488,160.8523 Q21.6553,160.5825 21.0244,160.5825 Q19.6797,160.5825 18.9949,161.6492 Q18.3101,162.7158 18.3101,164.8159 Q18.3101,166.9077 18.9949,167.9744 Q19.6797,169.041 21.0244,169.041 Q21.6553,169.041 22.2488,168.7712 Q22.8423,168.5015 23.4731,167.9204 Z "/><text fill="#000000" font-family="sans-serif" font-size="12" lengthAdjust="spacingAndGlyphs" textLength="32" x="35" y="169.0352">Client</text><line style="stroke: #A80036; stroke-width: 1.5;" x1="7" x2="69" y1="180.5" y2="180.5"/><line style="stroke: #A80036; stroke-width: 1.5;" x1="7" x2="69" y1="188.5" y2="188.5"/><!--class Subject--><rect fill="#FEFECE" filter="url(#f1vedconx5jrx4)" height="60.9551" id="Subject" style="stroke: #A80036; stroke-width: 1.5;" width="74" x="194" y="8"/><ellipse cx="209" cy="24" fill="#A9DCDF" rx="11" ry="11" style="stroke: #A80036; stroke-width: 1.0;"/><path d="M209.1133,19.5981 L207.9595,24.6699 L210.2754,24.6699 Z M207.6191,17.3569 L210.6157,17.3569 L213.9609,29.75 L211.5122,29.75 L210.7485,26.687 L207.4697,26.687 L206.7227,29.75 L204.2739,29.75 Z "/><text fill="#000000" font-family="sans-serif" font-size="12" font-style="italic" lengthAdjust="spacingAndGlyphs" textLength="42" x="223" y="28.5352">Subject</text><line style="stroke: #A80036; stroke-width: 1.5;" x1="195" x2="267" y1="40" y2="40"/><line style="stroke: #A80036; stroke-width: 1.5;" x1="195" x2="267" y1="48" y2="48"/><text fill="#000000" font-family="sans-serif" font-size="11" font-style="italic" lengthAdjust="spacingAndGlyphs" textLength="49" x="200" y="62.6348">request()</text><!--class Proxy--><rect fill="#FEFECE" filter="url(#f1vedconx5jrx4)" height="86.8652" id="Proxy" style="stroke: #A80036; stroke-width: 1.5;" width="112" x="105" y="129"/><ellipse cx="141.6" cy="145" fill="#ADD1B2" rx="11" ry="11" style="stroke: #A80036; stroke-width: 1.0;"/><path d="M144.0731,151.1431 Q143.4921,151.4419 142.8529,151.5913 Q142.2138,151.7407 141.5082,151.7407 Q139.0014,151.7407 137.6815,150.0889 Q136.3617,148.437 136.3617,145.3159 Q136.3617,142.1865 137.6815,140.5347 Q139.0014,138.8828 141.5082,138.8828 Q142.2138,138.8828 142.8612,139.0322 Q143.5087,139.1816 144.0731,139.4805 L144.0731,142.2031 Q143.4423,141.6221 142.8488,141.3523 Q142.2553,141.0825 141.6244,141.0825 Q140.2797,141.0825 139.5949,142.1492 Q138.9101,143.2158 138.9101,145.3159 Q138.9101,147.4077 139.5949,148.4744 Q140.2797,149.541 141.6244,149.541 Q142.2553,149.541 142.8488,149.2712 Q143.4423,149.0015 144.0731,148.4204 Z "/><text fill="#000000" font-family="sans-serif" font-size="12" lengthAdjust="spacingAndGlyphs" textLength="32" x="160.4" y="149.5352">Proxy</text><line style="stroke: #A80036; stroke-width: 1.5;" x1="106" x2="216" y1="161" y2="161"/><line style="stroke: #A80036; stroke-width: 1.5;" x1="106" x2="216" y1="169" y2="169"/><ellipse cx="116" cy="180" fill="#84BE84" rx="3" ry="3" style="stroke: #038048; stroke-width: 1.0;"/><text fill="#000000" font-family="sans-serif" font-size="11" lengthAdjust="spacingAndGlyphs" textLength="86" x="125" y="183.6348">beforeRequest()</text><ellipse cx="116" cy="192.9551" fill="#84BE84" rx="3" ry="3" style="stroke: #038048; stroke-width: 1.0;"/><text fill="#000000" font-family="sans-serif" font-size="11" lengthAdjust="spacingAndGlyphs" textLength="49" x="125" y="196.5898">request()</text><ellipse cx="116" cy="205.9102" fill="#84BE84" rx="3" ry="3" style="stroke: #038048; stroke-width: 1.0;"/><text fill="#000000" font-family="sans-serif" font-size="11" lengthAdjust="spacingAndGlyphs" textLength="76" x="125" y="209.5449">afterRequest()</text><!--class RealSubject--><rect fill="#FEFECE" filter="url(#f1vedconx5jrx4)" height="60.9551" id="RealSubject" style="stroke: #A80036; stroke-width: 1.5;" width="99" x="252.5" y="142"/><ellipse cx="267.5" cy="158" fill="#ADD1B2" rx="11" ry="11" style="stroke: #A80036; stroke-width: 1.0;"/><path d="M269.9731,164.1431 Q269.3921,164.4419 268.7529,164.5913 Q268.1138,164.7407 267.4082,164.7407 Q264.9014,164.7407 263.5815,163.0889 Q262.2617,161.437 262.2617,158.3159 Q262.2617,155.1865 263.5815,153.5347 Q264.9014,151.8828 267.4082,151.8828 Q268.1138,151.8828 268.7612,152.0322 Q269.4087,152.1816 269.9731,152.4805 L269.9731,155.2031 Q269.3423,154.6221 268.7488,154.3523 Q268.1553,154.0825 267.5244,154.0825 Q266.1797,154.0825 265.4949,155.1492 Q264.8101,156.2158 264.8101,158.3159 Q264.8101,160.4077 265.4949,161.4744 Q266.1797,162.541 267.5244,162.541 Q268.1553,162.541 268.7488,162.2712 Q269.3423,162.0015 269.9731,161.4204 Z "/><text fill="#000000" font-family="sans-serif" font-size="12" lengthAdjust="spacingAndGlyphs" textLength="67" x="281.5" y="162.5352">RealSubject</text><line style="stroke: #A80036; stroke-width: 1.5;" x1="253.5" x2="350.5" y1="174" y2="174"/><line style="stroke: #A80036; stroke-width: 1.5;" x1="253.5" x2="350.5" y1="182" y2="182"/><ellipse cx="263.5" cy="193" fill="#84BE84" rx="3" ry="3" style="stroke: #038048; stroke-width: 1.0;"/><text fill="#000000" font-family="sans-serif" font-size="11" lengthAdjust="spacingAndGlyphs" textLength="49" x="272.5" y="196.6348">request()</text><!--link Client to Proxy--><path d="M70.19,172.5 C80.06,172.5 89.93,172.5 99.79,172.5 " fill="none" id="Client-&gt;Proxy" style="stroke: #A80036; stroke-width: 1.0; stroke-dasharray: 7.0,7.0;"/><polygon fill="#A80036" points="104.95,172.5,95.95,168.5,99.95,172.5,95.95,176.5,104.95,172.5" style="stroke: #A80036; stroke-width: 1.0;"/><!--reverse link Subject to Proxy--><path d="M205.87,86.88 C198.59,100.62 190.68,115.53 183.56,128.96 " fill="none" id="Subject&lt;-Proxy" style="stroke: #A80036; stroke-width: 1.0; stroke-dasharray: 7.0,7.0;"/><polygon fill="none" points="199.74,83.51,215.29,69.12,212.1,90.07,199.74,83.51" style="stroke: #A80036; stroke-width: 1.0;"/><!--reverse link Subject to RealSubject--><path d="M256.5,86.91 C266.39,105.3 277.4,125.77 286.12,141.98 " fill="none" id="Subject&lt;-RealSubject" style="stroke: #A80036; stroke-width: 1.0; stroke-dasharray: 7.0,7.0;"/><polygon fill="none" points="250.24,90.05,246.93,69.12,262.57,83.42,250.24,90.05" style="stroke: #A80036; stroke-width: 1.0;"/><!--link Proxy to RealSubject--><path d="M217.18,172.5 C227.15,172.5 237.12,172.5 247.09,172.5 " fill="none" id="Proxy-&gt;RealSubject" style="stroke: #A80036; stroke-width: 1.0;"/><polygon fill="#A80036" points="252.3,172.5,243.3,168.5,247.3,172.5,243.3,176.5,252.3,172.5" style="stroke: #A80036; stroke-width: 1.0;"/><text fill="#000000" font-family="sans-serif" font-size="13" lengthAdjust="spacingAndGlyphs" textLength="46" x="198.6367" y="165.4332">subject</text><!--
@startuml proxy
class Client
abstract Subject{
  {abstract} request()
}
class Proxy{
  + beforeRequest()
  + request()
  + afterRequest()
}
class RealSubject{
  + request()
}

Client .right.> Proxy
Proxy .up.|> Subject
RealSubject .up.|> Subject
Proxy "subject" -right-> RealSubject
@enduml

PlantUML version 1.2019.09(Tue Aug 27 00:19:51 CST 2019)
(GPL source distribution)
Java Runtime: Java(TM) SE Runtime Environment
JVM: Java HotSpot(TM) 64-Bit Server VM
Java Version: 1.8.0_152-b16
Operating System: Mac OS X
OS Version: 10.14.4
Default Encoding: UTF-8
Language: zh
Country: CN
--></g></svg>