<?xml version="1.0" encoding="UTF-8" standalone="no"?><svg xmlns="http://www.w3.org/2000/svg" xmlns:xlink="http://www.w3.org/1999/xlink" contentScriptType="application/ecmascript" contentStyleType="text/css" height="200px" preserveAspectRatio="none" style="width:344px;height:200px;" version="1.1" viewBox="0 0 344 200" width="344px" zoomAndPan="magnify"><defs><filter height="300%" id="fi9230evzvl13" width="300%" x="-1" y="-1"><feGaussianBlur result="blurOut" stdDeviation="2.0"/><feColorMatrix in="blurOut" result="blurOut2" type="matrix" values="0 0 0 0 0 0 0 0 0 0 0 0 0 0 0 0 0 0 .4 0"/><feOffset dx="4.0" dy="4.0" in="blurOut2" result="blurOut3"/><feBlend in="SourceGraphic" in2="blurOut3" mode="normal"/></filter></defs><g><!--class Client--><rect fill="#FEFECE" filter="url(#fi9230evzvl13)" height="48" id="Client" style="stroke: #A80036; stroke-width: 1.5;" width="64" x="27" y="14.5"/><ellipse cx="42" cy="30.5" fill="#ADD1B2" rx="11" ry="11" style="stroke: #A80036; stroke-width: 1.0;"/><path d="M44.4731,36.6431 Q43.8921,36.9419 43.2529,37.0913 Q42.6138,37.2407 41.9082,37.2407 Q39.4014,37.2407 38.0815,35.5889 Q36.7617,33.937 36.7617,30.8159 Q36.7617,27.6865 38.0815,26.0347 Q39.4014,24.3828 41.9082,24.3828 Q42.6138,24.3828 43.2612,24.5322 Q43.9087,24.6816 44.4731,24.9805 L44.4731,27.7031 Q43.8423,27.1221 43.2488,26.8523 Q42.6553,26.5825 42.0244,26.5825 Q40.6797,26.5825 39.9949,27.6492 Q39.3101,28.7158 39.3101,30.8159 Q39.3101,32.9077 39.9949,33.9744 Q40.6797,35.041 42.0244,35.041 Q42.6553,35.041 43.2488,34.7712 Q43.8423,34.5015 44.4731,33.9204 Z "/><text fill="#000000" font-family="sans-serif" font-size="12" lengthAdjust="spacingAndGlyphs" textLength="32" x="56" y="35.0352">Client</text><line style="stroke: #A80036; stroke-width: 1.5;" x1="28" x2="90" y1="46.5" y2="46.5"/><line style="stroke: #A80036; stroke-width: 1.5;" x1="28" x2="90" y1="54.5" y2="54.5"/><!--class Prototype--><rect fill="#FEFECE" filter="url(#fi9230evzvl13)" height="60.9551" id="Prototype" style="stroke: #A80036; stroke-width: 1.5;" width="87" x="126.5" y="8"/><ellipse cx="141.5" cy="24" fill="#B4A7E5" rx="11" ry="11" style="stroke: #A80036; stroke-width: 1.0;"/><path d="M137.9277,20.2651 L137.9277,18.1069 L145.3071,18.1069 L145.3071,20.2651 L142.8418,20.2651 L142.8418,28.3418 L145.3071,28.3418 L145.3071,30.5 L137.9277,30.5 L137.9277,28.3418 L140.3931,28.3418 L140.3931,20.2651 Z "/><text fill="#000000" font-family="sans-serif" font-size="12" font-style="italic" lengthAdjust="spacingAndGlyphs" textLength="55" x="155.5" y="28.5352">Prototype</text><line style="stroke: #A80036; stroke-width: 1.5;" x1="127.5" x2="212.5" y1="40" y2="40"/><line style="stroke: #A80036; stroke-width: 1.5;" x1="127.5" x2="212.5" y1="48" y2="48"/><text fill="#000000" font-family="sans-serif" font-size="11" lengthAdjust="spacingAndGlyphs" textLength="37" x="132.5" y="62.6348">clone()</text><!--class ConcretePrototype1--><rect fill="#FEFECE" filter="url(#fi9230evzvl13)" height="60.9551" id="ConcretePrototype1" style="stroke: #A80036; stroke-width: 1.5;" width="146" x="6" y="129"/><ellipse cx="21" cy="145" fill="#ADD1B2" rx="11" ry="11" style="stroke: #A80036; stroke-width: 1.0;"/><path d="M23.4731,151.1431 Q22.8921,151.4419 22.2529,151.5913 Q21.6138,151.7407 20.9082,151.7407 Q18.4014,151.7407 17.0815,150.0889 Q15.7617,148.437 15.7617,145.3159 Q15.7617,142.1865 17.0815,140.5347 Q18.4014,138.8828 20.9082,138.8828 Q21.6138,138.8828 22.2612,139.0322 Q22.9087,139.1816 23.4731,139.4805 L23.4731,142.2031 Q22.8423,141.6221 22.2488,141.3523 Q21.6553,141.0825 21.0244,141.0825 Q19.6797,141.0825 18.9949,142.1492 Q18.3101,143.2158 18.3101,145.3159 Q18.3101,147.4077 18.9949,148.4744 Q19.6797,149.541 21.0244,149.541 Q21.6553,149.541 22.2488,149.2712 Q22.8423,149.0015 23.4731,148.4204 Z "/><text fill="#000000" font-family="sans-serif" font-size="12" lengthAdjust="spacingAndGlyphs" textLength="114" x="35" y="149.5352">ConcretePrototype1</text><line style="stroke: #A80036; stroke-width: 1.5;" x1="7" x2="151" y1="161" y2="161"/><line style="stroke: #A80036; stroke-width: 1.5;" x1="7" x2="151" y1="169" y2="169"/><ellipse cx="17" cy="180" fill="#84BE84" rx="3" ry="3" style="stroke: #038048; stroke-width: 1.0;"/><text fill="#000000" font-family="sans-serif" font-size="11" lengthAdjust="spacingAndGlyphs" textLength="37" x="26" y="183.6348">clone()</text><!--class ConcretePrototype2--><rect fill="#FEFECE" filter="url(#fi9230evzvl13)" height="60.9551" id="ConcretePrototype2" style="stroke: #A80036; stroke-width: 1.5;" width="146" x="187" y="129"/><ellipse cx="202" cy="145" fill="#ADD1B2" rx="11" ry="11" style="stroke: #A80036; stroke-width: 1.0;"/><path d="M204.4731,151.1431 Q203.8921,151.4419 203.2529,151.5913 Q202.6138,151.7407 201.9082,151.7407 Q199.4014,151.7407 198.0815,150.0889 Q196.7617,148.437 196.7617,145.3159 Q196.7617,142.1865 198.0815,140.5347 Q199.4014,138.8828 201.9082,138.8828 Q202.6138,138.8828 203.2612,139.0322 Q203.9087,139.1816 204.4731,139.4805 L204.4731,142.2031 Q203.8423,141.6221 203.2488,141.3523 Q202.6553,141.0825 202.0244,141.0825 Q200.6797,141.0825 199.9949,142.1492 Q199.3101,143.2158 199.3101,145.3159 Q199.3101,147.4077 199.9949,148.4744 Q200.6797,149.541 202.0244,149.541 Q202.6553,149.541 203.2488,149.2712 Q203.8423,149.0015 204.4731,148.4204 Z "/><text fill="#000000" font-family="sans-serif" font-size="12" lengthAdjust="spacingAndGlyphs" textLength="114" x="216" y="149.5352">ConcretePrototype2</text><line style="stroke: #A80036; stroke-width: 1.5;" x1="188" x2="332" y1="161" y2="161"/><line style="stroke: #A80036; stroke-width: 1.5;" x1="188" x2="332" y1="169" y2="169"/><ellipse cx="198" cy="180" fill="#84BE84" rx="3" ry="3" style="stroke: #038048; stroke-width: 1.0;"/><text fill="#000000" font-family="sans-serif" font-size="11" lengthAdjust="spacingAndGlyphs" textLength="37" x="207" y="183.6348">clone()</text><!--link Client to Prototype--><path d="M91.09,38.5 C101.06,38.5 111.04,38.5 121.01,38.5 " fill="none" id="Client-&gt;Prototype" style="stroke: #A80036; stroke-width: 1.0;"/><polygon fill="#A80036" points="126.23,38.5,117.23,34.5,121.23,38.5,117.23,42.5,126.23,38.5" style="stroke: #A80036; stroke-width: 1.0;"/><!--reverse link Prototype to ConcretePrototype1--><path d="M134.81,85.52 C123.71,100.03 111.75,115.68 101.75,128.74 " fill="none" id="Prototype&lt;-ConcretePrototype1" style="stroke: #A80036; stroke-width: 1.0; stroke-dasharray: 7.0,7.0;"/><polygon fill="none" points="129.56,80.86,147.27,69.22,140.68,89.36,129.56,80.86" style="stroke: #A80036; stroke-width: 1.0;"/><!--reverse link Prototype to ConcretePrototype2--><path d="M204.8,85.52 C215.78,100.03 227.61,115.68 237.5,128.74 " fill="none" id="Prototype&lt;-ConcretePrototype2" style="stroke: #A80036; stroke-width: 1.0; stroke-dasharray: 7.0,7.0;"/><polygon fill="none" points="198.96,89.4,192.48,69.22,210.13,80.95,198.96,89.4" style="stroke: #A80036; stroke-width: 1.0;"/><!--
@startuml prototype

class Client
interface Prototype{
  clone()
}
class ConcretePrototype1{
  + clone()
}
class ConcretePrototype2{
  + clone()
}
Client -right-> Prototype
ConcretePrototype1 .up.|> Prototype
ConcretePrototype2 .up.|> Prototype
@enduml

PlantUML version 1.2019.09(Tue Aug 27 00:19:51 CST 2019)
(GPL source distribution)
Java Runtime: Java(TM) SE Runtime Environment
JVM: Java HotSpot(TM) 64-Bit Server VM
Java Version: 1.8.0_152-b16
Operating System: Mac OS X
OS Version: 10.14.4
Default Encoding: UTF-8
Language: zh
Country: CN
--></g></svg>