<?xml version="1.0" encoding="UTF-8" standalone="no"?><svg xmlns="http://www.w3.org/2000/svg" xmlns:xlink="http://www.w3.org/1999/xlink" contentScriptType="application/ecmascript" contentStyleType="text/css" height="213px" preserveAspectRatio="none" style="width:365px;height:213px;" version="1.1" viewBox="0 0 365 213" width="365px" zoomAndPan="magnify"><defs><filter height="300%" id="f37oegqvsz9tx" width="300%" x="-1" y="-1"><feGaussianBlur result="blurOut" stdDeviation="2.0"/><feColorMatrix in="blurOut" result="blurOut2" type="matrix" values="0 0 0 0 0 0 0 0 0 0 0 0 0 0 0 0 0 0 .4 0"/><feOffset dx="4.0" dy="4.0" in="blurOut2" result="blurOut3"/><feBlend in="SourceGraphic" in2="blurOut3" mode="normal"/></filter></defs><g><!--class Context--><rect fill="#FEFECE" filter="url(#f37oegqvsz9tx)" height="73.9102" id="Context" style="stroke: #A80036; stroke-width: 1.5;" width="120" x="6" y="8"/><ellipse cx="40.8" cy="24" fill="#ADD1B2" rx="11" ry="11" style="stroke: #A80036; stroke-width: 1.0;"/><path d="M43.2731,30.1431 Q42.6921,30.4419 42.0529,30.5913 Q41.4138,30.7407 40.7082,30.7407 Q38.2014,30.7407 36.8815,29.0889 Q35.5617,27.437 35.5617,24.3159 Q35.5617,21.1865 36.8815,19.5347 Q38.2014,17.8828 40.7082,17.8828 Q41.4138,17.8828 42.0612,18.0322 Q42.7087,18.1816 43.2731,18.4805 L43.2731,21.2031 Q42.6423,20.6221 42.0488,20.3523 Q41.4553,20.0825 40.8244,20.0825 Q39.4797,20.0825 38.7949,21.1492 Q38.1101,22.2158 38.1101,24.3159 Q38.1101,26.4077 38.7949,27.4744 Q39.4797,28.541 40.8244,28.541 Q41.4553,28.541 42.0488,28.2712 Q42.6423,28.0015 43.2731,27.4204 Z "/><text fill="#000000" font-family="sans-serif" font-size="12" lengthAdjust="spacingAndGlyphs" textLength="44" x="59.2" y="28.5352">Context</text><line style="stroke: #A80036; stroke-width: 1.5;" x1="7" x2="125" y1="40" y2="40"/><rect fill="none" height="6" style="stroke: #C82930; stroke-width: 1.0;" width="6" x="14" y="48"/><text fill="#000000" font-family="sans-serif" font-size="11" lengthAdjust="spacingAndGlyphs" textLength="94" x="26" y="54.6348">strategy: Strategy</text><line style="stroke: #A80036; stroke-width: 1.5;" x1="7" x2="125" y1="60.9551" y2="60.9551"/><ellipse cx="17" cy="71.9551" fill="#84BE84" rx="3" ry="3" style="stroke: #038048; stroke-width: 1.0;"/><text fill="#000000" font-family="sans-serif" font-size="11" lengthAdjust="spacingAndGlyphs" textLength="50" x="26" y="75.5898">execute()</text><!--class Strategy--><rect fill="#FEFECE" filter="url(#f37oegqvsz9tx)" height="60.9551" id="Strategy" style="stroke: #A80036; stroke-width: 1.5;" width="78" x="161" y="14.5"/><ellipse cx="176" cy="30.5" fill="#A9DCDF" rx="11" ry="11" style="stroke: #A80036; stroke-width: 1.0;"/><path d="M176.1133,26.0981 L174.9595,31.1699 L177.2754,31.1699 Z M174.6191,23.8569 L177.6157,23.8569 L180.9609,36.25 L178.5122,36.25 L177.7485,33.187 L174.4697,33.187 L173.7227,36.25 L171.2739,36.25 Z "/><text fill="#000000" font-family="sans-serif" font-size="12" font-style="italic" lengthAdjust="spacingAndGlyphs" textLength="46" x="190" y="35.0352">Strategy</text><line style="stroke: #A80036; stroke-width: 1.5;" x1="162" x2="238" y1="46.5" y2="46.5"/><line style="stroke: #A80036; stroke-width: 1.5;" x1="162" x2="238" y1="54.5" y2="54.5"/><text fill="#000000" font-family="sans-serif" font-size="11" font-style="italic" lengthAdjust="spacingAndGlyphs" textLength="50" x="167" y="69.1348">execute()</text><!--class ConcreteStrategyA--><rect fill="#FEFECE" filter="url(#f37oegqvsz9tx)" height="60.9551" id="ConcreteStrategyA" style="stroke: #A80036; stroke-width: 1.5;" width="137" x="45.5" y="142"/><ellipse cx="60.5" cy="158" fill="#ADD1B2" rx="11" ry="11" style="stroke: #A80036; stroke-width: 1.0;"/><path d="M62.9731,164.1431 Q62.3921,164.4419 61.7529,164.5913 Q61.1138,164.7407 60.4082,164.7407 Q57.9014,164.7407 56.5815,163.0889 Q55.2617,161.437 55.2617,158.3159 Q55.2617,155.1865 56.5815,153.5347 Q57.9014,151.8828 60.4082,151.8828 Q61.1138,151.8828 61.7612,152.0322 Q62.4087,152.1816 62.9731,152.4805 L62.9731,155.2031 Q62.3423,154.6221 61.7488,154.3523 Q61.1553,154.0825 60.5244,154.0825 Q59.1797,154.0825 58.4949,155.1492 Q57.8101,156.2158 57.8101,158.3159 Q57.8101,160.4077 58.4949,161.4744 Q59.1797,162.541 60.5244,162.541 Q61.1553,162.541 61.7488,162.2712 Q62.3423,162.0015 62.9731,161.4204 Z "/><text fill="#000000" font-family="sans-serif" font-size="12" lengthAdjust="spacingAndGlyphs" textLength="105" x="74.5" y="162.5352">ConcreteStrategyA</text><line style="stroke: #A80036; stroke-width: 1.5;" x1="46.5" x2="181.5" y1="174" y2="174"/><line style="stroke: #A80036; stroke-width: 1.5;" x1="46.5" x2="181.5" y1="182" y2="182"/><ellipse cx="56.5" cy="193" fill="#84BE84" rx="3" ry="3" style="stroke: #038048; stroke-width: 1.0;"/><text fill="#000000" font-family="sans-serif" font-size="11" lengthAdjust="spacingAndGlyphs" textLength="50" x="65.5" y="196.6348">execute()</text><!--class ConcreteStrategyB--><rect fill="#FEFECE" filter="url(#f37oegqvsz9tx)" height="60.9551" id="ConcreteStrategyB" style="stroke: #A80036; stroke-width: 1.5;" width="136" x="218" y="142"/><ellipse cx="233" cy="158" fill="#ADD1B2" rx="11" ry="11" style="stroke: #A80036; stroke-width: 1.0;"/><path d="M235.4731,164.1431 Q234.8921,164.4419 234.2529,164.5913 Q233.6138,164.7407 232.9082,164.7407 Q230.4014,164.7407 229.0815,163.0889 Q227.7617,161.437 227.7617,158.3159 Q227.7617,155.1865 229.0815,153.5347 Q230.4014,151.8828 232.9082,151.8828 Q233.6138,151.8828 234.2612,152.0322 Q234.9087,152.1816 235.4731,152.4805 L235.4731,155.2031 Q234.8423,154.6221 234.2488,154.3523 Q233.6553,154.0825 233.0244,154.0825 Q231.6797,154.0825 230.9949,155.1492 Q230.3101,156.2158 230.3101,158.3159 Q230.3101,160.4077 230.9949,161.4744 Q231.6797,162.541 233.0244,162.541 Q233.6553,162.541 234.2488,162.2712 Q234.8423,162.0015 235.4731,161.4204 Z "/><text fill="#000000" font-family="sans-serif" font-size="12" lengthAdjust="spacingAndGlyphs" textLength="104" x="247" y="162.5352">ConcreteStrategyB</text><line style="stroke: #A80036; stroke-width: 1.5;" x1="219" x2="353" y1="174" y2="174"/><line style="stroke: #A80036; stroke-width: 1.5;" x1="219" x2="353" y1="182" y2="182"/><ellipse cx="229" cy="193" fill="#84BE84" rx="3" ry="3" style="stroke: #038048; stroke-width: 1.0;"/><text fill="#000000" font-family="sans-serif" font-size="11" lengthAdjust="spacingAndGlyphs" textLength="50" x="238" y="196.6348">execute()</text><!--reverse link Context to Strategy--><path d="M139.44,45 C146.56,45 153.67,45 160.79,45 " fill="none" id="Context&lt;-Strategy" style="stroke: #A80036; stroke-width: 1.0;"/><polygon fill="#FFFFFF" points="126.2,45,132.2,49,138.2,45,132.2,41,126.2,45" style="stroke: #A80036; stroke-width: 1.0;"/><!--reverse link Strategy to ConcreteStrategyA--><path d="M168.31,92.25 C156.92,108.87 144.39,127.16 134.23,141.97 " fill="none" id="Strategy&lt;-ConcreteStrategyA" style="stroke: #A80036; stroke-width: 1.0;"/><polygon fill="none" points="162.54,88.28,179.62,75.74,174.09,96.2,162.54,88.28" style="stroke: #A80036; stroke-width: 1.0;"/><!--reverse link Strategy to ConcreteStrategyB--><path d="M231.69,92.25 C243.08,108.87 255.61,127.16 265.77,141.97 " fill="none" id="Strategy&lt;-ConcreteStrategyB" style="stroke: #A80036; stroke-width: 1.0;"/><polygon fill="none" points="225.91,96.2,220.38,75.74,237.46,88.28,225.91,96.2" style="stroke: #A80036; stroke-width: 1.0;"/><!--
@startuml strategy
class Context{
  - strategy: Strategy
  + execute()
}
abstract Strategy{
  {abstract} execute()
}
class ConcreteStrategyA{
  + execute()
}
class ConcreteStrategyB{
  + execute()
}

Context o-right- Strategy
ConcreteStrategyA -up-|> Strategy
ConcreteStrategyB -up-|> Strategy
@enduml

PlantUML version 1.2019.09(Tue Aug 27 00:19:51 CST 2019)
(GPL source distribution)
Java Runtime: Java(TM) SE Runtime Environment
JVM: Java HotSpot(TM) 64-Bit Server VM
Java Version: 1.8.0_152-b16
Operating System: Mac OS X
OS Version: 10.14.4
Default Encoding: UTF-8
Language: zh
Country: CN
--></g></svg>