<?xml version="1.0" encoding="UTF-8" standalone="no"?><svg xmlns="http://www.w3.org/2000/svg" xmlns:xlink="http://www.w3.org/1999/xlink" contentScriptType="application/ecmascript" contentStyleType="text/css" height="551px" preserveAspectRatio="none" style="width:377px;height:551px;" version="1.1" viewBox="0 0 377 551" width="377px" zoomAndPan="magnify"><defs><filter height="300%" id="fe9qhzmb0ojds" width="300%" x="-1" y="-1"><feGaussianBlur result="blurOut" stdDeviation="2.0"/><feColorMatrix in="blurOut" result="blurOut2" type="matrix" values="0 0 0 0 0 0 0 0 0 0 0 0 0 0 0 0 0 0 .4 0"/><feOffset dx="4.0" dy="4.0" in="blurOut2" result="blurOut3"/><feBlend in="SourceGraphic" in2="blurOut3" mode="normal"/></filter></defs><g><rect fill="#FFFFFF" filter="url(#fe9qhzmb0ojds)" height="358.5293" style="stroke: #A80036; stroke-width: 1.0;" width="10" x="22.5" y="96.4883"/><rect fill="#FFFFFF" filter="url(#fe9qhzmb0ojds)" height="246.2422" style="stroke: #A80036; stroke-width: 1.0;" width="10" x="184.5" y="208.7754"/><rect fill="#FFFFFF" filter="url(#fe9qhzmb0ojds)" height="30" style="stroke: #A80036; stroke-width: 1.0;" width="10" x="299.5" y="238.0859"/><rect fill="#FFFFFF" filter="url(#fe9qhzmb0ojds)" height="30" style="stroke: #A80036; stroke-width: 1.0;" width="10" x="299.5" y="297.3965"/><rect fill="#FFFFFF" filter="url(#fe9qhzmb0ojds)" height="30" style="stroke: #A80036; stroke-width: 1.0;" width="10" x="299.5" y="356.707"/><rect fill="#FFFFFF" filter="url(#fe9qhzmb0ojds)" height="30" style="stroke: #A80036; stroke-width: 1.0;" width="10" x="299.5" y="416.0176"/><rect fill="#FEFECE" filter="url(#fe9qhzmb0ojds)" height="30.4883" style="stroke: #A80036; stroke-width: 1.5;" width="128" x="238.5" y="96.4883"/><text fill="#000000" font-family="sans-serif" font-size="14" lengthAdjust="spacingAndGlyphs" textLength="114" x="245.5" y="117.0234">:ConcreteBuilder</text><rect fill="#FEFECE" filter="url(#fe9qhzmb0ojds)" height="30.4883" style="stroke: #A80036; stroke-width: 1.5;" width="73" x="151" y="141.9766"/><text fill="#000000" font-family="sans-serif" font-size="14" lengthAdjust="spacingAndGlyphs" textLength="59" x="158" y="162.5117">:Director</text><line style="stroke: #A80036; stroke-width: 1.0; stroke-dasharray: 5.0,5.0;" x1="27" x2="27" y1="86.4883" y2="464.0176"/><line style="stroke: #A80036; stroke-width: 1.0; stroke-dasharray: 5.0,5.0;" x1="189" x2="189" y1="174.7207" y2="464.0176"/><line style="stroke: #A80036; stroke-width: 1.0; stroke-dasharray: 5.0,5.0;" x1="304.5" x2="304.5" y1="129.2324" y2="464.0176"/><text fill="#000000" font-family="sans-serif" font-size="14" lengthAdjust="spacingAndGlyphs" textLength="33" x="8" y="83.5352">Main</text><ellipse cx="27.5" cy="13" fill="#FEFECE" filter="url(#fe9qhzmb0ojds)" rx="8" ry="8" style="stroke: #A80036; stroke-width: 2.0;"/><path d="M27.5,21 L27.5,48 M14.5,29 L40.5,29 M27.5,48 L14.5,63 M27.5,48 L40.5,63 " fill="none" filter="url(#fe9qhzmb0ojds)" style="stroke: #A80036; stroke-width: 2.0;"/><text fill="#000000" font-family="sans-serif" font-size="14" lengthAdjust="spacingAndGlyphs" textLength="33" x="8" y="476.5527">Main</text><ellipse cx="27.5" cy="489.5059" fill="#FEFECE" filter="url(#fe9qhzmb0ojds)" rx="8" ry="8" style="stroke: #A80036; stroke-width: 2.0;"/><path d="M27.5,497.5059 L27.5,524.5059 M14.5,505.5059 L40.5,505.5059 M27.5,524.5059 L14.5,539.5059 M27.5,524.5059 L40.5,539.5059 " fill="none" filter="url(#fe9qhzmb0ojds)" style="stroke: #A80036; stroke-width: 2.0;"/><rect fill="#FEFECE" filter="url(#fe9qhzmb0ojds)" height="30.4883" style="stroke: #A80036; stroke-width: 1.5;" width="73" x="151" y="463.0176"/><text fill="#000000" font-family="sans-serif" font-size="14" lengthAdjust="spacingAndGlyphs" textLength="59" x="158" y="483.5527">:Director</text><rect fill="#FEFECE" filter="url(#fe9qhzmb0ojds)" height="30.4883" style="stroke: #A80036; stroke-width: 1.5;" width="128" x="238.5" y="463.0176"/><text fill="#000000" font-family="sans-serif" font-size="14" lengthAdjust="spacingAndGlyphs" textLength="114" x="245.5" y="483.5527">:ConcreteBuilder</text><rect fill="#FFFFFF" filter="url(#fe9qhzmb0ojds)" height="358.5293" style="stroke: #A80036; stroke-width: 1.0;" width="10" x="22.5" y="96.4883"/><rect fill="#FFFFFF" filter="url(#fe9qhzmb0ojds)" height="246.2422" style="stroke: #A80036; stroke-width: 1.0;" width="10" x="184.5" y="208.7754"/><rect fill="#FFFFFF" filter="url(#fe9qhzmb0ojds)" height="30" style="stroke: #A80036; stroke-width: 1.0;" width="10" x="299.5" y="238.0859"/><rect fill="#FFFFFF" filter="url(#fe9qhzmb0ojds)" height="30" style="stroke: #A80036; stroke-width: 1.0;" width="10" x="299.5" y="297.3965"/><rect fill="#FFFFFF" filter="url(#fe9qhzmb0ojds)" height="30" style="stroke: #A80036; stroke-width: 1.0;" width="10" x="299.5" y="356.707"/><rect fill="#FFFFFF" filter="url(#fe9qhzmb0ojds)" height="30" style="stroke: #A80036; stroke-width: 1.0;" width="10" x="299.5" y="416.0176"/><polygon fill="#A80036" points="226.5,113.7988,236.5,117.7988,226.5,121.7988,230.5,117.7988" style="stroke: #A80036; stroke-width: 1.0;"/><line style="stroke: #A80036; stroke-width: 1.0; stroke-dasharray: 2.0,2.0;" x1="32.5" x2="232.5" y1="117.7988" y2="117.7988"/><text fill="#000000" font-family="sans-serif" font-size="13" font-weight="bold" lengthAdjust="spacingAndGlyphs" textLength="9" x="39.5" y="113.0566">1</text><text fill="#000000" font-family="sans-serif" font-size="13" lengthAdjust="spacingAndGlyphs" textLength="78" x="52.5" y="113.0566">&lt;&lt;create&gt;&gt;</text><rect fill="#FEFECE" filter="url(#fe9qhzmb0ojds)" height="30.4883" style="stroke: #A80036; stroke-width: 1.5;" width="128" x="238.5" y="96.4883"/><text fill="#000000" font-family="sans-serif" font-size="14" lengthAdjust="spacingAndGlyphs" textLength="114" x="245.5" y="117.0234">:ConcreteBuilder</text><polygon fill="#A80036" points="139,159.2871,149,163.2871,139,167.2871,143,163.2871" style="stroke: #A80036; stroke-width: 1.0;"/><line style="stroke: #A80036; stroke-width: 1.0; stroke-dasharray: 2.0,2.0;" x1="32.5" x2="145" y1="163.2871" y2="163.2871"/><text fill="#000000" font-family="sans-serif" font-size="13" font-weight="bold" lengthAdjust="spacingAndGlyphs" textLength="9" x="39.5" y="158.5449">2</text><text fill="#000000" font-family="sans-serif" font-size="13" lengthAdjust="spacingAndGlyphs" textLength="78" x="52.5" y="158.5449">&lt;&lt;create&gt;&gt;</text><rect fill="#FEFECE" filter="url(#fe9qhzmb0ojds)" height="30.4883" style="stroke: #A80036; stroke-width: 1.5;" width="73" x="151" y="141.9766"/><text fill="#000000" font-family="sans-serif" font-size="14" lengthAdjust="spacingAndGlyphs" textLength="59" x="158" y="162.5117">:Director</text><polygon fill="#A80036" points="172.5,204.7754,182.5,208.7754,172.5,212.7754,176.5,208.7754" style="stroke: #A80036; stroke-width: 1.0;"/><line style="stroke: #A80036; stroke-width: 1.0;" x1="32.5" x2="178.5" y1="208.7754" y2="208.7754"/><text fill="#000000" font-family="sans-serif" font-size="13" font-weight="bold" lengthAdjust="spacingAndGlyphs" textLength="9" x="39.5" y="204.0332">3</text><text fill="#000000" font-family="sans-serif" font-size="13" lengthAdjust="spacingAndGlyphs" textLength="120" x="52.5" y="204.0332">construct():Product</text><polygon fill="#A80036" points="287.5,234.0859,297.5,238.0859,287.5,242.0859,291.5,238.0859" style="stroke: #A80036; stroke-width: 1.0;"/><line style="stroke: #A80036; stroke-width: 1.0;" x1="194.5" x2="293.5" y1="238.0859" y2="238.0859"/><text fill="#000000" font-family="sans-serif" font-size="13" font-weight="bold" lengthAdjust="spacingAndGlyphs" textLength="9" x="201.5" y="233.3438">4</text><text fill="#000000" font-family="sans-serif" font-size="13" lengthAdjust="spacingAndGlyphs" textLength="73" x="214.5" y="233.3438">buildPartA()</text><polygon fill="#A80036" points="287.5,293.3965,297.5,297.3965,287.5,301.3965,291.5,297.3965" style="stroke: #A80036; stroke-width: 1.0;"/><line style="stroke: #A80036; stroke-width: 1.0;" x1="194.5" x2="293.5" y1="297.3965" y2="297.3965"/><text fill="#000000" font-family="sans-serif" font-size="13" font-weight="bold" lengthAdjust="spacingAndGlyphs" textLength="9" x="201.5" y="292.6543">5</text><text fill="#000000" font-family="sans-serif" font-size="13" lengthAdjust="spacingAndGlyphs" textLength="71" x="214.5" y="292.6543">buildPartB()</text><polygon fill="#A80036" points="287.5,352.707,297.5,356.707,287.5,360.707,291.5,356.707" style="stroke: #A80036; stroke-width: 1.0;"/><line style="stroke: #A80036; stroke-width: 1.0;" x1="194.5" x2="293.5" y1="356.707" y2="356.707"/><text fill="#000000" font-family="sans-serif" font-size="13" font-weight="bold" lengthAdjust="spacingAndGlyphs" textLength="9" x="201.5" y="351.9648">6</text><text fill="#000000" font-family="sans-serif" font-size="13" lengthAdjust="spacingAndGlyphs" textLength="73" x="214.5" y="351.9648">buildPartC()</text><polygon fill="#A80036" points="287.5,412.0176,297.5,416.0176,287.5,420.0176,291.5,416.0176" style="stroke: #A80036; stroke-width: 1.0;"/><line style="stroke: #A80036; stroke-width: 1.0;" x1="194.5" x2="293.5" y1="416.0176" y2="416.0176"/><text fill="#000000" font-family="sans-serif" font-size="13" font-weight="bold" lengthAdjust="spacingAndGlyphs" textLength="9" x="201.5" y="411.2754">7</text><text fill="#000000" font-family="sans-serif" font-size="13" lengthAdjust="spacingAndGlyphs" textLength="67" x="214.5" y="411.2754">getResult()</text><!--
@startuml builder
autonumber

actor Main
participant ":Director" as director
participant ":ConcreteBuilder" as builder

activate Main
Main - -> builder ** : <<create>>
Main - -> director ** : <<create>>
Main -> director : construct():Product
activate director
director -> builder : buildPartA()
activate builder
deactivate builder
director -> builder : buildPartB()
activate builder
deactivate builder
director -> builder : buildPartC()
activate builder
deactivate builder
director -> builder : getResult()
activate builder
deactivate builder
@enduml

PlantUML version 1.2019.09(Tue Aug 27 00:19:51 CST 2019)
(GPL source distribution)
Java Runtime: Java(TM) SE Runtime Environment
JVM: Java HotSpot(TM) 64-Bit Server VM
Java Version: 1.8.0_152-b16
Operating System: Mac OS X
OS Version: 10.14.4
Default Encoding: UTF-8
Language: zh
Country: CN
--></g></svg>