<?xml version="1.0" encoding="UTF-8" standalone="no"?><svg xmlns="http://www.w3.org/2000/svg" xmlns:xlink="http://www.w3.org/1999/xlink" contentScriptType="application/ecmascript" contentStyleType="text/css" height="239px" preserveAspectRatio="none" style="width:684px;height:239px;" version="1.1" viewBox="0 0 684 239" width="684px" zoomAndPan="magnify"><defs><filter height="300%" id="f2w0creveifpz" width="300%" x="-1" y="-1"><feGaussianBlur result="blurOut" stdDeviation="2.0"/><feColorMatrix in="blurOut" result="blurOut2" type="matrix" values="0 0 0 0 0 0 0 0 0 0 0 0 0 0 0 0 0 0 .4 0"/><feOffset dx="4.0" dy="4.0" in="blurOut2" result="blurOut3"/><feBlend in="SourceGraphic" in2="blurOut3" mode="normal"/></filter></defs><g><!--class Client--><rect fill="#FEFECE" filter="url(#f2w0creveifpz)" height="48" id="Client" style="stroke: #A80036; stroke-width: 1.5;" width="64" x="6" y="27.5"/><ellipse cx="21" cy="43.5" fill="#ADD1B2" rx="11" ry="11" style="stroke: #A80036; stroke-width: 1.0;"/><path d="M23.4731,49.6431 Q22.8921,49.9419 22.2529,50.0913 Q21.6138,50.2407 20.9082,50.2407 Q18.4014,50.2407 17.0815,48.5889 Q15.7617,46.937 15.7617,43.8159 Q15.7617,40.6865 17.0815,39.0347 Q18.4014,37.3828 20.9082,37.3828 Q21.6138,37.3828 22.2612,37.5322 Q22.9087,37.6816 23.4731,37.9805 L23.4731,40.7031 Q22.8423,40.1221 22.2488,39.8523 Q21.6553,39.5825 21.0244,39.5825 Q19.6797,39.5825 18.9949,40.6492 Q18.3101,41.7158 18.3101,43.8159 Q18.3101,45.9077 18.9949,46.9744 Q19.6797,48.041 21.0244,48.041 Q21.6553,48.041 22.2488,47.7712 Q22.8423,47.5015 23.4731,46.9204 Z "/><text fill="#000000" font-family="sans-serif" font-size="12" lengthAdjust="spacingAndGlyphs" textLength="32" x="35" y="48.0352">Client</text><line style="stroke: #A80036; stroke-width: 1.5;" x1="7" x2="69" y1="59.5" y2="59.5"/><line style="stroke: #A80036; stroke-width: 1.5;" x1="7" x2="69" y1="67.5" y2="67.5"/><!--class Abstraction--><rect fill="#FEFECE" filter="url(#f2w0creveifpz)" height="86.8652" id="Abstraction" style="stroke: #A80036; stroke-width: 1.5;" width="178" x="105" y="8"/><ellipse cx="157.25" cy="24" fill="#A9DCDF" rx="11" ry="11" style="stroke: #A80036; stroke-width: 1.0;"/><path d="M157.3633,19.5981 L156.2095,24.6699 L158.5254,24.6699 Z M155.8691,17.3569 L158.8657,17.3569 L162.2109,29.75 L159.7622,29.75 L158.9985,26.687 L155.7197,26.687 L154.9727,29.75 L152.5239,29.75 Z "/><text fill="#000000" font-family="sans-serif" font-size="12" font-style="italic" lengthAdjust="spacingAndGlyphs" textLength="65" x="177.75" y="28.5352">Abstraction</text><line style="stroke: #A80036; stroke-width: 1.5;" x1="106" x2="282" y1="40" y2="40"/><rect fill="none" height="6" style="stroke: #C82930; stroke-width: 1.0;" width="6" x="113" y="48"/><text fill="#000000" font-family="sans-serif" font-size="11" lengthAdjust="spacingAndGlyphs" textLength="94" x="125" y="54.6348">imp: Implementor</text><line style="stroke: #A80036; stroke-width: 1.5;" x1="106" x2="282" y1="60.9551" y2="60.9551"/><text fill="#000000" font-family="sans-serif" font-size="11" lengthAdjust="spacingAndGlyphs" textLength="166" x="111" y="75.5898">constructor(imp: Implementor)</text><text fill="#000000" font-family="sans-serif" font-size="11" font-style="italic" lengthAdjust="spacingAndGlyphs" textLength="86" x="111" y="88.5449">operation():void</text><!--class RefinedAbstraction--><rect fill="#FEFECE" filter="url(#f2w0creveifpz)" height="73.9102" id="RefinedAbstraction" style="stroke: #A80036; stroke-width: 1.5;" width="192" x="83" y="155"/><ellipse cx="120.95" cy="171" fill="#ADD1B2" rx="11" ry="11" style="stroke: #A80036; stroke-width: 1.0;"/><path d="M123.4231,177.1431 Q122.8421,177.4419 122.2029,177.5913 Q121.5638,177.7407 120.8582,177.7407 Q118.3514,177.7407 117.0315,176.0889 Q115.7117,174.437 115.7117,171.3159 Q115.7117,168.1865 117.0315,166.5347 Q118.3514,164.8828 120.8582,164.8828 Q121.5638,164.8828 122.2112,165.0322 Q122.8587,165.1816 123.4231,165.4805 L123.4231,168.2031 Q122.7923,167.6221 122.1988,167.3523 Q121.6053,167.0825 120.9744,167.0825 Q119.6297,167.0825 118.9449,168.1492 Q118.2601,169.2158 118.2601,171.3159 Q118.2601,173.4077 118.9449,174.4744 Q119.6297,175.541 120.9744,175.541 Q121.6053,175.541 122.1988,175.2712 Q122.7923,175.0015 123.4231,174.4204 Z "/><text fill="#000000" font-family="sans-serif" font-size="12" lengthAdjust="spacingAndGlyphs" textLength="109" x="140.05" y="175.5352">RefinedAbstraction</text><line style="stroke: #A80036; stroke-width: 1.5;" x1="84" x2="274" y1="187" y2="187"/><line style="stroke: #A80036; stroke-width: 1.5;" x1="84" x2="274" y1="195" y2="195"/><text fill="#000000" font-family="sans-serif" font-size="11" lengthAdjust="spacingAndGlyphs" textLength="166" x="103" y="209.6348">constructor(imp: Implementor)</text><ellipse cx="94" cy="218.9551" fill="#84BE84" rx="3" ry="3" style="stroke: #038048; stroke-width: 1.0;"/><text fill="#000000" font-family="sans-serif" font-size="11" lengthAdjust="spacingAndGlyphs" textLength="86" x="103" y="222.5898">operation():void</text><!--class Implementor--><rect fill="#FEFECE" filter="url(#f2w0creveifpz)" height="60.9551" id="Implementor" style="stroke: #A80036; stroke-width: 1.5;" width="118" x="333" y="21"/><ellipse cx="353.85" cy="37" fill="#A9DCDF" rx="11" ry="11" style="stroke: #A80036; stroke-width: 1.0;"/><path d="M353.9633,32.5981 L352.8095,37.6699 L355.1254,37.6699 Z M352.4691,30.3569 L355.4657,30.3569 L358.8109,42.75 L356.3622,42.75 L355.5985,39.687 L352.3197,39.687 L351.5727,42.75 L349.1239,42.75 Z "/><text fill="#000000" font-family="sans-serif" font-size="12" font-style="italic" lengthAdjust="spacingAndGlyphs" textLength="73" x="369.15" y="41.5352">Implementor</text><line style="stroke: #A80036; stroke-width: 1.5;" x1="334" x2="450" y1="53" y2="53"/><line style="stroke: #A80036; stroke-width: 1.5;" x1="334" x2="450" y1="61" y2="61"/><text fill="#000000" font-family="sans-serif" font-size="11" font-style="italic" lengthAdjust="spacingAndGlyphs" textLength="106" x="339" y="75.6348">operationImp():void</text><!--class ConcreteImplementorA--><rect fill="#FEFECE" filter="url(#f2w0creveifpz)" height="60.9551" id="ConcreteImplementorA" style="stroke: #A80036; stroke-width: 1.5;" width="164" x="509" y="161.5"/><ellipse cx="524" cy="177.5" fill="#ADD1B2" rx="11" ry="11" style="stroke: #A80036; stroke-width: 1.0;"/><path d="M526.4731,183.6431 Q525.8921,183.9419 525.2529,184.0913 Q524.6138,184.2407 523.9082,184.2407 Q521.4014,184.2407 520.0815,182.5889 Q518.7617,180.937 518.7617,177.8159 Q518.7617,174.6865 520.0815,173.0347 Q521.4014,171.3828 523.9082,171.3828 Q524.6138,171.3828 525.2612,171.5322 Q525.9087,171.6816 526.4731,171.9805 L526.4731,174.7031 Q525.8423,174.1221 525.2488,173.8523 Q524.6553,173.5825 524.0244,173.5825 Q522.6797,173.5825 521.9949,174.6492 Q521.3101,175.7158 521.3101,177.8159 Q521.3101,179.9077 521.9949,180.9744 Q522.6797,182.041 524.0244,182.041 Q524.6553,182.041 525.2488,181.7712 Q525.8423,181.5015 526.4731,180.9204 Z "/><text fill="#000000" font-family="sans-serif" font-size="12" lengthAdjust="spacingAndGlyphs" textLength="132" x="538" y="182.0352">ConcreteImplementorA</text><line style="stroke: #A80036; stroke-width: 1.5;" x1="510" x2="672" y1="193.5" y2="193.5"/><line style="stroke: #A80036; stroke-width: 1.5;" x1="510" x2="672" y1="201.5" y2="201.5"/><ellipse cx="520" cy="212.5" fill="#84BE84" rx="3" ry="3" style="stroke: #038048; stroke-width: 1.0;"/><text fill="#000000" font-family="sans-serif" font-size="11" lengthAdjust="spacingAndGlyphs" textLength="106" x="529" y="216.1348">operationImp():void</text><!--class ConcreteImplementorB--><rect fill="#FEFECE" filter="url(#f2w0creveifpz)" height="60.9551" id="ConcreteImplementorB" style="stroke: #A80036; stroke-width: 1.5;" width="163" x="310.5" y="161.5"/><ellipse cx="325.5" cy="177.5" fill="#ADD1B2" rx="11" ry="11" style="stroke: #A80036; stroke-width: 1.0;"/><path d="M327.9731,183.6431 Q327.3921,183.9419 326.7529,184.0913 Q326.1138,184.2407 325.4082,184.2407 Q322.9014,184.2407 321.5815,182.5889 Q320.2617,180.937 320.2617,177.8159 Q320.2617,174.6865 321.5815,173.0347 Q322.9014,171.3828 325.4082,171.3828 Q326.1138,171.3828 326.7612,171.5322 Q327.4087,171.6816 327.9731,171.9805 L327.9731,174.7031 Q327.3423,174.1221 326.7488,173.8523 Q326.1553,173.5825 325.5244,173.5825 Q324.1797,173.5825 323.4949,174.6492 Q322.8101,175.7158 322.8101,177.8159 Q322.8101,179.9077 323.4949,180.9744 Q324.1797,182.041 325.5244,182.041 Q326.1553,182.041 326.7488,181.7712 Q327.3423,181.5015 327.9731,180.9204 Z "/><text fill="#000000" font-family="sans-serif" font-size="12" lengthAdjust="spacingAndGlyphs" textLength="131" x="339.5" y="182.0352">ConcreteImplementorB</text><line style="stroke: #A80036; stroke-width: 1.5;" x1="311.5" x2="472.5" y1="193.5" y2="193.5"/><line style="stroke: #A80036; stroke-width: 1.5;" x1="311.5" x2="472.5" y1="201.5" y2="201.5"/><ellipse cx="321.5" cy="212.5" fill="#84BE84" rx="3" ry="3" style="stroke: #038048; stroke-width: 1.0;"/><text fill="#000000" font-family="sans-serif" font-size="11" lengthAdjust="spacingAndGlyphs" textLength="106" x="330.5" y="216.1348">operationImp():void</text><!--link Client to Abstraction--><path d="M70.3,51.5 C80.04,51.5 89.77,51.5 99.51,51.5 " fill="none" id="Client-&gt;Abstraction" style="stroke: #A80036; stroke-width: 1.0;"/><polygon fill="#A80036" points="104.61,51.5,95.61,47.5,99.61,51.5,95.61,55.5,104.61,51.5" style="stroke: #A80036; stroke-width: 1.0;"/><!--reverse link Abstraction to RefinedAbstraction--><path d="M187.21,115.21 C185.74,128.76 184.24,142.64 182.93,154.76 " fill="none" id="Abstraction&lt;-RefinedAbstraction" style="stroke: #A80036; stroke-width: 1.0; stroke-dasharray: 7.0,7.0;"/><polygon fill="none" points="180.26,114.31,189.38,95.18,194.18,115.82,180.26,114.31" style="stroke: #A80036; stroke-width: 1.0;"/><!--reverse link Abstraction to Implementor--><path d="M296.52,51.5 C308.68,51.5 320.84,51.5 333,51.5 " fill="none" id="Abstraction&lt;-Implementor" style="stroke: #A80036; stroke-width: 1.0;"/><polygon fill="#FFFFFF" points="283.33,51.5,289.33,55.5,295.33,51.5,289.33,47.5,283.33,51.5" style="stroke: #A80036; stroke-width: 1.0;"/><!--reverse link Implementor to ConcreteImplementorA--><path d="M451.28,93.76 C482.5,115.48 520.07,141.63 548.38,161.34 " fill="none" id="Implementor&lt;-ConcreteImplementorA" style="stroke: #A80036; stroke-width: 1.0; stroke-dasharray: 7.0,7.0;"/><polygon fill="none" points="447.11,99.38,434.69,82.21,455.1,87.89,447.11,99.38" style="stroke: #A80036; stroke-width: 1.0;"/><!--reverse link Implementor to ConcreteImplementorB--><path d="M392,102.41 C392,122.16 392,144.19 392,161.34 " fill="none" id="Implementor&lt;-ConcreteImplementorB" style="stroke: #A80036; stroke-width: 1.0; stroke-dasharray: 7.0,7.0;"/><polygon fill="none" points="385,102.21,392,82.21,399,102.21,385,102.21" style="stroke: #A80036; stroke-width: 1.0;"/><!--
@startuml bridge
class Client
abstract Abstraction{
  - imp: Implementor
  constructor(imp: Implementor)
  {abstract} operation():void
}
class RefinedAbstraction{
  constructor(imp: Implementor)
  + operation():void
}
abstract Implementor{
  {abstract} operationImp():void
}
class ConcreteImplementorA{
  + operationImp():void
}
class ConcreteImplementorB{
  + operationImp():void
}

Client -> Abstraction
RefinedAbstraction .up.|> Abstraction
Abstraction o-right- Implementor
ConcreteImplementorA .up.|> Implementor
ConcreteImplementorB .up.|> Implementor
@enduml

PlantUML version 1.2019.09(Tue Aug 27 00:19:51 CST 2019)
(GPL source distribution)
Java Runtime: Java(TM) SE Runtime Environment
JVM: Java HotSpot(TM) 64-Bit Server VM
Java Version: 1.8.0_152-b16
Operating System: Mac OS X
OS Version: 10.14.4
Default Encoding: UTF-8
Language: zh
Country: CN
--></g></svg>