<?xml version="1.0" encoding="UTF-8" standalone="no"?><svg xmlns="http://www.w3.org/2000/svg" xmlns:xlink="http://www.w3.org/1999/xlink" contentScriptType="application/ecmascript" contentStyleType="text/css" height="200px" preserveAspectRatio="none" style="width:336px;height:200px;" version="1.1" viewBox="0 0 336 200" width="336px" zoomAndPan="magnify"><defs><filter height="300%" id="fln3io1wvtfjp" width="300%" x="-1" y="-1"><feGaussianBlur result="blurOut" stdDeviation="2.0"/><feColorMatrix in="blurOut" result="blurOut2" type="matrix" values="0 0 0 0 0 0 0 0 0 0 0 0 0 0 0 0 0 0 .4 0"/><feOffset dx="4.0" dy="4.0" in="blurOut2" result="blurOut3"/><feBlend in="SourceGraphic" in2="blurOut3" mode="normal"/></filter></defs><g><!--class Product--><rect fill="#FEFECE" filter="url(#fln3io1wvtfjp)" height="60.9551" id="Product" style="stroke: #A80036; stroke-width: 1.5;" width="76" x="31.5" y="8"/><ellipse cx="46.5" cy="24" fill="#A9DCDF" rx="11" ry="11" style="stroke: #A80036; stroke-width: 1.0;"/><path d="M46.6133,19.5981 L45.4595,24.6699 L47.7754,24.6699 Z M45.1191,17.3569 L48.1157,17.3569 L51.4609,29.75 L49.0122,29.75 L48.2485,26.687 L44.9697,26.687 L44.2227,29.75 L41.7739,29.75 Z "/><text fill="#000000" font-family="sans-serif" font-size="12" font-style="italic" lengthAdjust="spacingAndGlyphs" textLength="44" x="60.5" y="28.5352">Product</text><line style="stroke: #A80036; stroke-width: 1.5;" x1="32.5" x2="106.5" y1="40" y2="40"/><line style="stroke: #A80036; stroke-width: 1.5;" x1="32.5" x2="106.5" y1="48" y2="48"/><text fill="#000000" font-family="sans-serif" font-size="11" font-style="italic" lengthAdjust="spacingAndGlyphs" textLength="27" x="37.5" y="62.6348">use()</text><!--class ConcreteProduct--><rect fill="#FEFECE" filter="url(#fln3io1wvtfjp)" height="60.9551" id="ConcreteProduct" style="stroke: #A80036; stroke-width: 1.5;" width="127" x="6" y="129"/><ellipse cx="21" cy="145" fill="#ADD1B2" rx="11" ry="11" style="stroke: #A80036; stroke-width: 1.0;"/><path d="M23.4731,151.1431 Q22.8921,151.4419 22.2529,151.5913 Q21.6138,151.7407 20.9082,151.7407 Q18.4014,151.7407 17.0815,150.0889 Q15.7617,148.437 15.7617,145.3159 Q15.7617,142.1865 17.0815,140.5347 Q18.4014,138.8828 20.9082,138.8828 Q21.6138,138.8828 22.2612,139.0322 Q22.9087,139.1816 23.4731,139.4805 L23.4731,142.2031 Q22.8423,141.6221 22.2488,141.3523 Q21.6553,141.0825 21.0244,141.0825 Q19.6797,141.0825 18.9949,142.1492 Q18.3101,143.2158 18.3101,145.3159 Q18.3101,147.4077 18.9949,148.4744 Q19.6797,149.541 21.0244,149.541 Q21.6553,149.541 22.2488,149.2712 Q22.8423,149.0015 23.4731,148.4204 Z "/><text fill="#000000" font-family="sans-serif" font-size="12" lengthAdjust="spacingAndGlyphs" textLength="95" x="35" y="149.5352">ConcreteProduct</text><line style="stroke: #A80036; stroke-width: 1.5;" x1="7" x2="132" y1="161" y2="161"/><line style="stroke: #A80036; stroke-width: 1.5;" x1="7" x2="132" y1="169" y2="169"/><ellipse cx="17" cy="180" fill="#84BE84" rx="3" ry="3" style="stroke: #038048; stroke-width: 1.0;"/><text fill="#000000" font-family="sans-serif" font-size="11" lengthAdjust="spacingAndGlyphs" textLength="27" x="26" y="183.6348">use()</text><!--class Factory--><rect fill="#FEFECE" filter="url(#fln3io1wvtfjp)" height="60.9551" id="Factory" style="stroke: #A80036; stroke-width: 1.5;" width="143" x="175" y="8"/><ellipse cx="221.75" cy="24" fill="#A9DCDF" rx="11" ry="11" style="stroke: #A80036; stroke-width: 1.0;"/><path d="M221.8633,19.5981 L220.7095,24.6699 L223.0254,24.6699 Z M220.3691,17.3569 L223.3657,17.3569 L226.7109,29.75 L224.2622,29.75 L223.4985,26.687 L220.2197,26.687 L219.4727,29.75 L217.0239,29.75 Z "/><text fill="#000000" font-family="sans-serif" font-size="12" font-style="italic" lengthAdjust="spacingAndGlyphs" textLength="41" x="242.25" y="28.5352">Factory</text><line style="stroke: #A80036; stroke-width: 1.5;" x1="176" x2="317" y1="40" y2="40"/><line style="stroke: #A80036; stroke-width: 1.5;" x1="176" x2="317" y1="48" y2="48"/><text fill="#000000" font-family="sans-serif" font-size="11" font-style="italic" lengthAdjust="spacingAndGlyphs" textLength="131" x="181" y="62.6348">factoryMethod():Product</text><!--class ConcreteFactory--><rect fill="#FEFECE" filter="url(#fln3io1wvtfjp)" height="60.9551" id="ConcreteFactory" style="stroke: #A80036; stroke-width: 1.5;" width="157" x="168" y="129"/><ellipse cx="197.85" cy="145" fill="#ADD1B2" rx="11" ry="11" style="stroke: #A80036; stroke-width: 1.0;"/><path d="M200.3231,151.1431 Q199.7421,151.4419 199.1029,151.5913 Q198.4638,151.7407 197.7582,151.7407 Q195.2514,151.7407 193.9315,150.0889 Q192.6117,148.437 192.6117,145.3159 Q192.6117,142.1865 193.9315,140.5347 Q195.2514,138.8828 197.7582,138.8828 Q198.4638,138.8828 199.1112,139.0322 Q199.7587,139.1816 200.3231,139.4805 L200.3231,142.2031 Q199.6923,141.6221 199.0988,141.3523 Q198.5053,141.0825 197.8744,141.0825 Q196.5297,141.0825 195.8449,142.1492 Q195.1601,143.2158 195.1601,145.3159 Q195.1601,147.4077 195.8449,148.4744 Q196.5297,149.541 197.8744,149.541 Q198.5053,149.541 199.0988,149.2712 Q199.6923,149.0015 200.3231,148.4204 Z "/><text fill="#000000" font-family="sans-serif" font-size="12" lengthAdjust="spacingAndGlyphs" textLength="92" x="215.15" y="149.5352">ConcreteFactory</text><line style="stroke: #A80036; stroke-width: 1.5;" x1="169" x2="324" y1="161" y2="161"/><line style="stroke: #A80036; stroke-width: 1.5;" x1="169" x2="324" y1="169" y2="169"/><ellipse cx="179" cy="180" fill="#84BE84" rx="3" ry="3" style="stroke: #038048; stroke-width: 1.0;"/><text fill="#000000" font-family="sans-serif" font-size="11" lengthAdjust="spacingAndGlyphs" textLength="131" x="188" y="183.6348">factoryMethod():Product</text><!--reverse link Product to ConcreteProduct--><path d="M69.5,89.33 C69.5,102.73 69.5,116.81 69.5,128.74 " fill="none" id="Product&lt;-ConcreteProduct" style="stroke: #A80036; stroke-width: 1.0; stroke-dasharray: 7.0,7.0;"/><polygon fill="none" points="62.5,89.22,69.5,69.22,76.5,89.22,62.5,89.22" style="stroke: #A80036; stroke-width: 1.0;"/><!--reverse link Factory to ConcreteFactory--><path d="M246.5,89.33 C246.5,102.73 246.5,116.81 246.5,128.74 " fill="none" id="Factory&lt;-ConcreteFactory" style="stroke: #A80036; stroke-width: 1.0; stroke-dasharray: 7.0,7.0;"/><polygon fill="none" points="239.5,89.22,246.5,69.22,253.5,89.22,239.5,89.22" style="stroke: #A80036; stroke-width: 1.0;"/><!--reverse link ConcreteProduct to ConcreteFactory--><path d="M138.24,159.5 C148.04,159.5 157.85,159.5 167.66,159.5 " fill="none" id="ConcreteProduct&lt;-ConcreteFactory" style="stroke: #A80036; stroke-width: 1.0; stroke-dasharray: 7.0,7.0;"/><polygon fill="#A80036" points="133.11,159.5,142.11,163.5,138.11,159.5,142.11,155.5,133.11,159.5" style="stroke: #A80036; stroke-width: 1.0;"/><!--
@startuml factory method
abstract Product{
  {abstract} use()
}
class ConcreteProduct{
  +use()
}
abstract Factory{
  {abstract} factoryMethod():Product
}
class ConcreteFactory{
  + factoryMethod():Product
}

Product <|..ConcreteProduct
Factory <|.. ConcreteFactory
ConcreteProduct <.left. ConcreteFactory
@enduml

PlantUML version 1.2019.09(Tue Aug 27 00:19:51 CST 2019)
(GPL source distribution)
Java Runtime: Java(TM) SE Runtime Environment
JVM: Java HotSpot(TM) 64-Bit Server VM
Java Version: 1.8.0_152-b16
Operating System: Mac OS X
OS Version: 10.14.4
Default Encoding: UTF-8
Language: zh
Country: CN
--></g></svg>