<?xml version="1.0" encoding="UTF-8" standalone="no"?><svg xmlns="http://www.w3.org/2000/svg" xmlns:xlink="http://www.w3.org/1999/xlink" contentScriptType="application/ecmascript" contentStyleType="text/css" height="308px" preserveAspectRatio="none" style="width:369px;height:308px;" version="1.1" viewBox="0 0 369 308" width="369px" zoomAndPan="magnify"><defs><filter height="300%" id="f1u14oa0f1i4kd" width="300%" x="-1" y="-1"><feGaussianBlur result="blurOut" stdDeviation="2.0"/><feColorMatrix in="blurOut" result="blurOut2" type="matrix" values="0 0 0 0 0 0 0 0 0 0 0 0 0 0 0 0 0 0 .4 0"/><feOffset dx="4.0" dy="4.0" in="blurOut2" result="blurOut3"/><feBlend in="SourceGraphic" in2="blurOut3" mode="normal"/></filter></defs><g><!--class Client--><rect fill="#FEFECE" filter="url(#f1u14oa0f1i4kd)" height="48" id="Client" style="stroke: #A80036; stroke-width: 1.5;" width="64" x="150" y="8"/><ellipse cx="165" cy="24" fill="#ADD1B2" rx="11" ry="11" style="stroke: #A80036; stroke-width: 1.0;"/><path d="M167.4731,30.1431 Q166.8921,30.4419 166.2529,30.5913 Q165.6138,30.7407 164.9082,30.7407 Q162.4014,30.7407 161.0815,29.0889 Q159.7617,27.437 159.7617,24.3159 Q159.7617,21.1865 161.0815,19.5347 Q162.4014,17.8828 164.9082,17.8828 Q165.6138,17.8828 166.2612,18.0322 Q166.9087,18.1816 167.4731,18.4805 L167.4731,21.2031 Q166.8423,20.6221 166.2488,20.3523 Q165.6553,20.0825 165.0244,20.0825 Q163.6797,20.0825 162.9949,21.1492 Q162.3101,22.2158 162.3101,24.3159 Q162.3101,26.4077 162.9949,27.4744 Q163.6797,28.541 165.0244,28.541 Q165.6553,28.541 166.2488,28.2712 Q166.8423,28.0015 167.4731,27.4204 Z "/><text fill="#000000" font-family="sans-serif" font-size="12" lengthAdjust="spacingAndGlyphs" textLength="32" x="179" y="28.5352">Client</text><line style="stroke: #A80036; stroke-width: 1.5;" x1="151" x2="213" y1="40" y2="40"/><line style="stroke: #A80036; stroke-width: 1.5;" x1="151" x2="213" y1="48" y2="48"/><!--class Facade--><rect fill="#FEFECE" filter="url(#f1u14oa0f1i4kd)" height="60.9551" id="Facade" style="stroke: #A80036; stroke-width: 1.5;" width="114" x="125" y="116"/><ellipse cx="158.45" cy="132" fill="#ADD1B2" rx="11" ry="11" style="stroke: #A80036; stroke-width: 1.0;"/><path d="M160.9231,138.1431 Q160.3421,138.4419 159.7029,138.5913 Q159.0638,138.7407 158.3582,138.7407 Q155.8514,138.7407 154.5315,137.0889 Q153.2117,135.437 153.2117,132.3159 Q153.2117,129.1865 154.5315,127.5347 Q155.8514,125.8828 158.3582,125.8828 Q159.0638,125.8828 159.7112,126.0322 Q160.3587,126.1816 160.9231,126.4805 L160.9231,129.2031 Q160.2923,128.6221 159.6988,128.3523 Q159.1053,128.0825 158.4744,128.0825 Q157.1297,128.0825 156.4449,129.1492 Q155.7601,130.2158 155.7601,132.3159 Q155.7601,134.4077 156.4449,135.4744 Q157.1297,136.541 158.4744,136.541 Q159.1053,136.541 159.6988,136.2712 Q160.2923,136.0015 160.9231,135.4204 Z "/><text fill="#000000" font-family="sans-serif" font-size="12" lengthAdjust="spacingAndGlyphs" textLength="41" x="176.55" y="136.5352">Facade</text><line style="stroke: #A80036; stroke-width: 1.5;" x1="126" x2="238" y1="148" y2="148"/><line style="stroke: #A80036; stroke-width: 1.5;" x1="126" x2="238" y1="156" y2="156"/><ellipse cx="136" cy="167" fill="#84BE84" rx="3" ry="3" style="stroke: #038048; stroke-width: 1.0;"/><text fill="#000000" font-family="sans-serif" font-size="11" lengthAdjust="spacingAndGlyphs" textLength="88" x="145" y="170.6348">wrapOperation()</text><!--class SystemA--><rect fill="#FEFECE" filter="url(#f1u14oa0f1i4kd)" height="60.9551" id="SystemA" style="stroke: #A80036; stroke-width: 1.5;" width="94" x="6" y="237"/><ellipse cx="27.3" cy="253" fill="#ADD1B2" rx="11" ry="11" style="stroke: #A80036; stroke-width: 1.0;"/><path d="M29.7731,259.1431 Q29.1921,259.4419 28.5529,259.5913 Q27.9138,259.7407 27.2082,259.7407 Q24.7014,259.7407 23.3815,258.0889 Q22.0617,256.437 22.0617,253.3159 Q22.0617,250.1865 23.3815,248.5347 Q24.7014,246.8828 27.2082,246.8828 Q27.9138,246.8828 28.5612,247.0322 Q29.2087,247.1816 29.7731,247.4805 L29.7731,250.2031 Q29.1423,249.6221 28.5488,249.3523 Q27.9553,249.0825 27.3244,249.0825 Q25.9797,249.0825 25.2949,250.1492 Q24.6101,251.2158 24.6101,253.3159 Q24.6101,255.4077 25.2949,256.4744 Q25.9797,257.541 27.3244,257.541 Q27.9553,257.541 28.5488,257.2712 Q29.1423,257.0015 29.7731,256.4204 Z "/><text fill="#000000" font-family="sans-serif" font-size="12" lengthAdjust="spacingAndGlyphs" textLength="48" x="42.7" y="257.5352">SystemA</text><line style="stroke: #A80036; stroke-width: 1.5;" x1="7" x2="99" y1="269" y2="269"/><line style="stroke: #A80036; stroke-width: 1.5;" x1="7" x2="99" y1="277" y2="277"/><ellipse cx="17" cy="288" fill="#84BE84" rx="3" ry="3" style="stroke: #038048; stroke-width: 1.0;"/><text fill="#000000" font-family="sans-serif" font-size="11" lengthAdjust="spacingAndGlyphs" textLength="68" x="26" y="291.6348">operationA()</text><!--class SystemB--><rect fill="#FEFECE" filter="url(#f1u14oa0f1i4kd)" height="60.9551" id="SystemB" style="stroke: #A80036; stroke-width: 1.5;" width="94" x="135" y="237"/><ellipse cx="156.75" cy="253" fill="#ADD1B2" rx="11" ry="11" style="stroke: #A80036; stroke-width: 1.0;"/><path d="M159.2231,259.1431 Q158.6421,259.4419 158.0029,259.5913 Q157.3638,259.7407 156.6582,259.7407 Q154.1514,259.7407 152.8315,258.0889 Q151.5117,256.437 151.5117,253.3159 Q151.5117,250.1865 152.8315,248.5347 Q154.1514,246.8828 156.6582,246.8828 Q157.3638,246.8828 158.0112,247.0322 Q158.6587,247.1816 159.2231,247.4805 L159.2231,250.2031 Q158.5923,249.6221 157.9988,249.3523 Q157.4053,249.0825 156.7744,249.0825 Q155.4297,249.0825 154.7449,250.1492 Q154.0601,251.2158 154.0601,253.3159 Q154.0601,255.4077 154.7449,256.4744 Q155.4297,257.541 156.7744,257.541 Q157.4053,257.541 157.9988,257.2712 Q158.5923,257.0015 159.2231,256.4204 Z "/><text fill="#000000" font-family="sans-serif" font-size="12" lengthAdjust="spacingAndGlyphs" textLength="47" x="172.25" y="257.5352">SystemB</text><line style="stroke: #A80036; stroke-width: 1.5;" x1="136" x2="228" y1="269" y2="269"/><line style="stroke: #A80036; stroke-width: 1.5;" x1="136" x2="228" y1="277" y2="277"/><ellipse cx="146" cy="288" fill="#84BE84" rx="3" ry="3" style="stroke: #038048; stroke-width: 1.0;"/><text fill="#000000" font-family="sans-serif" font-size="11" lengthAdjust="spacingAndGlyphs" textLength="68" x="155" y="291.6348">operationA()</text><!--class SystemC--><rect fill="#FEFECE" filter="url(#f1u14oa0f1i4kd)" height="60.9551" id="SystemC" style="stroke: #A80036; stroke-width: 1.5;" width="94" x="264" y="237"/><ellipse cx="285.3" cy="253" fill="#ADD1B2" rx="11" ry="11" style="stroke: #A80036; stroke-width: 1.0;"/><path d="M287.7731,259.1431 Q287.1921,259.4419 286.5529,259.5913 Q285.9138,259.7407 285.2082,259.7407 Q282.7014,259.7407 281.3815,258.0889 Q280.0617,256.437 280.0617,253.3159 Q280.0617,250.1865 281.3815,248.5347 Q282.7014,246.8828 285.2082,246.8828 Q285.9138,246.8828 286.5612,247.0322 Q287.2087,247.1816 287.7731,247.4805 L287.7731,250.2031 Q287.1423,249.6221 286.5488,249.3523 Q285.9553,249.0825 285.3244,249.0825 Q283.9797,249.0825 283.2949,250.1492 Q282.6101,251.2158 282.6101,253.3159 Q282.6101,255.4077 283.2949,256.4744 Q283.9797,257.541 285.3244,257.541 Q285.9553,257.541 286.5488,257.2712 Q287.1423,257.0015 287.7731,256.4204 Z "/><text fill="#000000" font-family="sans-serif" font-size="12" lengthAdjust="spacingAndGlyphs" textLength="48" x="300.7" y="257.5352">SystemC</text><line style="stroke: #A80036; stroke-width: 1.5;" x1="265" x2="357" y1="269" y2="269"/><line style="stroke: #A80036; stroke-width: 1.5;" x1="265" x2="357" y1="277" y2="277"/><ellipse cx="275" cy="288" fill="#84BE84" rx="3" ry="3" style="stroke: #038048; stroke-width: 1.0;"/><text fill="#000000" font-family="sans-serif" font-size="11" lengthAdjust="spacingAndGlyphs" textLength="68" x="284" y="291.6348">operationA()</text><!--link Client to Facade--><path d="M182,56.04 C182,71.65 182,92.58 182,110.27 " fill="none" id="Client-&gt;Facade" style="stroke: #A80036; stroke-width: 1.0; stroke-dasharray: 7.0,7.0;"/><polygon fill="#A80036" points="182,115.65,186,106.65,182,110.65,178,106.65,182,115.65" style="stroke: #A80036; stroke-width: 1.0;"/><!--link Facade to SystemA--><path d="M149.78,177.22 C131.31,194.26 108.08,215.69 89.01,233.28 " fill="none" id="Facade-&gt;SystemA" style="stroke: #A80036; stroke-width: 1.0;"/><polygon fill="#A80036" points="85.26,236.74,94.5812,233.5596,88.9285,233.3427,89.1455,227.69,85.26,236.74" style="stroke: #A80036; stroke-width: 1.0;"/><!--link Facade to SystemB--><path d="M182,177.22 C182,193.69 182,214.26 182,231.51 " fill="none" id="Facade-&gt;SystemB" style="stroke: #A80036; stroke-width: 1.0;"/><polygon fill="#A80036" points="182,236.74,186,227.74,182,231.74,178,227.74,182,236.74" style="stroke: #A80036; stroke-width: 1.0;"/><!--link Facade to SystemC--><path d="M214.22,177.22 C232.69,194.26 255.92,215.69 274.99,233.28 " fill="none" id="Facade-&gt;SystemC" style="stroke: #A80036; stroke-width: 1.0;"/><polygon fill="#A80036" points="278.74,236.74,274.8545,227.69,275.0715,233.3427,269.4188,233.5596,278.74,236.74" style="stroke: #A80036; stroke-width: 1.0;"/><!--
@startuml facade
class Client
class Facade{
  + wrapOperation()
}
class SystemA{
  + operationA()
}
class SystemB{
  + operationA()
}
class SystemC{
  + operationA()
}

Client ..> Facade
Facade - -> SystemA
Facade - -> SystemB
Facade - -> SystemC
@enduml

PlantUML version 1.2019.09(Tue Aug 27 00:19:51 CST 2019)
(GPL source distribution)
Java Runtime: Java(TM) SE Runtime Environment
JVM: Java HotSpot(TM) 64-Bit Server VM
Java Version: 1.8.0_152-b16
Operating System: Mac OS X
OS Version: 10.14.4
Default Encoding: UTF-8
Language: zh
Country: CN
--></g></svg>