<?xml version="1.0" encoding="UTF-8" standalone="no"?><svg xmlns="http://www.w3.org/2000/svg" xmlns:xlink="http://www.w3.org/1999/xlink" contentScriptType="application/ecmascript" contentStyleType="text/css" height="200px" preserveAspectRatio="none" style="width:433px;height:200px;" version="1.1" viewBox="0 0 433 200" width="433px" zoomAndPan="magnify"><defs><filter height="300%" id="fx8bfd0s6lv1y" width="300%" x="-1" y="-1"><feGaussianBlur result="blurOut" stdDeviation="2.0"/><feColorMatrix in="blurOut" result="blurOut2" type="matrix" values="0 0 0 0 0 0 0 0 0 0 0 0 0 0 0 0 0 0 .4 0"/><feOffset dx="4.0" dy="4.0" in="blurOut2" result="blurOut3"/><feBlend in="SourceGraphic" in2="blurOut3" mode="normal"/></filter></defs><g><!--class Invoker--><rect fill="#FEFECE" filter="url(#fx8bfd0s6lv1y)" height="60.9551" id="Invoker" style="stroke: #A80036; stroke-width: 1.5;" width="74" x="348" y="8"/><ellipse cx="363" cy="24" fill="#ADD1B2" rx="11" ry="11" style="stroke: #A80036; stroke-width: 1.0;"/><path d="M365.4731,30.1431 Q364.8921,30.4419 364.2529,30.5913 Q363.6138,30.7407 362.9082,30.7407 Q360.4014,30.7407 359.0815,29.0889 Q357.7617,27.437 357.7617,24.3159 Q357.7617,21.1865 359.0815,19.5347 Q360.4014,17.8828 362.9082,17.8828 Q363.6138,17.8828 364.2612,18.0322 Q364.9087,18.1816 365.4731,18.4805 L365.4731,21.2031 Q364.8423,20.6221 364.2488,20.3523 Q363.6553,20.0825 363.0244,20.0825 Q361.6797,20.0825 360.9949,21.1492 Q360.3101,22.2158 360.3101,24.3159 Q360.3101,26.4077 360.9949,27.4744 Q361.6797,28.541 363.0244,28.541 Q363.6553,28.541 364.2488,28.2712 Q364.8423,28.0015 365.4731,27.4204 Z "/><text fill="#000000" font-family="sans-serif" font-size="12" lengthAdjust="spacingAndGlyphs" textLength="42" x="377" y="28.5352">Invoker</text><line style="stroke: #A80036; stroke-width: 1.5;" x1="349" x2="421" y1="40" y2="40"/><line style="stroke: #A80036; stroke-width: 1.5;" x1="349" x2="421" y1="48" y2="48"/><ellipse cx="359" cy="59" fill="#84BE84" rx="3" ry="3" style="stroke: #038048; stroke-width: 1.0;"/><text fill="#000000" font-family="sans-serif" font-size="11" lengthAdjust="spacingAndGlyphs" textLength="26" x="368" y="62.6348">call()</text><!--class Command--><rect fill="#FEFECE" filter="url(#fx8bfd0s6lv1y)" height="60.9551" id="Command" style="stroke: #A80036; stroke-width: 1.5;" width="91" x="221.5" y="8"/><ellipse cx="236.5" cy="24" fill="#A9DCDF" rx="11" ry="11" style="stroke: #A80036; stroke-width: 1.0;"/><path d="M236.6133,19.5981 L235.4595,24.6699 L237.7754,24.6699 Z M235.1191,17.3569 L238.1157,17.3569 L241.4609,29.75 L239.0122,29.75 L238.2485,26.687 L234.9697,26.687 L234.2227,29.75 L231.7739,29.75 Z "/><text fill="#000000" font-family="sans-serif" font-size="12" font-style="italic" lengthAdjust="spacingAndGlyphs" textLength="59" x="250.5" y="28.5352">Command</text><line style="stroke: #A80036; stroke-width: 1.5;" x1="222.5" x2="311.5" y1="40" y2="40"/><line style="stroke: #A80036; stroke-width: 1.5;" x1="222.5" x2="311.5" y1="48" y2="48"/><text fill="#000000" font-family="sans-serif" font-size="11" font-style="italic" lengthAdjust="spacingAndGlyphs" textLength="50" x="227.5" y="62.6348">execute()</text><!--class ConcreteCommand--><rect fill="#FEFECE" filter="url(#fx8bfd0s6lv1y)" height="60.9551" id="ConcreteCommand" style="stroke: #A80036; stroke-width: 1.5;" width="142" x="81" y="129"/><ellipse cx="96" cy="145" fill="#ADD1B2" rx="11" ry="11" style="stroke: #A80036; stroke-width: 1.0;"/><path d="M98.4731,151.1431 Q97.8921,151.4419 97.2529,151.5913 Q96.6138,151.7407 95.9082,151.7407 Q93.4014,151.7407 92.0815,150.0889 Q90.7617,148.437 90.7617,145.3159 Q90.7617,142.1865 92.0815,140.5347 Q93.4014,138.8828 95.9082,138.8828 Q96.6138,138.8828 97.2612,139.0322 Q97.9087,139.1816 98.4731,139.4805 L98.4731,142.2031 Q97.8423,141.6221 97.2488,141.3523 Q96.6553,141.0825 96.0244,141.0825 Q94.6797,141.0825 93.9949,142.1492 Q93.3101,143.2158 93.3101,145.3159 Q93.3101,147.4077 93.9949,148.4744 Q94.6797,149.541 96.0244,149.541 Q96.6553,149.541 97.2488,149.2712 Q97.8423,149.0015 98.4731,148.4204 Z "/><text fill="#000000" font-family="sans-serif" font-size="12" lengthAdjust="spacingAndGlyphs" textLength="110" x="110" y="149.5352">ConcreteCommand</text><line style="stroke: #A80036; stroke-width: 1.5;" x1="82" x2="222" y1="161" y2="161"/><line style="stroke: #A80036; stroke-width: 1.5;" x1="82" x2="222" y1="169" y2="169"/><ellipse cx="92" cy="180" fill="#84BE84" rx="3" ry="3" style="stroke: #038048; stroke-width: 1.0;"/><text fill="#000000" font-family="sans-serif" font-size="11" lengthAdjust="spacingAndGlyphs" textLength="50" x="101" y="183.6348">execute()</text><!--class Receiver--><rect fill="#FEFECE" filter="url(#fx8bfd0s6lv1y)" height="60.9551" id="Receiver" style="stroke: #A80036; stroke-width: 1.5;" width="81" x="105.5" y="8"/><ellipse cx="120.5" cy="24" fill="#ADD1B2" rx="11" ry="11" style="stroke: #A80036; stroke-width: 1.0;"/><path d="M122.9731,30.1431 Q122.3921,30.4419 121.7529,30.5913 Q121.1138,30.7407 120.4082,30.7407 Q117.9014,30.7407 116.5815,29.0889 Q115.2617,27.437 115.2617,24.3159 Q115.2617,21.1865 116.5815,19.5347 Q117.9014,17.8828 120.4082,17.8828 Q121.1138,17.8828 121.7612,18.0322 Q122.4087,18.1816 122.9731,18.4805 L122.9731,21.2031 Q122.3423,20.6221 121.7488,20.3523 Q121.1553,20.0825 120.5244,20.0825 Q119.1797,20.0825 118.4949,21.1492 Q117.8101,22.2158 117.8101,24.3159 Q117.8101,26.4077 118.4949,27.4744 Q119.1797,28.541 120.5244,28.541 Q121.1553,28.541 121.7488,28.2712 Q122.3423,28.0015 122.9731,27.4204 Z "/><text fill="#000000" font-family="sans-serif" font-size="12" lengthAdjust="spacingAndGlyphs" textLength="49" x="134.5" y="28.5352">Receiver</text><line style="stroke: #A80036; stroke-width: 1.5;" x1="106.5" x2="185.5" y1="40" y2="40"/><line style="stroke: #A80036; stroke-width: 1.5;" x1="106.5" x2="185.5" y1="48" y2="48"/><ellipse cx="116.5" cy="59" fill="#84BE84" rx="3" ry="3" style="stroke: #038048; stroke-width: 1.0;"/><text fill="#000000" font-family="sans-serif" font-size="11" lengthAdjust="spacingAndGlyphs" textLength="41" x="125.5" y="62.6348">action()</text><!--class Client--><rect fill="#FEFECE" filter="url(#fx8bfd0s6lv1y)" height="48" id="Client" style="stroke: #A80036; stroke-width: 1.5;" width="64" x="6" y="14.5"/><ellipse cx="21" cy="30.5" fill="#ADD1B2" rx="11" ry="11" style="stroke: #A80036; stroke-width: 1.0;"/><path d="M23.4731,36.6431 Q22.8921,36.9419 22.2529,37.0913 Q21.6138,37.2407 20.9082,37.2407 Q18.4014,37.2407 17.0815,35.5889 Q15.7617,33.937 15.7617,30.8159 Q15.7617,27.6865 17.0815,26.0347 Q18.4014,24.3828 20.9082,24.3828 Q21.6138,24.3828 22.2612,24.5322 Q22.9087,24.6816 23.4731,24.9805 L23.4731,27.7031 Q22.8423,27.1221 22.2488,26.8523 Q21.6553,26.5825 21.0244,26.5825 Q19.6797,26.5825 18.9949,27.6492 Q18.3101,28.7158 18.3101,30.8159 Q18.3101,32.9077 18.9949,33.9744 Q19.6797,35.041 21.0244,35.041 Q21.6553,35.041 22.2488,34.7712 Q22.8423,34.5015 23.4731,33.9204 Z "/><text fill="#000000" font-family="sans-serif" font-size="12" lengthAdjust="spacingAndGlyphs" textLength="32" x="35" y="35.0352">Client</text><line style="stroke: #A80036; stroke-width: 1.5;" x1="7" x2="69" y1="46.5" y2="46.5"/><line style="stroke: #A80036; stroke-width: 1.5;" x1="7" x2="69" y1="54.5" y2="54.5"/><!--link Client to Receiver--><path d="M70.06,38.5 C80.08,38.5 90.1,38.5 100.12,38.5 " fill="none" id="Client-&gt;Receiver" style="stroke: #A80036; stroke-width: 1.0;"/><polygon fill="#A80036" points="105.36,38.5,96.36,34.5,100.36,38.5,96.36,42.5,105.36,38.5" style="stroke: #A80036; stroke-width: 1.0;"/><!--link Client to ConcreteCommand--><path d="M60.25,62.73 C77.26,80.48 100.95,105.21 119.99,125.09 " fill="none" id="Client-&gt;ConcreteCommand" style="stroke: #A80036; stroke-width: 1.0; stroke-dasharray: 7.0,7.0;"/><polygon fill="#A80036" points="123.73,128.99,120.3996,119.7213,120.2739,125.3768,114.6184,125.2511,123.73,128.99" style="stroke: #A80036; stroke-width: 1.0;"/><!--link Command to Invoker--><path d="M312.63,38.5 C319.99,38.5 327.36,38.5 334.72,38.5 " fill="none" id="Command-&gt;Invoker" style="stroke: #A80036; stroke-width: 1.0;"/><polygon fill="#FFFFFF" points="347.97,38.5,341.97,34.5,335.97,38.5,341.97,42.5,347.97,38.5" style="stroke: #A80036; stroke-width: 1.0;"/><!--reverse link Command to ConcreteCommand--><path d="M224.35,83.63 C209.82,98.67 193.93,115.11 180.76,128.74 " fill="none" id="Command&lt;-ConcreteCommand" style="stroke: #A80036; stroke-width: 1.0;"/><polygon fill="none" points="219.35,78.74,238.28,69.22,229.41,88.47,219.35,78.74" style="stroke: #A80036; stroke-width: 1.0;"/><!--reverse link Receiver to Command--><path d="M191.82,38.5 C201.71,38.5 211.6,38.5 221.49,38.5 " fill="none" id="Receiver&lt;-Command" style="stroke: #A80036; stroke-width: 1.0;"/><polygon fill="#A80036" points="186.65,38.5,195.65,42.5,191.65,38.5,195.65,34.5,186.65,38.5" style="stroke: #A80036; stroke-width: 1.0;"/><!--
@startuml command

class Invoker{
  + call()
}
abstract Command{
  {abstract} execute()
}
class ConcreteCommand{
  + execute()
}
class Receiver{
  + action()
}
class Client

Client -right-> Receiver
Client ..> ConcreteCommand
Invoker o-left- Command
ConcreteCommand -up-|> Command
Command -left-> Receiver
@enduml

PlantUML version 1.2019.09(Tue Aug 27 00:19:51 CST 2019)
(GPL source distribution)
Java Runtime: Java(TM) SE Runtime Environment
JVM: Java HotSpot(TM) 64-Bit Server VM
Java Version: 1.8.0_152-b16
Operating System: Mac OS X
OS Version: 10.14.4
Default Encoding: UTF-8
Language: zh
Country: CN
--></g></svg>