<?xml version="1.0" encoding="UTF-8" standalone="no"?><svg xmlns="http://www.w3.org/2000/svg" xmlns:xlink="http://www.w3.org/1999/xlink" contentScriptType="application/ecmascript" contentStyleType="text/css" height="352px" preserveAspectRatio="none" style="width:410px;height:352px;" version="1.1" viewBox="0 0 410 352" width="410px" zoomAndPan="magnify"><defs><filter height="300%" id="fh9si4m7l8yft" width="300%" x="-1" y="-1"><feGaussianBlur result="blurOut" stdDeviation="2.0"/><feColorMatrix in="blurOut" result="blurOut2" type="matrix" values="0 0 0 0 0 0 0 0 0 0 0 0 0 0 0 0 0 0 .4 0"/><feOffset dx="4.0" dy="4.0" in="blurOut2" result="blurOut3"/><feBlend in="SourceGraphic" in2="blurOut3" mode="normal"/></filter></defs><g><!--class Component--><rect fill="#FEFECE" filter="url(#fh9si4m7l8yft)" height="60.9551" id="Component" style="stroke: #A80036; stroke-width: 1.5;" width="98" x="180" y="8"/><ellipse cx="195" cy="24" fill="#A9DCDF" rx="11" ry="11" style="stroke: #A80036; stroke-width: 1.0;"/><path d="M195.1133,19.5981 L193.9595,24.6699 L196.2754,24.6699 Z M193.6191,17.3569 L196.6157,17.3569 L199.9609,29.75 L197.5122,29.75 L196.7485,26.687 L193.4697,26.687 L192.7227,29.75 L190.2739,29.75 Z "/><text fill="#000000" font-family="sans-serif" font-size="12" font-style="italic" lengthAdjust="spacingAndGlyphs" textLength="66" x="209" y="28.5352">Component</text><line style="stroke: #A80036; stroke-width: 1.5;" x1="181" x2="277" y1="40" y2="40"/><line style="stroke: #A80036; stroke-width: 1.5;" x1="181" x2="277" y1="48" y2="48"/><text fill="#000000" font-family="sans-serif" font-size="11" font-style="italic" lengthAdjust="spacingAndGlyphs" textLength="60" x="186" y="62.6348">operation()</text><!--class ConcreteComponent--><rect fill="#FEFECE" filter="url(#fh9si4m7l8yft)" height="60.9551" id="ConcreteComponent" style="stroke: #A80036; stroke-width: 1.5;" width="149" x="250.5" y="146"/><ellipse cx="265.5" cy="162" fill="#ADD1B2" rx="11" ry="11" style="stroke: #A80036; stroke-width: 1.0;"/><path d="M267.9731,168.1431 Q267.3921,168.4419 266.7529,168.5913 Q266.1138,168.7407 265.4082,168.7407 Q262.9014,168.7407 261.5815,167.0889 Q260.2617,165.437 260.2617,162.3159 Q260.2617,159.1865 261.5815,157.5347 Q262.9014,155.8828 265.4082,155.8828 Q266.1138,155.8828 266.7612,156.0322 Q267.4087,156.1816 267.9731,156.4805 L267.9731,159.2031 Q267.3423,158.6221 266.7488,158.3523 Q266.1553,158.0825 265.5244,158.0825 Q264.1797,158.0825 263.4949,159.1492 Q262.8101,160.2158 262.8101,162.3159 Q262.8101,164.4077 263.4949,165.4744 Q264.1797,166.541 265.5244,166.541 Q266.1553,166.541 266.7488,166.2712 Q267.3423,166.0015 267.9731,165.4204 Z "/><text fill="#000000" font-family="sans-serif" font-size="12" lengthAdjust="spacingAndGlyphs" textLength="117" x="279.5" y="166.5352">ConcreteComponent</text><line style="stroke: #A80036; stroke-width: 1.5;" x1="251.5" x2="398.5" y1="178" y2="178"/><line style="stroke: #A80036; stroke-width: 1.5;" x1="251.5" x2="398.5" y1="186" y2="186"/><ellipse cx="261.5" cy="197" fill="#84BE84" rx="3" ry="3" style="stroke: #038048; stroke-width: 1.0;"/><text fill="#000000" font-family="sans-serif" font-size="11" lengthAdjust="spacingAndGlyphs" textLength="60" x="270.5" y="200.6348">operation()</text><!--class Decorator--><rect fill="#FEFECE" filter="url(#fh9si4m7l8yft)" height="60.9551" id="Decorator" style="stroke: #A80036; stroke-width: 1.5;" width="89" x="126.5" y="146"/><ellipse cx="141.5" cy="162" fill="#A9DCDF" rx="11" ry="11" style="stroke: #A80036; stroke-width: 1.0;"/><path d="M141.6133,157.5981 L140.4595,162.6699 L142.7754,162.6699 Z M140.1191,155.3569 L143.1157,155.3569 L146.4609,167.75 L144.0122,167.75 L143.2485,164.687 L139.9697,164.687 L139.2227,167.75 L136.7739,167.75 Z "/><text fill="#000000" font-family="sans-serif" font-size="12" font-style="italic" lengthAdjust="spacingAndGlyphs" textLength="57" x="155.5" y="166.5352">Decorator</text><line style="stroke: #A80036; stroke-width: 1.5;" x1="127.5" x2="214.5" y1="178" y2="178"/><line style="stroke: #A80036; stroke-width: 1.5;" x1="127.5" x2="214.5" y1="186" y2="186"/><text fill="#000000" font-family="sans-serif" font-size="11" font-style="italic" lengthAdjust="spacingAndGlyphs" textLength="60" x="132.5" y="200.6348">operation()</text><!--class ConcreteDecoratorA--><rect fill="#FEFECE" filter="url(#fh9si4m7l8yft)" height="73.9102" id="ConcreteDecoratorA" style="stroke: #A80036; stroke-width: 1.5;" width="148" x="6" y="268"/><ellipse cx="21" cy="284" fill="#ADD1B2" rx="11" ry="11" style="stroke: #A80036; stroke-width: 1.0;"/><path d="M23.4731,290.1431 Q22.8921,290.4419 22.2529,290.5913 Q21.6138,290.7407 20.9082,290.7407 Q18.4014,290.7407 17.0815,289.0889 Q15.7617,287.437 15.7617,284.3159 Q15.7617,281.1865 17.0815,279.5347 Q18.4014,277.8828 20.9082,277.8828 Q21.6138,277.8828 22.2612,278.0322 Q22.9087,278.1816 23.4731,278.4805 L23.4731,281.2031 Q22.8423,280.6221 22.2488,280.3523 Q21.6553,280.0825 21.0244,280.0825 Q19.6797,280.0825 18.9949,281.1492 Q18.3101,282.2158 18.3101,284.3159 Q18.3101,286.4077 18.9949,287.4744 Q19.6797,288.541 21.0244,288.541 Q21.6553,288.541 22.2488,288.2712 Q22.8423,288.0015 23.4731,287.4204 Z "/><text fill="#000000" font-family="sans-serif" font-size="12" lengthAdjust="spacingAndGlyphs" textLength="116" x="35" y="288.5352">ConcreteDecoratorA</text><line style="stroke: #A80036; stroke-width: 1.5;" x1="7" x2="153" y1="300" y2="300"/><ellipse cx="17" cy="311" fill="none" rx="3" ry="3" style="stroke: #038048; stroke-width: 1.0;"/><text fill="#000000" font-family="sans-serif" font-size="11" lengthAdjust="spacingAndGlyphs" textLength="59" x="26" y="314.6348">addedState</text><line style="stroke: #A80036; stroke-width: 1.5;" x1="7" x2="153" y1="320.9551" y2="320.9551"/><ellipse cx="17" cy="331.9551" fill="#84BE84" rx="3" ry="3" style="stroke: #038048; stroke-width: 1.0;"/><text fill="#000000" font-family="sans-serif" font-size="11" lengthAdjust="spacingAndGlyphs" textLength="60" x="26" y="335.5898">operation()</text><!--class ConcreteDecoratorB--><rect fill="#FEFECE" filter="url(#fh9si4m7l8yft)" height="73.9102" id="ConcreteDecoratorB" style="stroke: #A80036; stroke-width: 1.5;" width="147" x="189.5" y="268"/><ellipse cx="204.5" cy="284" fill="#ADD1B2" rx="11" ry="11" style="stroke: #A80036; stroke-width: 1.0;"/><path d="M206.9731,290.1431 Q206.3921,290.4419 205.7529,290.5913 Q205.1138,290.7407 204.4082,290.7407 Q201.9014,290.7407 200.5815,289.0889 Q199.2617,287.437 199.2617,284.3159 Q199.2617,281.1865 200.5815,279.5347 Q201.9014,277.8828 204.4082,277.8828 Q205.1138,277.8828 205.7612,278.0322 Q206.4087,278.1816 206.9731,278.4805 L206.9731,281.2031 Q206.3423,280.6221 205.7488,280.3523 Q205.1553,280.0825 204.5244,280.0825 Q203.1797,280.0825 202.4949,281.1492 Q201.8101,282.2158 201.8101,284.3159 Q201.8101,286.4077 202.4949,287.4744 Q203.1797,288.541 204.5244,288.541 Q205.1553,288.541 205.7488,288.2712 Q206.3423,288.0015 206.9731,287.4204 Z "/><text fill="#000000" font-family="sans-serif" font-size="12" lengthAdjust="spacingAndGlyphs" textLength="115" x="218.5" y="288.5352">ConcreteDecoratorB</text><line style="stroke: #A80036; stroke-width: 1.5;" x1="190.5" x2="335.5" y1="300" y2="300"/><line style="stroke: #A80036; stroke-width: 1.5;" x1="190.5" x2="335.5" y1="308" y2="308"/><ellipse cx="200.5" cy="319" fill="#84BE84" rx="3" ry="3" style="stroke: #038048; stroke-width: 1.0;"/><text fill="#000000" font-family="sans-serif" font-size="11" lengthAdjust="spacingAndGlyphs" textLength="60" x="209.5" y="322.6348">operation()</text><ellipse cx="200.5" cy="331.9551" fill="#84BE84" rx="3" ry="3" style="stroke: #038048; stroke-width: 1.0;"/><text fill="#000000" font-family="sans-serif" font-size="11" lengthAdjust="spacingAndGlyphs" textLength="87" x="209.5" y="335.5898">addedBehavior()</text><!--reverse link Component to ConcreteComponent--><path d="M272.41,84.1 C276.5,88.99 280.44,94.01 284,99 C294.4,113.6 304,131.16 311.28,145.77 " fill="none" id="Component&lt;-ConcreteComponent" style="stroke: #A80036; stroke-width: 1.0;"/><polygon fill="none" points="267.15,88.71,259.12,69.1,277.62,79.43,267.15,88.71" style="stroke: #A80036; stroke-width: 1.0;"/><!--reverse link Component to Decorator--><path d="M198.96,86.65 C196.81,90.76 194.79,94.91 193,99 C186.47,113.94 181.28,131.36 177.59,145.8 " fill="none" id="Component&lt;-Decorator" style="stroke: #A80036; stroke-width: 1.0;"/><polygon fill="none" points="192.9,83.15,208.9,69.24,205.06,90.08,192.9,83.15" style="stroke: #A80036; stroke-width: 1.0;"/><!--link Component to Decorator--><path d="M216.41,69.01 C208.38,87.86 197.83,112.59 188.92,133.48 " fill="none" id="Component-&gt;Decorator" style="stroke: #A80036; stroke-width: 1.0;"/><polygon fill="#FFFFFF" points="183.76,145.58,189.7893,141.6243,188.4568,134.5373,182.4275,138.4931,183.76,145.58" style="stroke: #A80036; stroke-width: 1.0;"/><text fill="#000000" font-family="sans-serif" font-size="13" lengthAdjust="spacingAndGlyphs" textLength="71" x="204" y="112.5684">component</text><!--reverse link Decorator to ConcreteDecoratorA--><path d="M137.94,223.46 C127.45,238.04 116,253.96 106.07,267.76 " fill="none" id="Decorator&lt;-ConcreteDecoratorA" style="stroke: #A80036; stroke-width: 1.0; stroke-dasharray: 7.0,7.0;"/><polygon fill="none" points="132.3,219.31,149.66,207.16,143.67,227.48,132.3,219.31" style="stroke: #A80036; stroke-width: 1.0;"/><!--reverse link Decorator to ConcreteDecoratorB--><path d="M204.43,223.46 C215.03,238.04 226.6,253.96 236.64,267.76 " fill="none" id="Decorator&lt;-ConcreteDecoratorB" style="stroke: #A80036; stroke-width: 1.0; stroke-dasharray: 7.0,7.0;"/><polygon fill="none" points="198.67,227.45,192.57,207.16,209.99,219.22,198.67,227.45" style="stroke: #A80036; stroke-width: 1.0;"/><!--
@startuml decorator
abstract Component{
  {abstract} operation()
}
class ConcreteComponent{
  + operation()
}
abstract Decorator{
  {abstract} operation()
}
class ConcreteDecoratorA{
  + addedState
  + operation()
}
class ConcreteDecoratorB{
  + operation()
  + addedBehavior()
}

ConcreteComponent -up-|> Component
Decorator -up-|> Component
Decorator o-up- Component : component
ConcreteDecoratorA .up.|>Decorator
ConcreteDecoratorB .up.|>Decorator
@enduml

PlantUML version 1.2019.09(Tue Aug 27 00:19:51 CST 2019)
(GPL source distribution)
Java Runtime: Java(TM) SE Runtime Environment
JVM: Java HotSpot(TM) 64-Bit Server VM
Java Version: 1.8.0_152-b16
Operating System: Mac OS X
OS Version: 10.14.4
Default Encoding: UTF-8
Language: zh
Country: CN
--></g></svg>