<?xml version="1.0" encoding="UTF-8" standalone="no"?><svg xmlns="http://www.w3.org/2000/svg" xmlns:xlink="http://www.w3.org/1999/xlink" contentScriptType="application/ecmascript" contentStyleType="text/css" height="278px" preserveAspectRatio="none" style="width:296px;height:278px;" version="1.1" viewBox="0 0 296 278" width="296px" zoomAndPan="magnify"><defs><filter height="300%" id="f6qlm5tlkxi3g" width="300%" x="-1" y="-1"><feGaussianBlur result="blurOut" stdDeviation="2.0"/><feColorMatrix in="blurOut" result="blurOut2" type="matrix" values="0 0 0 0 0 0 0 0 0 0 0 0 0 0 0 0 0 0 .4 0"/><feOffset dx="4.0" dy="4.0" in="blurOut2" result="blurOut3"/><feBlend in="SourceGraphic" in2="blurOut3" mode="normal"/></filter></defs><g><!--class Direcotr--><rect fill="#FEFECE" filter="url(#f6qlm5tlkxi3g)" height="73.9102" id="Direcotr" style="stroke: #A80036; stroke-width: 1.5;" width="112" x="6" y="21"/><ellipse cx="36.3" cy="37" fill="#ADD1B2" rx="11" ry="11" style="stroke: #A80036; stroke-width: 1.0;"/><path d="M38.7731,43.1431 Q38.1921,43.4419 37.5529,43.5913 Q36.9138,43.7407 36.2082,43.7407 Q33.7014,43.7407 32.3815,42.0889 Q31.0617,40.437 31.0617,37.3159 Q31.0617,34.1865 32.3815,32.5347 Q33.7014,30.8828 36.2082,30.8828 Q36.9138,30.8828 37.5612,31.0322 Q38.2087,31.1816 38.7731,31.4805 L38.7731,34.2031 Q38.1423,33.6221 37.5488,33.3523 Q36.9553,33.0825 36.3244,33.0825 Q34.9797,33.0825 34.2949,34.1492 Q33.6101,35.2158 33.6101,37.3159 Q33.6101,39.4077 34.2949,40.4744 Q34.9797,41.541 36.3244,41.541 Q36.9553,41.541 37.5488,41.2712 Q38.1423,41.0015 38.7731,40.4204 Z "/><text fill="#000000" font-family="sans-serif" font-size="12" lengthAdjust="spacingAndGlyphs" textLength="46" x="53.7" y="41.5352">Direcotr</text><line style="stroke: #A80036; stroke-width: 1.5;" x1="7" x2="117" y1="53" y2="53"/><rect fill="none" height="6" style="stroke: #C82930; stroke-width: 1.0;" width="6" x="14" y="61"/><text fill="#000000" font-family="sans-serif" font-size="11" lengthAdjust="spacingAndGlyphs" textLength="81" x="26" y="67.6348">builder: Builder</text><line style="stroke: #A80036; stroke-width: 1.5;" x1="7" x2="117" y1="73.9551" y2="73.9551"/><ellipse cx="17" cy="84.9551" fill="#84BE84" rx="3" ry="3" style="stroke: #038048; stroke-width: 1.0;"/><text fill="#000000" font-family="sans-serif" font-size="11" lengthAdjust="spacingAndGlyphs" textLength="86" x="26" y="88.5898">construct():void</text><!--class Builder--><rect fill="#FEFECE" filter="url(#f6qlm5tlkxi3g)" height="99.8203" id="Builder" style="stroke: #A80036; stroke-width: 1.5;" width="132" x="153" y="8"/><ellipse cx="195" cy="24" fill="#A9DCDF" rx="11" ry="11" style="stroke: #A80036; stroke-width: 1.0;"/><path d="M195.1133,19.5981 L193.9595,24.6699 L196.2754,24.6699 Z M193.6191,17.3569 L196.6157,17.3569 L199.9609,29.75 L197.5122,29.75 L196.7485,26.687 L193.4697,26.687 L192.7227,29.75 L190.2739,29.75 Z "/><text fill="#000000" font-family="sans-serif" font-size="12" font-style="italic" lengthAdjust="spacingAndGlyphs" textLength="40" x="215" y="28.5352">Builder</text><line style="stroke: #A80036; stroke-width: 1.5;" x1="154" x2="284" y1="40" y2="40"/><line style="stroke: #A80036; stroke-width: 1.5;" x1="154" x2="284" y1="48" y2="48"/><text fill="#000000" font-family="sans-serif" font-size="11" font-style="italic" lengthAdjust="spacingAndGlyphs" textLength="90" x="173" y="62.6348">buildPartA():void</text><text fill="#000000" font-family="sans-serif" font-size="11" font-style="italic" lengthAdjust="spacingAndGlyphs" textLength="88" x="173" y="75.5898">buildPartB():void</text><text fill="#000000" font-family="sans-serif" font-size="11" font-style="italic" lengthAdjust="spacingAndGlyphs" textLength="90" x="173" y="88.5449">buildPartC():void</text><ellipse cx="164" cy="97.8652" fill="#84BE84" rx="3" ry="3" style="stroke: #038048; stroke-width: 1.0;"/><text fill="#000000" font-family="sans-serif" font-size="11" lengthAdjust="spacingAndGlyphs" textLength="106" x="173" y="101.5">getResult(): Product</text><!--class ConcreteBuilder--><rect fill="#FEFECE" filter="url(#f6qlm5tlkxi3g)" height="99.8203" id="ConcreteBuilder" style="stroke: #A80036; stroke-width: 1.5;" width="132" x="153" y="168"/><ellipse cx="172.05" cy="184" fill="#ADD1B2" rx="11" ry="11" style="stroke: #A80036; stroke-width: 1.0;"/><path d="M174.5231,190.1431 Q173.9421,190.4419 173.3029,190.5913 Q172.6638,190.7407 171.9582,190.7407 Q169.4514,190.7407 168.1315,189.0889 Q166.8117,187.437 166.8117,184.3159 Q166.8117,181.1865 168.1315,179.5347 Q169.4514,177.8828 171.9582,177.8828 Q172.6638,177.8828 173.3112,178.0322 Q173.9587,178.1816 174.5231,178.4805 L174.5231,181.2031 Q173.8923,180.6221 173.2988,180.3523 Q172.7053,180.0825 172.0744,180.0825 Q170.7297,180.0825 170.0449,181.1492 Q169.3601,182.2158 169.3601,184.3159 Q169.3601,186.4077 170.0449,187.4744 Q170.7297,188.541 172.0744,188.541 Q172.7053,188.541 173.2988,188.2712 Q173.8923,188.0015 174.5231,187.4204 Z "/><text fill="#000000" font-family="sans-serif" font-size="12" lengthAdjust="spacingAndGlyphs" textLength="91" x="186.95" y="188.5352">ConcreteBuilder</text><line style="stroke: #A80036; stroke-width: 1.5;" x1="154" x2="284" y1="200" y2="200"/><line style="stroke: #A80036; stroke-width: 1.5;" x1="154" x2="284" y1="208" y2="208"/><ellipse cx="164" cy="219" fill="#84BE84" rx="3" ry="3" style="stroke: #038048; stroke-width: 1.0;"/><text fill="#000000" font-family="sans-serif" font-size="11" lengthAdjust="spacingAndGlyphs" textLength="90" x="173" y="222.6348">buildPartA():void</text><ellipse cx="164" cy="231.9551" fill="#84BE84" rx="3" ry="3" style="stroke: #038048; stroke-width: 1.0;"/><text fill="#000000" font-family="sans-serif" font-size="11" lengthAdjust="spacingAndGlyphs" textLength="88" x="173" y="235.5898">buildPartB():void</text><ellipse cx="164" cy="244.9102" fill="#84BE84" rx="3" ry="3" style="stroke: #038048; stroke-width: 1.0;"/><text fill="#000000" font-family="sans-serif" font-size="11" lengthAdjust="spacingAndGlyphs" textLength="90" x="173" y="248.5449">buildPartC():void</text><ellipse cx="164" cy="257.8652" fill="#84BE84" rx="3" ry="3" style="stroke: #038048; stroke-width: 1.0;"/><text fill="#000000" font-family="sans-serif" font-size="11" lengthAdjust="spacingAndGlyphs" textLength="106" x="173" y="261.5">getResult(): Product</text><!--class Product--><rect fill="#FEFECE" filter="url(#f6qlm5tlkxi3g)" height="48" id="Product" style="stroke: #A80036; stroke-width: 1.5;" width="76" x="42" y="194"/><ellipse cx="57" cy="210" fill="#ADD1B2" rx="11" ry="11" style="stroke: #A80036; stroke-width: 1.0;"/><path d="M59.4731,216.1431 Q58.8921,216.4419 58.2529,216.5913 Q57.6138,216.7407 56.9082,216.7407 Q54.4014,216.7407 53.0815,215.0889 Q51.7617,213.437 51.7617,210.3159 Q51.7617,207.1865 53.0815,205.5347 Q54.4014,203.8828 56.9082,203.8828 Q57.6138,203.8828 58.2612,204.0322 Q58.9087,204.1816 59.4731,204.4805 L59.4731,207.2031 Q58.8423,206.6221 58.2488,206.3523 Q57.6553,206.0825 57.0244,206.0825 Q55.6797,206.0825 54.9949,207.1492 Q54.3101,208.2158 54.3101,210.3159 Q54.3101,212.4077 54.9949,213.4744 Q55.6797,214.541 57.0244,214.541 Q57.6553,214.541 58.2488,214.2712 Q58.8423,214.0015 59.4731,213.4204 Z "/><text fill="#000000" font-family="sans-serif" font-size="12" lengthAdjust="spacingAndGlyphs" textLength="44" x="71" y="214.5352">Product</text><line style="stroke: #A80036; stroke-width: 1.5;" x1="43" x2="117" y1="226" y2="226"/><line style="stroke: #A80036; stroke-width: 1.5;" x1="43" x2="117" y1="234" y2="234"/><!--link Direcotr to Builder--><path d="M118.12,58 C127.96,58 137.8,58 147.65,58 " fill="none" id="Direcotr-&gt;Builder" style="stroke: #A80036; stroke-width: 1.0;"/><polygon fill="#A80036" points="152.79,58,143.79,54,147.79,58,143.79,62,152.79,58" style="stroke: #A80036; stroke-width: 1.0;"/><!--reverse link Builder to ConcreteBuilder--><path d="M219,128.48 C219,141.77 219,155.42 219,167.9 " fill="none" id="Builder&lt;-ConcreteBuilder" style="stroke: #A80036; stroke-width: 1.0; stroke-dasharray: 7.0,7.0;"/><polygon fill="none" points="212,128.13,219,108.13,226,128.13,212,128.13" style="stroke: #A80036; stroke-width: 1.0;"/><!--reverse link Product to ConcreteBuilder--><path d="M123.16,218 C133.02,218 142.87,218 152.72,218 " fill="none" id="Product&lt;-ConcreteBuilder" style="stroke: #A80036; stroke-width: 1.0; stroke-dasharray: 7.0,7.0;"/><polygon fill="#A80036" points="118.01,218,127.01,222,123.01,218,127.01,214,118.01,218" style="stroke: #A80036; stroke-width: 1.0;"/><!--
@startuml builder
class Direcotr{
  - builder: Builder

  + construct():void
}
abstract Builder{
  {abstract} buildPartA():void
  {abstract} buildPartB():void
  {abstract} buildPartC():void
  + getResult(): Product
}
class ConcreteBuilder{
  + buildPartA():void
  + buildPartB():void
  + buildPartC():void
  + getResult(): Product
}
class Product

Direcotr -right-> Builder
Builder <|.. ConcreteBuilder
ConcreteBuilder .left.> Product
@enduml

PlantUML version 1.2019.09(Tue Aug 27 00:19:51 CST 2019)
(GPL source distribution)
Java Runtime: Java(TM) SE Runtime Environment
JVM: Java HotSpot(TM) 64-Bit Server VM
Java Version: 1.8.0_152-b16
Operating System: Mac OS X
OS Version: 10.14.4
Default Encoding: UTF-8
Language: zh
Country: CN
--></g></svg>